<ttFont>
    <TTGlyph name=".notdef" xMin="0" yMin="0" xMax="502" yMax="701">
      <contour>
        <pt x="251" y="302" on="1"/>
        <pt x="247" y="302" on="1"/>
        <pt x="147" y="93" on="1"/>
        <pt x="87" y="93" on="1"/>
        <pt x="221" y="353" on="1"/>
        <pt x="87" y="608" on="1"/>
        <pt x="147" y="608" on="1"/>
        <pt x="252" y="402" on="1"/>
        <pt x="256" y="402" on="1"/>
        <pt x="356" y="608" on="1"/>
        <pt x="416" y="608" on="1"/>
        <pt x="281" y="347" on="1"/>
        <pt x="416" y="93" on="1"/>
        <pt x="356" y="93" on="1"/>
      </contour>
      <contour>
        <pt x="51" y="652" on="1"/>
        <pt x="51" y="49" on="1"/>
        <pt x="451" y="49" on="1"/>
        <pt x="451" y="652" on="1"/>
      </contour>
      <contour>
        <pt x="0" y="0" on="1"/>
        <pt x="0" y="701" on="1"/>
        <pt x="502" y="701" on="1"/>
        <pt x="502" y="0" on="1"/>
      </contour>
    </TTGlyph>
    <TTGlyph name="A" xMin="38" yMin="0" xMax="599" yMax="674">
      <contour>
        <pt x="532" y="0" on="1"/>
        <pt x="468" y="187" on="1"/>
        <pt x="170" y="187" on="1"/>
        <pt x="105" y="0" on="1"/>
        <pt x="38" y="0" on="1"/>
        <pt x="276" y="674" on="1"/>
        <pt x="366" y="674" on="1"/>
        <pt x="599" y="0" on="1"/>
      </contour>
      <contour>
        <pt x="189" y="242" on="1"/>
        <pt x="450" y="242" on="1"/>
        <pt x="321" y="622" on="1"/>
        <pt x="283" y="506" on="0"/>
      </contour>
    </TTGlyph>
    <TTGlyph name="AE" xMin="27" yMin="0" xMax="818" yMax="674">
      <contour>
        <pt x="515" y="57" on="1"/>
        <pt x="818" y="57" on="1"/>
        <pt x="818" y="0" on="1"/>
        <pt x="453" y="0" on="1"/>
        <pt x="453" y="187" on="1"/>
        <pt x="205" y="187" on="1"/>
        <pt x="94" y="0" on="1"/>
        <pt x="27" y="0" on="1"/>
        <pt x="425" y="674" on="1"/>
        <pt x="812" y="674" on="1"/>
        <pt x="812" y="617" on="1"/>
        <pt x="515" y="617" on="1"/>
        <pt x="515" y="365" on="1"/>
        <pt x="777" y="365" on="1"/>
        <pt x="777" y="308" on="1"/>
        <pt x="515" y="308" on="1"/>
      </contour>
      <contour>
        <pt x="453" y="242" on="1"/>
        <pt x="453" y="612" on="1"/>
        <pt x="387" y="492" on="0"/>
        <pt x="238" y="242" on="1"/>
      </contour>
    </TTGlyph>
    <TTGlyph name="Aacute" xMin="38" yMin="0" xMax="599" yMax="879">
      <contour>
        <pt x="532" y="0" on="1"/>
        <pt x="468" y="187" on="1"/>
        <pt x="170" y="187" on="1"/>
        <pt x="105" y="0" on="1"/>
        <pt x="38" y="0" on="1"/>
        <pt x="276" y="674" on="1"/>
        <pt x="366" y="674" on="1"/>
        <pt x="599" y="0" on="1"/>
      </contour>
      <contour>
        <pt x="189" y="242" on="1"/>
        <pt x="450" y="242" on="1"/>
        <pt x="321" y="622" on="1"/>
        <pt x="283" y="506" on="0"/>
      </contour>
      <contour>
        <pt x="483" y="879" on="1"/>
        <pt x="355" y="729" on="1"/>
        <pt x="300" y="729" on="1"/>
        <pt x="402" y="879" on="1"/>
      </contour>
    </TTGlyph>
    <TTGlyph name="Abreve" xMin="38" yMin="0" xMax="599" yMax="878">
      <contour>
        <pt x="532" y="0" on="1"/>
        <pt x="468" y="187" on="1"/>
        <pt x="170" y="187" on="1"/>
        <pt x="105" y="0" on="1"/>
        <pt x="38" y="0" on="1"/>
        <pt x="276" y="674" on="1"/>
        <pt x="366" y="674" on="1"/>
        <pt x="599" y="0" on="1"/>
      </contour>
      <contour>
        <pt x="189" y="242" on="1"/>
        <pt x="450" y="242" on="1"/>
        <pt x="321" y="622" on="1"/>
        <pt x="283" y="506" on="0"/>
      </contour>
      <contour>
        <pt x="424" y="878" on="1"/>
        <pt x="476" y="878" on="1"/>
        <pt x="476" y="810" on="0"/>
        <pt x="402" y="725" on="0"/>
        <pt x="240" y="725" on="0"/>
        <pt x="166" y="810" on="0"/>
        <pt x="166" y="878" on="1"/>
        <pt x="218" y="878" on="1"/>
        <pt x="218" y="773" on="0"/>
        <pt x="424" y="773" on="0"/>
      </contour>
    </TTGlyph>
    <TTGlyph name="Acircumflex" xMin="38" yMin="0" xMax="599" yMax="879">
      <contour>
        <pt x="532" y="0" on="1"/>
        <pt x="468" y="187" on="1"/>
        <pt x="170" y="187" on="1"/>
        <pt x="105" y="0" on="1"/>
        <pt x="38" y="0" on="1"/>
        <pt x="276" y="674" on="1"/>
        <pt x="366" y="674" on="1"/>
        <pt x="599" y="0" on="1"/>
      </contour>
      <contour>
        <pt x="189" y="242" on="1"/>
        <pt x="450" y="242" on="1"/>
        <pt x="321" y="622" on="1"/>
        <pt x="283" y="506" on="0"/>
      </contour>
      <contour>
        <pt x="321" y="836" on="1"/>
        <pt x="235" y="729" on="1"/>
        <pt x="171" y="729" on="1"/>
        <pt x="290" y="879" on="1"/>
        <pt x="353" y="879" on="1"/>
        <pt x="472" y="729" on="1"/>
        <pt x="408" y="729" on="1"/>
      </contour>
    </TTGlyph>
    <TTGlyph name="Adieresis" xMin="38" yMin="0" xMax="599" yMax="848">
      <contour>
        <pt x="532" y="0" on="1"/>
        <pt x="468" y="187" on="1"/>
        <pt x="170" y="187" on="1"/>
        <pt x="105" y="0" on="1"/>
        <pt x="38" y="0" on="1"/>
        <pt x="276" y="674" on="1"/>
        <pt x="366" y="674" on="1"/>
        <pt x="599" y="0" on="1"/>
      </contour>
      <contour>
        <pt x="189" y="242" on="1"/>
        <pt x="450" y="242" on="1"/>
        <pt x="321" y="622" on="1"/>
        <pt x="283" y="506" on="0"/>
      </contour>
      <contour>
        <pt x="272" y="787" on="0"/>
        <pt x="247" y="762" on="0"/>
        <pt x="210" y="762" on="0"/>
        <pt x="186" y="787" on="0"/>
        <pt x="186" y="824" on="0"/>
        <pt x="210" y="848" on="0"/>
        <pt x="247" y="848" on="0"/>
        <pt x="272" y="824" on="0"/>
      </contour>
      <contour>
        <pt x="456" y="787" on="0"/>
        <pt x="432" y="762" on="0"/>
        <pt x="395" y="762" on="0"/>
        <pt x="370" y="787" on="0"/>
        <pt x="370" y="824" on="0"/>
        <pt x="395" y="848" on="0"/>
        <pt x="432" y="848" on="0"/>
        <pt x="456" y="824" on="0"/>
      </contour>
    </TTGlyph>
    <TTGlyph name="Agrave" xMin="38" yMin="0" xMax="599" yMax="879">
      <contour>
        <pt x="532" y="0" on="1"/>
        <pt x="468" y="187" on="1"/>
        <pt x="170" y="187" on="1"/>
        <pt x="105" y="0" on="1"/>
        <pt x="38" y="0" on="1"/>
        <pt x="276" y="674" on="1"/>
        <pt x="366" y="674" on="1"/>
        <pt x="599" y="0" on="1"/>
      </contour>
      <contour>
        <pt x="189" y="242" on="1"/>
        <pt x="450" y="242" on="1"/>
        <pt x="321" y="622" on="1"/>
        <pt x="283" y="506" on="0"/>
      </contour>
      <contour>
        <pt x="341" y="729" on="1"/>
        <pt x="286" y="729" on="1"/>
        <pt x="158" y="879" on="1"/>
        <pt x="239" y="879" on="1"/>
      </contour>
    </TTGlyph>
    <TTGlyph name="Amacron" xMin="38" yMin="0" xMax="599" yMax="826">
      <contour>
        <pt x="532" y="0" on="1"/>
        <pt x="468" y="187" on="1"/>
        <pt x="170" y="187" on="1"/>
        <pt x="105" y="0" on="1"/>
        <pt x="38" y="0" on="1"/>
        <pt x="276" y="674" on="1"/>
        <pt x="366" y="674" on="1"/>
        <pt x="599" y="0" on="1"/>
      </contour>
      <contour>
        <pt x="189" y="242" on="1"/>
        <pt x="450" y="242" on="1"/>
        <pt x="321" y="622" on="1"/>
        <pt x="283" y="506" on="0"/>
      </contour>
      <contour>
        <pt x="453" y="826" on="1"/>
        <pt x="453" y="781" on="1"/>
        <pt x="190" y="781" on="1"/>
        <pt x="190" y="826" on="1"/>
      </contour>
    </TTGlyph>
    <TTGlyph name="Aogonek" xMin="38" yMin="-237" xMax="622" yMax="674">
      <contour>
        <pt x="488" y="-124" on="1"/>
        <pt x="488" y="-156" on="0"/>
        <pt x="526" y="-189" on="0"/>
        <pt x="595" y="-189" on="0"/>
        <pt x="622" y="-169" on="1"/>
        <pt x="622" y="-219" on="1"/>
        <pt x="594" y="-237" on="0"/>
        <pt x="496" y="-237" on="0"/>
        <pt x="432" y="-176" on="0"/>
        <pt x="432" y="-87" on="0"/>
        <pt x="486" y="-13" on="0"/>
        <pt x="528" y="11" on="1"/>
        <pt x="468" y="187" on="1"/>
        <pt x="170" y="187" on="1"/>
        <pt x="105" y="0" on="1"/>
        <pt x="38" y="0" on="1"/>
        <pt x="276" y="674" on="1"/>
        <pt x="366" y="674" on="1"/>
        <pt x="599" y="0" on="1"/>
        <pt x="488" y="-50" on="0"/>
      </contour>
      <contour>
        <pt x="189" y="242" on="1"/>
        <pt x="450" y="242" on="1"/>
        <pt x="321" y="622" on="1"/>
        <pt x="283" y="506" on="0"/>
      </contour>
    </TTGlyph>
    <TTGlyph name="Aring" xMin="38" yMin="0" xMax="599" yMax="916">
      <contour>
        <pt x="532" y="0" on="1"/>
        <pt x="468" y="187" on="1"/>
        <pt x="170" y="187" on="1"/>
        <pt x="105" y="0" on="1"/>
        <pt x="38" y="0" on="1"/>
        <pt x="276" y="674" on="1"/>
        <pt x="366" y="674" on="1"/>
        <pt x="599" y="0" on="1"/>
      </contour>
      <contour>
        <pt x="189" y="242" on="1"/>
        <pt x="450" y="242" on="1"/>
        <pt x="321" y="622" on="1"/>
        <pt x="283" y="506" on="0"/>
      </contour>
      <contour>
        <pt x="362" y="719" on="0"/>
        <pt x="280" y="719" on="0"/>
        <pt x="223" y="776" on="0"/>
        <pt x="223" y="858" on="0"/>
        <pt x="280" y="916" on="0"/>
        <pt x="362" y="916" on="0"/>
        <pt x="420" y="858" on="0"/>
        <pt x="420" y="776" on="0"/>
      </contour>
      <contour>
        <pt x="375" y="840" on="0"/>
        <pt x="344" y="871" on="0"/>
        <pt x="299" y="871" on="0"/>
        <pt x="268" y="839" on="0"/>
        <pt x="268" y="795" on="0"/>
        <pt x="299" y="764" on="0"/>
        <pt x="343" y="764" on="0"/>
        <pt x="375" y="795" on="0"/>
      </contour>
    </TTGlyph>
    <TTGlyph name="Atilde" xMin="38" yMin="0" xMax="599" yMax="857">
      <contour>
        <pt x="532" y="0" on="1"/>
        <pt x="468" y="187" on="1"/>
        <pt x="170" y="187" on="1"/>
        <pt x="105" y="0" on="1"/>
        <pt x="38" y="0" on="1"/>
        <pt x="276" y="674" on="1"/>
        <pt x="366" y="674" on="1"/>
        <pt x="599" y="0" on="1"/>
      </contour>
      <contour>
        <pt x="189" y="242" on="1"/>
        <pt x="450" y="242" on="1"/>
        <pt x="321" y="622" on="1"/>
        <pt x="283" y="506" on="0"/>
      </contour>
      <contour>
        <pt x="393" y="762" on="1"/>
        <pt x="368" y="762" on="0"/>
        <pt x="279" y="808" on="0"/>
        <pt x="263" y="808" on="1"/>
        <pt x="221" y="808" on="0"/>
        <pt x="196" y="759" on="1"/>
        <pt x="160" y="789" on="1"/>
        <pt x="173" y="818" on="0"/>
        <pt x="226" y="857" on="0"/>
        <pt x="285" y="857" on="0"/>
        <pt x="372" y="811" on="0"/>
        <pt x="390" y="811" on="1"/>
        <pt x="420" y="811" on="0"/>
        <pt x="440" y="854" on="1"/>
        <pt x="482" y="826" on="1"/>
        <pt x="452" y="762" on="0"/>
      </contour>
    </TTGlyph>
    <TTGlyph name="B" xMin="80" yMin="0" xMax="517" yMax="674">
      <contour>
        <pt x="80" y="674" on="1"/>
        <pt x="268" y="674" on="1"/>
        <pt x="370" y="674" on="0"/>
        <pt x="497" y="581" on="0"/>
        <pt x="497" y="499" on="1"/>
        <pt x="497" y="439" on="0"/>
        <pt x="430" y="354" on="0"/>
        <pt x="377" y="343" on="1"/>
        <pt x="434" y="336" on="0"/>
        <pt x="517" y="252" on="0"/>
        <pt x="517" y="98" on="0"/>
        <pt x="412" y="0" on="0"/>
        <pt x="314" y="0" on="1"/>
        <pt x="80" y="0" on="1"/>
      </contour>
      <contour>
        <pt x="142" y="619" on="1"/>
        <pt x="142" y="368" on="1"/>
        <pt x="263" y="368" on="1"/>
        <pt x="350" y="368" on="0"/>
        <pt x="432" y="443" on="0"/>
        <pt x="432" y="551" on="0"/>
        <pt x="353" y="619" on="0"/>
        <pt x="275" y="619" on="1"/>
      </contour>
      <contour>
        <pt x="142" y="55" on="1"/>
        <pt x="314" y="55" on="1"/>
        <pt x="379" y="55" on="0"/>
        <pt x="452" y="120" on="0"/>
        <pt x="452" y="244" on="0"/>
        <pt x="369" y="313" on="0"/>
        <pt x="295" y="313" on="1"/>
        <pt x="142" y="313" on="1"/>
      </contour>
    </TTGlyph>
    <TTGlyph name="C" xMin="50" yMin="-8" xMax="559" yMax="683">
      <contour>
        <pt x="385" y="624" on="1"/>
        <pt x="269" y="624" on="0"/>
        <pt x="114" y="467" on="0"/>
        <pt x="114" y="209" on="0"/>
        <pt x="267" y="51" on="0"/>
        <pt x="394" y="51" on="1"/>
        <pt x="493" y="51" on="0"/>
        <pt x="559" y="103" on="1"/>
        <pt x="559" y="35" on="1"/>
        <pt x="498" y="-8" on="0"/>
        <pt x="391" y="-8" on="1"/>
        <pt x="238" y="-8" on="0"/>
        <pt x="50" y="178" on="0"/>
        <pt x="50" y="493" on="0"/>
        <pt x="244" y="683" on="0"/>
        <pt x="387" y="683" on="1"/>
        <pt x="486" y="683" on="0"/>
        <pt x="557" y="647" on="1"/>
        <pt x="557" y="582" on="1"/>
        <pt x="513" y="605" on="0"/>
        <pt x="445" y="624" on="0"/>
      </contour>
    </TTGlyph>
    <TTGlyph name="Cacute" xMin="50" yMin="-8" xMax="559" yMax="879">
      <contour>
        <pt x="337" y="729" on="1"/>
        <pt x="439" y="879" on="1"/>
        <pt x="520" y="879" on="1"/>
        <pt x="392" y="729" on="1"/>
      </contour>
      <contour>
        <pt x="385" y="624" on="1"/>
        <pt x="269" y="624" on="0"/>
        <pt x="114" y="467" on="0"/>
        <pt x="114" y="209" on="0"/>
        <pt x="267" y="51" on="0"/>
        <pt x="394" y="51" on="1"/>
        <pt x="493" y="51" on="0"/>
        <pt x="559" y="103" on="1"/>
        <pt x="559" y="35" on="1"/>
        <pt x="498" y="-8" on="0"/>
        <pt x="391" y="-8" on="1"/>
        <pt x="238" y="-8" on="0"/>
        <pt x="50" y="178" on="0"/>
        <pt x="50" y="493" on="0"/>
        <pt x="244" y="683" on="0"/>
        <pt x="387" y="683" on="1"/>
        <pt x="486" y="683" on="0"/>
        <pt x="557" y="647" on="1"/>
        <pt x="557" y="582" on="1"/>
        <pt x="513" y="605" on="0"/>
        <pt x="445" y="624" on="0"/>
      </contour>
    </TTGlyph>
    <TTGlyph name="Ccaron" xMin="50" yMin="-8" xMax="559" yMax="879">
      <contour>
        <pt x="415" y="729" on="1"/>
        <pt x="352" y="729" on="1"/>
        <pt x="233" y="879" on="1"/>
        <pt x="297" y="879" on="1"/>
        <pt x="384" y="772" on="1"/>
        <pt x="470" y="879" on="1"/>
        <pt x="534" y="879" on="1"/>
      </contour>
      <contour>
        <pt x="385" y="624" on="1"/>
        <pt x="269" y="624" on="0"/>
        <pt x="114" y="467" on="0"/>
        <pt x="114" y="209" on="0"/>
        <pt x="267" y="51" on="0"/>
        <pt x="394" y="51" on="1"/>
        <pt x="493" y="51" on="0"/>
        <pt x="559" y="103" on="1"/>
        <pt x="559" y="35" on="1"/>
        <pt x="498" y="-8" on="0"/>
        <pt x="391" y="-8" on="1"/>
        <pt x="238" y="-8" on="0"/>
        <pt x="50" y="178" on="0"/>
        <pt x="50" y="493" on="0"/>
        <pt x="244" y="683" on="0"/>
        <pt x="387" y="683" on="1"/>
        <pt x="486" y="683" on="0"/>
        <pt x="557" y="647" on="1"/>
        <pt x="557" y="582" on="1"/>
        <pt x="513" y="605" on="0"/>
        <pt x="445" y="624" on="0"/>
      </contour>
    </TTGlyph>
    <TTGlyph name="Ccedilla" xMin="50" yMin="-248" xMax="559" yMax="683">
      <contour>
        <pt x="385" y="624" on="1"/>
        <pt x="269" y="624" on="0"/>
        <pt x="114" y="467" on="0"/>
        <pt x="114" y="209" on="0"/>
        <pt x="267" y="51" on="0"/>
        <pt x="394" y="51" on="1"/>
        <pt x="493" y="51" on="0"/>
        <pt x="559" y="103" on="1"/>
        <pt x="559" y="35" on="1"/>
        <pt x="498" y="-8" on="0"/>
        <pt x="391" y="-8" on="1"/>
        <pt x="238" y="-8" on="0"/>
        <pt x="50" y="178" on="0"/>
        <pt x="50" y="493" on="0"/>
        <pt x="244" y="683" on="0"/>
        <pt x="387" y="683" on="1"/>
        <pt x="486" y="683" on="0"/>
        <pt x="557" y="647" on="1"/>
        <pt x="557" y="582" on="1"/>
        <pt x="513" y="605" on="0"/>
        <pt x="445" y="624" on="0"/>
      </contour>
      <contour>
        <pt x="397" y="-51" on="1"/>
        <pt x="415" y="-77" on="0"/>
        <pt x="415" y="-173" on="0"/>
        <pt x="341" y="-245" on="0"/>
        <pt x="272" y="-248" on="1"/>
        <pt x="272" y="-199" on="1"/>
        <pt x="359" y="-190" on="0"/>
        <pt x="359" y="-126" on="1"/>
        <pt x="359" y="-89" on="0"/>
        <pt x="336" y="-51" on="1"/>
      </contour>
    </TTGlyph>
    <TTGlyph name="Ccircumflex" xMin="50" yMin="-8" xMax="559" yMax="879">
      <contour>
        <pt x="336" y="879" on="1"/>
        <pt x="399" y="879" on="1"/>
        <pt x="518" y="729" on="1"/>
        <pt x="454" y="729" on="1"/>
        <pt x="367" y="836" on="1"/>
        <pt x="281" y="729" on="1"/>
        <pt x="217" y="729" on="1"/>
      </contour>
      <contour>
        <pt x="385" y="624" on="1"/>
        <pt x="269" y="624" on="0"/>
        <pt x="114" y="467" on="0"/>
        <pt x="114" y="209" on="0"/>
        <pt x="267" y="51" on="0"/>
        <pt x="394" y="51" on="1"/>
        <pt x="493" y="51" on="0"/>
        <pt x="559" y="103" on="1"/>
        <pt x="559" y="35" on="1"/>
        <pt x="498" y="-8" on="0"/>
        <pt x="391" y="-8" on="1"/>
        <pt x="238" y="-8" on="0"/>
        <pt x="50" y="178" on="0"/>
        <pt x="50" y="493" on="0"/>
        <pt x="244" y="683" on="0"/>
        <pt x="387" y="683" on="1"/>
        <pt x="486" y="683" on="0"/>
        <pt x="557" y="647" on="1"/>
        <pt x="557" y="582" on="1"/>
        <pt x="513" y="605" on="0"/>
        <pt x="445" y="624" on="0"/>
      </contour>
    </TTGlyph>
    <TTGlyph name="Cdotaccent" xMin="50" yMin="-8" xMax="559" yMax="850">
      <contour>
        <pt x="385" y="624" on="1"/>
        <pt x="269" y="624" on="0"/>
        <pt x="114" y="467" on="0"/>
        <pt x="114" y="209" on="0"/>
        <pt x="267" y="51" on="0"/>
        <pt x="394" y="51" on="1"/>
        <pt x="493" y="51" on="0"/>
        <pt x="559" y="103" on="1"/>
        <pt x="559" y="35" on="1"/>
        <pt x="498" y="-8" on="0"/>
        <pt x="391" y="-8" on="1"/>
        <pt x="238" y="-8" on="0"/>
        <pt x="50" y="178" on="0"/>
        <pt x="50" y="493" on="0"/>
        <pt x="244" y="683" on="0"/>
        <pt x="387" y="683" on="1"/>
        <pt x="486" y="683" on="0"/>
        <pt x="557" y="647" on="1"/>
        <pt x="557" y="582" on="1"/>
        <pt x="513" y="605" on="0"/>
        <pt x="445" y="624" on="0"/>
      </contour>
      <contour>
        <pt x="353" y="764" on="0"/>
        <pt x="328" y="789" on="0"/>
        <pt x="328" y="826" on="0"/>
        <pt x="353" y="850" on="0"/>
        <pt x="390" y="850" on="0"/>
        <pt x="414" y="826" on="0"/>
        <pt x="414" y="789" on="0"/>
        <pt x="390" y="764" on="0"/>
      </contour>
    </TTGlyph>
    <TTGlyph name="D" xMin="80" yMin="0" xMax="610" yMax="674">
      <contour>
        <pt x="80" y="674" on="1"/>
        <pt x="272" y="674" on="1"/>
        <pt x="420" y="674" on="0"/>
        <pt x="610" y="490" on="0"/>
        <pt x="610" y="341" on="1"/>
        <pt x="610" y="144" on="0"/>
        <pt x="462" y="50" on="1"/>
        <pt x="385" y="0" on="0"/>
        <pt x="277" y="0" on="1"/>
        <pt x="80" y="0" on="1"/>
      </contour>
      <contour>
        <pt x="142" y="57" on="1"/>
        <pt x="277" y="57" on="1"/>
        <pt x="346" y="57" on="0"/>
        <pt x="452" y="105" on="0"/>
        <pt x="483" y="146" on="1"/>
        <pt x="545" y="228" on="0"/>
        <pt x="545" y="456" on="0"/>
        <pt x="392" y="617" on="0"/>
        <pt x="272" y="617" on="1"/>
        <pt x="142" y="617" on="1"/>
      </contour>
    </TTGlyph>
    <TTGlyph name="Dcaron" xMin="80" yMin="0" xMax="610" yMax="878">
      <contour>
        <pt x="80" y="674" on="1"/>
        <pt x="272" y="674" on="1"/>
        <pt x="420" y="674" on="0"/>
        <pt x="610" y="490" on="0"/>
        <pt x="610" y="341" on="1"/>
        <pt x="610" y="144" on="0"/>
        <pt x="462" y="50" on="1"/>
        <pt x="385" y="0" on="0"/>
        <pt x="277" y="0" on="1"/>
        <pt x="80" y="0" on="1"/>
      </contour>
      <contour>
        <pt x="142" y="57" on="1"/>
        <pt x="277" y="57" on="1"/>
        <pt x="346" y="57" on="0"/>
        <pt x="452" y="105" on="0"/>
        <pt x="483" y="146" on="1"/>
        <pt x="545" y="228" on="0"/>
        <pt x="545" y="456" on="0"/>
        <pt x="392" y="617" on="0"/>
        <pt x="272" y="617" on="1"/>
        <pt x="142" y="617" on="1"/>
      </contour>
      <contour>
        <pt x="334" y="728" on="1"/>
        <pt x="271" y="728" on="1"/>
        <pt x="152" y="878" on="1"/>
        <pt x="216" y="878" on="1"/>
        <pt x="303" y="771" on="1"/>
        <pt x="389" y="878" on="1"/>
        <pt x="453" y="878" on="1"/>
      </contour>
    </TTGlyph>
    <TTGlyph name="Dcroat" xMin="60" yMin="0" xMax="680" yMax="674">
      <contour>
        <pt x="150" y="674" on="1"/>
        <pt x="342" y="674" on="1"/>
        <pt x="490" y="674" on="0"/>
        <pt x="680" y="490" on="0"/>
        <pt x="680" y="341" on="1"/>
        <pt x="680" y="144" on="0"/>
        <pt x="532" y="50" on="1"/>
        <pt x="455" y="0" on="0"/>
        <pt x="347" y="0" on="1"/>
        <pt x="150" y="0" on="1"/>
        <pt x="150" y="313" on="1"/>
        <pt x="60" y="313" on="1"/>
        <pt x="60" y="366" on="1"/>
        <pt x="150" y="366" on="1"/>
      </contour>
      <contour>
        <pt x="212" y="57" on="1"/>
        <pt x="347" y="57" on="1"/>
        <pt x="416" y="57" on="0"/>
        <pt x="522" y="105" on="0"/>
        <pt x="553" y="146" on="1"/>
        <pt x="615" y="228" on="0"/>
        <pt x="615" y="456" on="0"/>
        <pt x="462" y="617" on="0"/>
        <pt x="342" y="617" on="1"/>
        <pt x="212" y="617" on="1"/>
        <pt x="212" y="366" on="1"/>
        <pt x="396" y="366" on="1"/>
        <pt x="396" y="313" on="1"/>
        <pt x="212" y="313" on="1"/>
      </contour>
    </TTGlyph>
    <TTGlyph name="Delta" xMin="30" yMin="0" xMax="571" yMax="674">
      <contour>
        <pt x="571" y="0" on="1"/>
        <pt x="30" y="0" on="1"/>
        <pt x="30" y="57" on="1"/>
        <pt x="258" y="674" on="1"/>
        <pt x="348" y="674" on="1"/>
        <pt x="571" y="57" on="1"/>
      </contour>
      <contour>
        <pt x="97" y="55" on="1"/>
        <pt x="505" y="55" on="1"/>
        <pt x="433" y="261" on="1"/>
        <pt x="303" y="625" on="1"/>
        <pt x="259" y="510" on="0"/>
      </contour>
    </TTGlyph>
    <TTGlyph name="E" xMin="80" yMin="0" xMax="445" yMax="674">
      <contour>
        <pt x="142" y="57" on="1"/>
        <pt x="445" y="57" on="1"/>
        <pt x="445" y="0" on="1"/>
        <pt x="80" y="0" on="1"/>
        <pt x="80" y="674" on="1"/>
        <pt x="439" y="674" on="1"/>
        <pt x="439" y="617" on="1"/>
        <pt x="142" y="617" on="1"/>
        <pt x="142" y="365" on="1"/>
        <pt x="404" y="365" on="1"/>
        <pt x="404" y="308" on="1"/>
        <pt x="142" y="308" on="1"/>
      </contour>
    </TTGlyph>
    <TTGlyph name="Eacute" xMin="80" yMin="0" xMax="445" yMax="879">
      <contour>
        <pt x="142" y="57" on="1"/>
        <pt x="445" y="57" on="1"/>
        <pt x="445" y="0" on="1"/>
        <pt x="80" y="0" on="1"/>
        <pt x="80" y="674" on="1"/>
        <pt x="439" y="674" on="1"/>
        <pt x="439" y="617" on="1"/>
        <pt x="142" y="617" on="1"/>
        <pt x="142" y="365" on="1"/>
        <pt x="404" y="365" on="1"/>
        <pt x="404" y="308" on="1"/>
        <pt x="142" y="308" on="1"/>
      </contour>
      <contour>
        <pt x="433" y="879" on="1"/>
        <pt x="305" y="729" on="1"/>
        <pt x="250" y="729" on="1"/>
        <pt x="352" y="879" on="1"/>
      </contour>
    </TTGlyph>
    <TTGlyph name="Ebreve" xMin="80" yMin="0" xMax="445" yMax="879">
      <contour>
        <pt x="142" y="57" on="1"/>
        <pt x="445" y="57" on="1"/>
        <pt x="445" y="0" on="1"/>
        <pt x="80" y="0" on="1"/>
        <pt x="80" y="674" on="1"/>
        <pt x="439" y="674" on="1"/>
        <pt x="439" y="617" on="1"/>
        <pt x="142" y="617" on="1"/>
        <pt x="142" y="365" on="1"/>
        <pt x="404" y="365" on="1"/>
        <pt x="404" y="308" on="1"/>
        <pt x="142" y="308" on="1"/>
      </contour>
      <contour>
        <pt x="368" y="879" on="1"/>
        <pt x="420" y="879" on="1"/>
        <pt x="420" y="811" on="0"/>
        <pt x="346" y="726" on="0"/>
        <pt x="184" y="726" on="0"/>
        <pt x="110" y="811" on="0"/>
        <pt x="110" y="879" on="1"/>
        <pt x="162" y="879" on="1"/>
        <pt x="162" y="774" on="0"/>
        <pt x="368" y="774" on="0"/>
      </contour>
    </TTGlyph>
    <TTGlyph name="Ecaron" xMin="80" yMin="0" xMax="445" yMax="878">
      <contour>
        <pt x="142" y="57" on="1"/>
        <pt x="445" y="57" on="1"/>
        <pt x="445" y="0" on="1"/>
        <pt x="80" y="0" on="1"/>
        <pt x="80" y="674" on="1"/>
        <pt x="439" y="674" on="1"/>
        <pt x="439" y="617" on="1"/>
        <pt x="142" y="617" on="1"/>
        <pt x="142" y="365" on="1"/>
        <pt x="404" y="365" on="1"/>
        <pt x="404" y="308" on="1"/>
        <pt x="142" y="308" on="1"/>
      </contour>
      <contour>
        <pt x="301" y="728" on="1"/>
        <pt x="238" y="728" on="1"/>
        <pt x="119" y="878" on="1"/>
        <pt x="183" y="878" on="1"/>
        <pt x="270" y="771" on="1"/>
        <pt x="356" y="878" on="1"/>
        <pt x="420" y="878" on="1"/>
      </contour>
    </TTGlyph>
    <TTGlyph name="Ecircumflex" xMin="80" yMin="0" xMax="445" yMax="879">
      <contour>
        <pt x="142" y="57" on="1"/>
        <pt x="445" y="57" on="1"/>
        <pt x="445" y="0" on="1"/>
        <pt x="80" y="0" on="1"/>
        <pt x="80" y="674" on="1"/>
        <pt x="439" y="674" on="1"/>
        <pt x="439" y="617" on="1"/>
        <pt x="142" y="617" on="1"/>
        <pt x="142" y="365" on="1"/>
        <pt x="404" y="365" on="1"/>
        <pt x="404" y="308" on="1"/>
        <pt x="142" y="308" on="1"/>
      </contour>
      <contour>
        <pt x="273" y="836" on="1"/>
        <pt x="187" y="729" on="1"/>
        <pt x="123" y="729" on="1"/>
        <pt x="242" y="879" on="1"/>
        <pt x="305" y="879" on="1"/>
        <pt x="424" y="729" on="1"/>
        <pt x="360" y="729" on="1"/>
      </contour>
    </TTGlyph>
    <TTGlyph name="Edieresis" xMin="80" yMin="0" xMax="445" yMax="846">
      <contour>
        <pt x="142" y="57" on="1"/>
        <pt x="445" y="57" on="1"/>
        <pt x="445" y="0" on="1"/>
        <pt x="80" y="0" on="1"/>
        <pt x="80" y="674" on="1"/>
        <pt x="439" y="674" on="1"/>
        <pt x="439" y="617" on="1"/>
        <pt x="142" y="617" on="1"/>
        <pt x="142" y="365" on="1"/>
        <pt x="404" y="365" on="1"/>
        <pt x="404" y="308" on="1"/>
        <pt x="142" y="308" on="1"/>
      </contour>
      <contour>
        <pt x="218" y="785" on="0"/>
        <pt x="193" y="760" on="0"/>
        <pt x="156" y="760" on="0"/>
        <pt x="132" y="785" on="0"/>
        <pt x="132" y="822" on="0"/>
        <pt x="156" y="846" on="0"/>
        <pt x="193" y="846" on="0"/>
        <pt x="218" y="822" on="0"/>
      </contour>
      <contour>
        <pt x="402" y="785" on="0"/>
        <pt x="378" y="760" on="0"/>
        <pt x="341" y="760" on="0"/>
        <pt x="316" y="785" on="0"/>
        <pt x="316" y="822" on="0"/>
        <pt x="341" y="846" on="0"/>
        <pt x="378" y="846" on="0"/>
        <pt x="402" y="822" on="0"/>
      </contour>
    </TTGlyph>
    <TTGlyph name="Edotaccent" xMin="80" yMin="0" xMax="445" yMax="849">
      <contour>
        <pt x="142" y="57" on="1"/>
        <pt x="445" y="57" on="1"/>
        <pt x="445" y="0" on="1"/>
        <pt x="80" y="0" on="1"/>
        <pt x="80" y="674" on="1"/>
        <pt x="439" y="674" on="1"/>
        <pt x="439" y="617" on="1"/>
        <pt x="142" y="617" on="1"/>
        <pt x="142" y="365" on="1"/>
        <pt x="404" y="365" on="1"/>
        <pt x="404" y="308" on="1"/>
        <pt x="142" y="308" on="1"/>
      </contour>
      <contour>
        <pt x="316" y="788" on="0"/>
        <pt x="292" y="763" on="0"/>
        <pt x="255" y="763" on="0"/>
        <pt x="230" y="788" on="0"/>
        <pt x="230" y="825" on="0"/>
        <pt x="255" y="849" on="0"/>
        <pt x="292" y="849" on="0"/>
        <pt x="316" y="825" on="0"/>
      </contour>
    </TTGlyph>
    <TTGlyph name="Egrave" xMin="80" yMin="0" xMax="445" yMax="878">
      <contour>
        <pt x="142" y="57" on="1"/>
        <pt x="445" y="57" on="1"/>
        <pt x="445" y="0" on="1"/>
        <pt x="80" y="0" on="1"/>
        <pt x="80" y="674" on="1"/>
        <pt x="439" y="674" on="1"/>
        <pt x="439" y="617" on="1"/>
        <pt x="142" y="617" on="1"/>
        <pt x="142" y="365" on="1"/>
        <pt x="404" y="365" on="1"/>
        <pt x="404" y="308" on="1"/>
        <pt x="142" y="308" on="1"/>
      </contour>
      <contour>
        <pt x="313" y="728" on="1"/>
        <pt x="258" y="728" on="1"/>
        <pt x="130" y="878" on="1"/>
        <pt x="211" y="878" on="1"/>
      </contour>
    </TTGlyph>
    <TTGlyph name="Emacron" xMin="80" yMin="0" xMax="445" yMax="826">
      <contour>
        <pt x="142" y="57" on="1"/>
        <pt x="445" y="57" on="1"/>
        <pt x="445" y="0" on="1"/>
        <pt x="80" y="0" on="1"/>
        <pt x="80" y="674" on="1"/>
        <pt x="439" y="674" on="1"/>
        <pt x="439" y="617" on="1"/>
        <pt x="142" y="617" on="1"/>
        <pt x="142" y="365" on="1"/>
        <pt x="404" y="365" on="1"/>
        <pt x="404" y="308" on="1"/>
        <pt x="142" y="308" on="1"/>
      </contour>
      <contour>
        <pt x="392" y="826" on="1"/>
        <pt x="392" y="781" on="1"/>
        <pt x="129" y="781" on="1"/>
        <pt x="129" y="826" on="1"/>
      </contour>
    </TTGlyph>
    <TTGlyph name="Eng" xMin="80" yMin="-200" xMax="587" yMax="674">
      <contour>
        <pt x="525" y="674" on="1"/>
        <pt x="587" y="674" on="1"/>
        <pt x="587" y="-35" on="1"/>
        <pt x="587" y="-200" on="0"/>
        <pt x="440" y="-200" on="1"/>
        <pt x="386" y="-200" on="0"/>
        <pt x="348" y="-177" on="1"/>
        <pt x="348" y="-114" on="1"/>
        <pt x="388" y="-141" on="0"/>
        <pt x="434" y="-141" on="1"/>
        <pt x="525" y="-141" on="0"/>
        <pt x="525" y="-45" on="1"/>
        <pt x="525" y="0" on="1"/>
        <pt x="502" y="0" on="1"/>
        <pt x="140" y="601" on="1"/>
        <pt x="142" y="493" on="0"/>
        <pt x="142" y="285" on="1"/>
        <pt x="142" y="0" on="1"/>
        <pt x="80" y="0" on="1"/>
        <pt x="80" y="674" on="1"/>
        <pt x="165" y="674" on="1"/>
        <pt x="527" y="73" on="1"/>
        <pt x="525" y="177" on="0"/>
        <pt x="525" y="388" on="1"/>
      </contour>
    </TTGlyph>
    <TTGlyph name="Eogonek" xMin="80" yMin="-237" xMax="445" yMax="674">
      <contour>
        <pt x="445" y="0" on="1"/>
        <pt x="332" y="0" on="1"/>
        <pt x="221" y="-50" on="0"/>
        <pt x="221" y="-124" on="1"/>
        <pt x="221" y="-156" on="0"/>
        <pt x="259" y="-189" on="0"/>
        <pt x="328" y="-189" on="0"/>
        <pt x="355" y="-169" on="1"/>
        <pt x="355" y="-219" on="1"/>
        <pt x="327" y="-237" on="0"/>
        <pt x="229" y="-237" on="0"/>
        <pt x="165" y="-176" on="0"/>
        <pt x="165" y="-129" on="1"/>
        <pt x="165" y="-54" on="0"/>
        <pt x="244" y="0" on="1"/>
        <pt x="80" y="0" on="1"/>
        <pt x="80" y="674" on="1"/>
        <pt x="439" y="674" on="1"/>
        <pt x="439" y="617" on="1"/>
        <pt x="142" y="617" on="1"/>
        <pt x="142" y="365" on="1"/>
        <pt x="404" y="365" on="1"/>
        <pt x="404" y="308" on="1"/>
        <pt x="142" y="308" on="1"/>
        <pt x="142" y="57" on="1"/>
        <pt x="445" y="57" on="1"/>
      </contour>
    </TTGlyph>
    <TTGlyph name="Eth" xMin="60" yMin="0" xMax="680" yMax="674">
      <contour>
        <pt x="150" y="674" on="1"/>
        <pt x="342" y="674" on="1"/>
        <pt x="490" y="674" on="0"/>
        <pt x="680" y="490" on="0"/>
        <pt x="680" y="341" on="1"/>
        <pt x="680" y="144" on="0"/>
        <pt x="532" y="50" on="1"/>
        <pt x="455" y="0" on="0"/>
        <pt x="347" y="0" on="1"/>
        <pt x="150" y="0" on="1"/>
        <pt x="150" y="313" on="1"/>
        <pt x="60" y="313" on="1"/>
        <pt x="60" y="366" on="1"/>
        <pt x="150" y="366" on="1"/>
      </contour>
      <contour>
        <pt x="212" y="57" on="1"/>
        <pt x="347" y="57" on="1"/>
        <pt x="416" y="57" on="0"/>
        <pt x="522" y="105" on="0"/>
        <pt x="553" y="146" on="1"/>
        <pt x="615" y="228" on="0"/>
        <pt x="615" y="456" on="0"/>
        <pt x="462" y="617" on="0"/>
        <pt x="342" y="617" on="1"/>
        <pt x="212" y="617" on="1"/>
        <pt x="212" y="366" on="1"/>
        <pt x="396" y="366" on="1"/>
        <pt x="396" y="313" on="1"/>
        <pt x="212" y="313" on="1"/>
      </contour>
    </TTGlyph>
    <TTGlyph name="Euro" xMin="55" yMin="-8" xMax="542" yMax="659">
      <contour>
        <pt x="542" y="581" on="1"/>
        <pt x="505" y="600" on="0"/>
        <pt x="360" y="600" on="0"/>
        <pt x="249" y="515" on="0"/>
        <pt x="227" y="434" on="1"/>
        <pt x="430" y="434" on="1"/>
        <pt x="430" y="385" on="1"/>
        <pt x="217" y="385" on="1"/>
        <pt x="213" y="360" on="0"/>
        <pt x="213" y="299" on="0"/>
        <pt x="216" y="275" on="1"/>
        <pt x="430" y="275" on="1"/>
        <pt x="430" y="226" on="1"/>
        <pt x="225" y="226" on="1"/>
        <pt x="247" y="143" on="0"/>
        <pt x="360" y="51" on="0"/>
        <pt x="504" y="51" on="0"/>
        <pt x="542" y="72" on="1"/>
        <pt x="542" y="13" on="1"/>
        <pt x="501" y="-8" on="0"/>
        <pt x="425" y="-8" on="1"/>
        <pt x="329" y="-8" on="0"/>
        <pt x="183" y="118" on="0"/>
        <pt x="159" y="226" on="1"/>
        <pt x="55" y="226" on="1"/>
        <pt x="55" y="275" on="1"/>
        <pt x="152" y="275" on="1"/>
        <pt x="149" y="299" on="0"/>
        <pt x="149" y="360" on="0"/>
        <pt x="153" y="385" on="1"/>
        <pt x="55" y="385" on="1"/>
        <pt x="55" y="434" on="1"/>
        <pt x="161" y="434" on="1"/>
        <pt x="187" y="540" on="0"/>
        <pt x="332" y="659" on="0"/>
        <pt x="432" y="659" on="1"/>
        <pt x="504" y="659" on="0"/>
        <pt x="542" y="640" on="1"/>
      </contour>
    </TTGlyph>
    <TTGlyph name="F" xMin="80" yMin="0" xMax="439" yMax="674">
      <contour>
        <pt x="439" y="617" on="1"/>
        <pt x="142" y="617" on="1"/>
        <pt x="142" y="360" on="1"/>
        <pt x="404" y="360" on="1"/>
        <pt x="404" y="303" on="1"/>
        <pt x="142" y="303" on="1"/>
        <pt x="142" y="0" on="1"/>
        <pt x="80" y="0" on="1"/>
        <pt x="80" y="674" on="1"/>
        <pt x="439" y="674" on="1"/>
      </contour>
    </TTGlyph>
    <TTGlyph name="G" xMin="50" yMin="-8" xMax="591" yMax="686">
      <contour>
        <pt x="591" y="371" on="1"/>
        <pt x="591" y="50" on="1"/>
        <pt x="512" y="-8" on="0"/>
        <pt x="391" y="-8" on="1"/>
        <pt x="237" y="-8" on="0"/>
        <pt x="50" y="177" on="0"/>
        <pt x="50" y="490" on="0"/>
        <pt x="233" y="686" on="0"/>
        <pt x="373" y="686" on="1"/>
        <pt x="492" y="686" on="0"/>
        <pt x="569" y="639" on="1"/>
        <pt x="569" y="570" on="1"/>
        <pt x="492" y="624" on="0"/>
        <pt x="263" y="624" on="0"/>
        <pt x="114" y="467" on="0"/>
        <pt x="114" y="205" on="0"/>
        <pt x="262" y="54" on="0"/>
        <pt x="392" y="54" on="1"/>
        <pt x="469" y="54" on="0"/>
        <pt x="529" y="85" on="1"/>
        <pt x="529" y="316" on="1"/>
        <pt x="370" y="316" on="1"/>
        <pt x="370" y="371" on="1"/>
      </contour>
    </TTGlyph>
    <TTGlyph name="Gbreve" xMin="50" yMin="-8" xMax="591" yMax="879">
      <contour>
        <pt x="591" y="371" on="1"/>
        <pt x="591" y="50" on="1"/>
        <pt x="512" y="-8" on="0"/>
        <pt x="391" y="-8" on="1"/>
        <pt x="237" y="-8" on="0"/>
        <pt x="50" y="177" on="0"/>
        <pt x="50" y="490" on="0"/>
        <pt x="233" y="686" on="0"/>
        <pt x="373" y="686" on="1"/>
        <pt x="492" y="686" on="0"/>
        <pt x="569" y="639" on="1"/>
        <pt x="569" y="570" on="1"/>
        <pt x="492" y="624" on="0"/>
        <pt x="263" y="624" on="0"/>
        <pt x="114" y="467" on="0"/>
        <pt x="114" y="205" on="0"/>
        <pt x="262" y="54" on="0"/>
        <pt x="392" y="54" on="1"/>
        <pt x="469" y="54" on="0"/>
        <pt x="529" y="85" on="1"/>
        <pt x="529" y="316" on="1"/>
        <pt x="370" y="316" on="1"/>
        <pt x="370" y="371" on="1"/>
      </contour>
      <contour>
        <pt x="469" y="879" on="1"/>
        <pt x="521" y="879" on="1"/>
        <pt x="521" y="811" on="0"/>
        <pt x="447" y="726" on="0"/>
        <pt x="285" y="726" on="0"/>
        <pt x="211" y="811" on="0"/>
        <pt x="211" y="879" on="1"/>
        <pt x="263" y="879" on="1"/>
        <pt x="263" y="774" on="0"/>
        <pt x="469" y="774" on="0"/>
      </contour>
    </TTGlyph>
    <TTGlyph name="Gcircumflex" xMin="50" yMin="-8" xMax="591" yMax="878">
      <contour>
        <pt x="591" y="371" on="1"/>
        <pt x="591" y="50" on="1"/>
        <pt x="512" y="-8" on="0"/>
        <pt x="391" y="-8" on="1"/>
        <pt x="237" y="-8" on="0"/>
        <pt x="50" y="177" on="0"/>
        <pt x="50" y="490" on="0"/>
        <pt x="233" y="686" on="0"/>
        <pt x="373" y="686" on="1"/>
        <pt x="492" y="686" on="0"/>
        <pt x="569" y="639" on="1"/>
        <pt x="569" y="570" on="1"/>
        <pt x="492" y="624" on="0"/>
        <pt x="263" y="624" on="0"/>
        <pt x="114" y="467" on="0"/>
        <pt x="114" y="205" on="0"/>
        <pt x="262" y="54" on="0"/>
        <pt x="392" y="54" on="1"/>
        <pt x="469" y="54" on="0"/>
        <pt x="529" y="85" on="1"/>
        <pt x="529" y="316" on="1"/>
        <pt x="370" y="316" on="1"/>
        <pt x="370" y="371" on="1"/>
      </contour>
      <contour>
        <pt x="361" y="835" on="1"/>
        <pt x="275" y="728" on="1"/>
        <pt x="211" y="728" on="1"/>
        <pt x="330" y="878" on="1"/>
        <pt x="393" y="878" on="1"/>
        <pt x="512" y="728" on="1"/>
        <pt x="448" y="728" on="1"/>
      </contour>
    </TTGlyph>
    <TTGlyph name="Gdotaccent" xMin="50" yMin="-8" xMax="591" yMax="848">
      <contour>
        <pt x="591" y="371" on="1"/>
        <pt x="591" y="50" on="1"/>
        <pt x="512" y="-8" on="0"/>
        <pt x="391" y="-8" on="1"/>
        <pt x="237" y="-8" on="0"/>
        <pt x="50" y="177" on="0"/>
        <pt x="50" y="490" on="0"/>
        <pt x="233" y="686" on="0"/>
        <pt x="373" y="686" on="1"/>
        <pt x="492" y="686" on="0"/>
        <pt x="569" y="639" on="1"/>
        <pt x="569" y="570" on="1"/>
        <pt x="492" y="624" on="0"/>
        <pt x="263" y="624" on="0"/>
        <pt x="114" y="467" on="0"/>
        <pt x="114" y="205" on="0"/>
        <pt x="262" y="54" on="0"/>
        <pt x="392" y="54" on="1"/>
        <pt x="469" y="54" on="0"/>
        <pt x="529" y="85" on="1"/>
        <pt x="529" y="316" on="1"/>
        <pt x="370" y="316" on="1"/>
        <pt x="370" y="371" on="1"/>
      </contour>
      <contour>
        <pt x="414" y="787" on="0"/>
        <pt x="390" y="762" on="0"/>
        <pt x="353" y="762" on="0"/>
        <pt x="328" y="787" on="0"/>
        <pt x="328" y="824" on="0"/>
        <pt x="353" y="848" on="0"/>
        <pt x="390" y="848" on="0"/>
        <pt x="414" y="824" on="0"/>
      </contour>
    </TTGlyph>
    <TTGlyph name="H" xMin="80" yMin="0" xMax="552" yMax="674">
      <contour>
        <pt x="490" y="674" on="1"/>
        <pt x="552" y="674" on="1"/>
        <pt x="552" y="0" on="1"/>
        <pt x="490" y="0" on="1"/>
        <pt x="490" y="315" on="1"/>
        <pt x="142" y="315" on="1"/>
        <pt x="142" y="0" on="1"/>
        <pt x="80" y="0" on="1"/>
        <pt x="80" y="674" on="1"/>
        <pt x="142" y="674" on="1"/>
        <pt x="142" y="372" on="1"/>
        <pt x="490" y="372" on="1"/>
      </contour>
    </TTGlyph>
    <TTGlyph name="Hbar" xMin="30" yMin="0" xMax="652" yMax="674">
      <contour>
        <pt x="652" y="568" on="1"/>
        <pt x="652" y="518" on="1"/>
        <pt x="577" y="518" on="1"/>
        <pt x="577" y="0" on="1"/>
        <pt x="515" y="0" on="1"/>
        <pt x="515" y="315" on="1"/>
        <pt x="167" y="315" on="1"/>
        <pt x="167" y="0" on="1"/>
        <pt x="105" y="0" on="1"/>
        <pt x="105" y="518" on="1"/>
        <pt x="30" y="518" on="1"/>
        <pt x="30" y="568" on="1"/>
        <pt x="105" y="568" on="1"/>
        <pt x="105" y="674" on="1"/>
        <pt x="167" y="674" on="1"/>
        <pt x="167" y="568" on="1"/>
        <pt x="515" y="568" on="1"/>
        <pt x="515" y="674" on="1"/>
        <pt x="577" y="674" on="1"/>
        <pt x="577" y="568" on="1"/>
      </contour>
      <contour>
        <pt x="515" y="372" on="1"/>
        <pt x="515" y="518" on="1"/>
        <pt x="167" y="518" on="1"/>
        <pt x="167" y="372" on="1"/>
      </contour>
    </TTGlyph>
    <TTGlyph name="Hcircumflex" xMin="80" yMin="0" xMax="552" yMax="878">
      <contour>
        <pt x="490" y="674" on="1"/>
        <pt x="552" y="674" on="1"/>
        <pt x="552" y="0" on="1"/>
        <pt x="490" y="0" on="1"/>
        <pt x="490" y="315" on="1"/>
        <pt x="142" y="315" on="1"/>
        <pt x="142" y="0" on="1"/>
        <pt x="80" y="0" on="1"/>
        <pt x="80" y="674" on="1"/>
        <pt x="142" y="674" on="1"/>
        <pt x="142" y="372" on="1"/>
        <pt x="490" y="372" on="1"/>
      </contour>
      <contour>
        <pt x="321" y="835" on="1"/>
        <pt x="235" y="728" on="1"/>
        <pt x="171" y="728" on="1"/>
        <pt x="290" y="878" on="1"/>
        <pt x="353" y="878" on="1"/>
        <pt x="472" y="728" on="1"/>
        <pt x="408" y="728" on="1"/>
      </contour>
    </TTGlyph>
    <TTGlyph name="I" xMin="85" yMin="0" xMax="147" yMax="674">
      <contour>
        <pt x="85" y="0" on="1"/>
        <pt x="85" y="674" on="1"/>
        <pt x="147" y="674" on="1"/>
        <pt x="147" y="0" on="1"/>
      </contour>
    </TTGlyph>
    <TTGlyph name="IJ" xMin="85" yMin="0" xMax="454" yMax="674">
      <contour>
        <pt x="301" y="59" on="1"/>
        <pt x="392" y="59" on="0"/>
        <pt x="392" y="155" on="1"/>
        <pt x="392" y="674" on="1"/>
        <pt x="454" y="674" on="1"/>
        <pt x="454" y="165" on="1"/>
        <pt x="454" y="0" on="0"/>
        <pt x="307" y="0" on="1"/>
        <pt x="253" y="0" on="0"/>
        <pt x="215" y="23" on="1"/>
        <pt x="215" y="86" on="1"/>
        <pt x="255" y="59" on="0"/>
      </contour>
      <contour>
        <pt x="85" y="0" on="1"/>
        <pt x="85" y="674" on="1"/>
        <pt x="147" y="674" on="1"/>
        <pt x="147" y="0" on="1"/>
      </contour>
    </TTGlyph>
    <TTGlyph name="Iacute" xMin="85" yMin="0" xMax="276" yMax="879">
      <contour>
        <pt x="93" y="729" on="1"/>
        <pt x="195" y="879" on="1"/>
        <pt x="276" y="879" on="1"/>
        <pt x="148" y="729" on="1"/>
      </contour>
      <contour>
        <pt x="85" y="0" on="1"/>
        <pt x="85" y="674" on="1"/>
        <pt x="147" y="674" on="1"/>
        <pt x="147" y="0" on="1"/>
      </contour>
    </TTGlyph>
    <TTGlyph name="Ibreve" xMin="-38" yMin="0" xMax="272" yMax="879">
      <contour>
        <pt x="85" y="0" on="1"/>
        <pt x="85" y="674" on="1"/>
        <pt x="147" y="674" on="1"/>
        <pt x="147" y="0" on="1"/>
      </contour>
      <contour>
        <pt x="-38" y="879" on="1"/>
        <pt x="14" y="879" on="1"/>
        <pt x="14" y="774" on="0"/>
        <pt x="220" y="774" on="0"/>
        <pt x="220" y="879" on="1"/>
        <pt x="272" y="879" on="1"/>
        <pt x="272" y="811" on="0"/>
        <pt x="198" y="726" on="0"/>
        <pt x="36" y="726" on="0"/>
        <pt x="-38" y="811" on="0"/>
      </contour>
    </TTGlyph>
    <TTGlyph name="Icircumflex" xMin="-34" yMin="0" xMax="267" yMax="879">
      <contour>
        <pt x="85" y="0" on="1"/>
        <pt x="85" y="674" on="1"/>
        <pt x="147" y="674" on="1"/>
        <pt x="147" y="0" on="1"/>
      </contour>
      <contour>
        <pt x="85" y="879" on="1"/>
        <pt x="148" y="879" on="1"/>
        <pt x="267" y="729" on="1"/>
        <pt x="203" y="729" on="1"/>
        <pt x="116" y="836" on="1"/>
        <pt x="30" y="729" on="1"/>
        <pt x="-34" y="729" on="1"/>
      </contour>
    </TTGlyph>
    <TTGlyph name="Idieresis" xMin="-18" yMin="0" xMax="252" yMax="847">
      <contour>
        <pt x="191" y="761" on="0"/>
        <pt x="166" y="786" on="0"/>
        <pt x="166" y="823" on="0"/>
        <pt x="191" y="847" on="0"/>
        <pt x="228" y="847" on="0"/>
        <pt x="252" y="823" on="0"/>
        <pt x="252" y="786" on="0"/>
        <pt x="228" y="761" on="0"/>
      </contour>
      <contour>
        <pt x="6" y="761" on="0"/>
        <pt x="-18" y="786" on="0"/>
        <pt x="-18" y="823" on="0"/>
        <pt x="6" y="847" on="0"/>
        <pt x="43" y="847" on="0"/>
        <pt x="68" y="823" on="0"/>
        <pt x="68" y="786" on="0"/>
        <pt x="43" y="761" on="0"/>
      </contour>
      <contour>
        <pt x="85" y="0" on="1"/>
        <pt x="85" y="674" on="1"/>
        <pt x="147" y="674" on="1"/>
        <pt x="147" y="0" on="1"/>
      </contour>
    </TTGlyph>
    <TTGlyph name="Idotaccent" xMin="74" yMin="0" xMax="160" yMax="850">
      <contour>
        <pt x="99" y="764" on="0"/>
        <pt x="74" y="789" on="0"/>
        <pt x="74" y="826" on="0"/>
        <pt x="99" y="850" on="0"/>
        <pt x="136" y="850" on="0"/>
        <pt x="160" y="826" on="0"/>
        <pt x="160" y="789" on="0"/>
        <pt x="136" y="764" on="0"/>
      </contour>
      <contour>
        <pt x="85" y="0" on="1"/>
        <pt x="85" y="674" on="1"/>
        <pt x="147" y="674" on="1"/>
        <pt x="147" y="0" on="1"/>
      </contour>
    </TTGlyph>
    <TTGlyph name="Igrave" xMin="-44" yMin="0" xMax="147" yMax="879">
      <contour>
        <pt x="37" y="879" on="1"/>
        <pt x="139" y="729" on="1"/>
        <pt x="84" y="729" on="1"/>
        <pt x="-44" y="879" on="1"/>
      </contour>
      <contour>
        <pt x="85" y="0" on="1"/>
        <pt x="85" y="674" on="1"/>
        <pt x="147" y="674" on="1"/>
        <pt x="147" y="0" on="1"/>
      </contour>
    </TTGlyph>
    <TTGlyph name="Imacron" xMin="-15" yMin="0" xMax="248" yMax="826">
      <contour>
        <pt x="248" y="781" on="1"/>
        <pt x="-15" y="781" on="1"/>
        <pt x="-15" y="826" on="1"/>
        <pt x="248" y="826" on="1"/>
      </contour>
      <contour>
        <pt x="85" y="0" on="1"/>
        <pt x="85" y="674" on="1"/>
        <pt x="147" y="674" on="1"/>
        <pt x="147" y="0" on="1"/>
      </contour>
    </TTGlyph>
    <TTGlyph name="Iogonek" xMin="-20" yMin="-237" xMax="170" yMax="674">
      <contour>
        <pt x="147" y="674" on="1"/>
        <pt x="147" y="0" on="1"/>
        <pt x="36" y="-50" on="0"/>
        <pt x="36" y="-124" on="1"/>
        <pt x="36" y="-156" on="0"/>
        <pt x="74" y="-189" on="0"/>
        <pt x="143" y="-189" on="0"/>
        <pt x="170" y="-169" on="1"/>
        <pt x="170" y="-219" on="1"/>
        <pt x="142" y="-237" on="0"/>
        <pt x="44" y="-237" on="0"/>
        <pt x="-20" y="-176" on="0"/>
        <pt x="-20" y="-85" on="0"/>
        <pt x="39" y="-8" on="0"/>
        <pt x="85" y="16" on="1"/>
        <pt x="85" y="674" on="1"/>
      </contour>
    </TTGlyph>
    <TTGlyph name="Itilde" xMin="-44" yMin="0" xMax="278" yMax="854">
      <contour>
        <pt x="189" y="759" on="1"/>
        <pt x="164" y="759" on="0"/>
        <pt x="75" y="805" on="0"/>
        <pt x="59" y="805" on="1"/>
        <pt x="17" y="805" on="0"/>
        <pt x="-8" y="756" on="1"/>
        <pt x="-44" y="786" on="1"/>
        <pt x="-31" y="815" on="0"/>
        <pt x="22" y="854" on="0"/>
        <pt x="81" y="854" on="0"/>
        <pt x="168" y="808" on="0"/>
        <pt x="186" y="808" on="1"/>
        <pt x="216" y="808" on="0"/>
        <pt x="236" y="851" on="1"/>
        <pt x="278" y="823" on="1"/>
        <pt x="248" y="759" on="0"/>
      </contour>
      <contour>
        <pt x="85" y="0" on="1"/>
        <pt x="85" y="674" on="1"/>
        <pt x="147" y="674" on="1"/>
        <pt x="147" y="0" on="1"/>
      </contour>
    </TTGlyph>
    <TTGlyph name="J" xMin="30" yMin="0" xMax="269" yMax="674">
      <contour>
        <pt x="116" y="59" on="1"/>
        <pt x="207" y="59" on="0"/>
        <pt x="207" y="155" on="1"/>
        <pt x="207" y="674" on="1"/>
        <pt x="269" y="674" on="1"/>
        <pt x="269" y="165" on="1"/>
        <pt x="269" y="0" on="0"/>
        <pt x="122" y="0" on="1"/>
        <pt x="68" y="0" on="0"/>
        <pt x="30" y="23" on="1"/>
        <pt x="30" y="86" on="1"/>
        <pt x="70" y="59" on="0"/>
      </contour>
    </TTGlyph>
    <TTGlyph name="Jcircumflex" xMin="30" yMin="0" xMax="390" yMax="878">
      <contour>
        <pt x="208" y="878" on="1"/>
        <pt x="271" y="878" on="1"/>
        <pt x="390" y="728" on="1"/>
        <pt x="326" y="728" on="1"/>
        <pt x="239" y="835" on="1"/>
        <pt x="153" y="728" on="1"/>
        <pt x="89" y="728" on="1"/>
      </contour>
      <contour>
        <pt x="116" y="59" on="1"/>
        <pt x="207" y="59" on="0"/>
        <pt x="207" y="155" on="1"/>
        <pt x="207" y="674" on="1"/>
        <pt x="269" y="674" on="1"/>
        <pt x="269" y="165" on="1"/>
        <pt x="269" y="0" on="0"/>
        <pt x="122" y="0" on="1"/>
        <pt x="68" y="0" on="0"/>
        <pt x="30" y="23" on="1"/>
        <pt x="30" y="86" on="1"/>
        <pt x="70" y="59" on="0"/>
      </contour>
    </TTGlyph>
    <TTGlyph name="K" xMin="80" yMin="0" xMax="519" yMax="674">
      <contour>
        <pt x="239" y="332" on="1"/>
        <pt x="519" y="0" on="1"/>
        <pt x="437" y="0" on="1"/>
        <pt x="160" y="332" on="1"/>
        <pt x="427" y="674" on="1"/>
        <pt x="505" y="674" on="1"/>
      </contour>
      <contour>
        <pt x="80" y="0" on="1"/>
        <pt x="80" y="674" on="1"/>
        <pt x="142" y="674" on="1"/>
        <pt x="142" y="0" on="1"/>
      </contour>
    </TTGlyph>
    <TTGlyph name="L" xMin="80" yMin="0" xMax="439" yMax="674">
      <contour>
        <pt x="142" y="57" on="1"/>
        <pt x="439" y="57" on="1"/>
        <pt x="439" y="0" on="1"/>
        <pt x="80" y="0" on="1"/>
        <pt x="80" y="674" on="1"/>
        <pt x="142" y="674" on="1"/>
      </contour>
    </TTGlyph>
    <TTGlyph name="Lacute" xMin="80" yMin="0" xMax="439" yMax="879">
      <contour>
        <pt x="142" y="57" on="1"/>
        <pt x="439" y="57" on="1"/>
        <pt x="439" y="0" on="1"/>
        <pt x="80" y="0" on="1"/>
        <pt x="80" y="674" on="1"/>
        <pt x="142" y="674" on="1"/>
      </contour>
      <contour>
        <pt x="438" y="879" on="1"/>
        <pt x="310" y="729" on="1"/>
        <pt x="255" y="729" on="1"/>
        <pt x="357" y="879" on="1"/>
      </contour>
    </TTGlyph>
    <TTGlyph name="Lcaron" xMin="80" yMin="0" xMax="439" yMax="702">
      <contour>
        <pt x="142" y="57" on="1"/>
        <pt x="439" y="57" on="1"/>
        <pt x="439" y="0" on="1"/>
        <pt x="80" y="0" on="1"/>
        <pt x="80" y="674" on="1"/>
        <pt x="142" y="674" on="1"/>
      </contour>
      <contour>
        <pt x="404" y="702" on="1"/>
        <pt x="294" y="515" on="1"/>
        <pt x="240" y="515" on="1"/>
        <pt x="328" y="702" on="1"/>
      </contour>
    </TTGlyph>
    <TTGlyph name="Ldot" xMin="80" yMin="0" xMax="439" yMax="674">
      <contour>
        <pt x="142" y="57" on="1"/>
        <pt x="439" y="57" on="1"/>
        <pt x="439" y="0" on="1"/>
        <pt x="80" y="0" on="1"/>
        <pt x="80" y="674" on="1"/>
        <pt x="142" y="674" on="1"/>
      </contour>
      <contour>
        <pt x="322" y="309" on="0"/>
        <pt x="278" y="309" on="0"/>
        <pt x="250" y="337" on="0"/>
        <pt x="250" y="380" on="0"/>
        <pt x="279" y="410" on="0"/>
        <pt x="322" y="410" on="0"/>
        <pt x="352" y="380" on="0"/>
        <pt x="352" y="337" on="0"/>
      </contour>
    </TTGlyph>
    <TTGlyph name="Lslash" xMin="25" yMin="0" xMax="448" yMax="674">
      <contour>
        <pt x="151" y="57" on="1"/>
        <pt x="448" y="57" on="1"/>
        <pt x="448" y="0" on="1"/>
        <pt x="89" y="0" on="1"/>
        <pt x="89" y="256" on="1"/>
        <pt x="25" y="208" on="1"/>
        <pt x="25" y="274" on="1"/>
        <pt x="89" y="322" on="1"/>
        <pt x="89" y="674" on="1"/>
        <pt x="151" y="674" on="1"/>
        <pt x="151" y="368" on="1"/>
        <pt x="297" y="476" on="1"/>
        <pt x="297" y="410" on="1"/>
        <pt x="151" y="302" on="1"/>
      </contour>
    </TTGlyph>
    <TTGlyph name="M" xMin="75" yMin="0" xMax="774" yMax="674">
      <contour>
        <pt x="75" y="0" on="1"/>
        <pt x="122" y="674" on="1"/>
        <pt x="207" y="674" on="1"/>
        <pt x="295" y="427" on="1"/>
        <pt x="414" y="84" on="1"/>
        <pt x="483" y="273" on="0"/>
        <pt x="632" y="674" on="1"/>
        <pt x="717" y="674" on="1"/>
        <pt x="774" y="0" on="1"/>
        <pt x="712" y="0" on="1"/>
        <pt x="662" y="593" on="1"/>
        <pt x="598" y="414" on="0"/>
        <pt x="450" y="17" on="1"/>
        <pt x="377" y="17" on="1"/>
        <pt x="177" y="586" on="1"/>
        <pt x="168" y="439" on="0"/>
        <pt x="137" y="0" on="1"/>
      </contour>
    </TTGlyph>
    <TTGlyph name="N" xMin="80" yMin="0" xMax="587" yMax="674">
      <contour>
        <pt x="80" y="0" on="1"/>
        <pt x="80" y="674" on="1"/>
        <pt x="165" y="674" on="1"/>
        <pt x="527" y="73" on="1"/>
        <pt x="525" y="177" on="0"/>
        <pt x="525" y="388" on="1"/>
        <pt x="525" y="674" on="1"/>
        <pt x="587" y="674" on="1"/>
        <pt x="587" y="0" on="1"/>
        <pt x="502" y="0" on="1"/>
        <pt x="140" y="601" on="1"/>
        <pt x="142" y="493" on="0"/>
        <pt x="142" y="285" on="1"/>
        <pt x="142" y="0" on="1"/>
      </contour>
    </TTGlyph>
    <TTGlyph name="Nacute" xMin="80" yMin="0" xMax="587" yMax="878">
      <contour>
        <pt x="80" y="0" on="1"/>
        <pt x="80" y="674" on="1"/>
        <pt x="165" y="674" on="1"/>
        <pt x="527" y="73" on="1"/>
        <pt x="525" y="177" on="0"/>
        <pt x="525" y="388" on="1"/>
        <pt x="525" y="674" on="1"/>
        <pt x="587" y="674" on="1"/>
        <pt x="587" y="0" on="1"/>
        <pt x="502" y="0" on="1"/>
        <pt x="140" y="601" on="1"/>
        <pt x="142" y="493" on="0"/>
        <pt x="142" y="285" on="1"/>
        <pt x="142" y="0" on="1"/>
      </contour>
      <contour>
        <pt x="332" y="728" on="1"/>
        <pt x="434" y="878" on="1"/>
        <pt x="515" y="878" on="1"/>
        <pt x="387" y="728" on="1"/>
      </contour>
    </TTGlyph>
    <TTGlyph name="Ncaron" xMin="80" yMin="0" xMax="587" yMax="879">
      <contour>
        <pt x="384" y="729" on="1"/>
        <pt x="321" y="729" on="1"/>
        <pt x="202" y="879" on="1"/>
        <pt x="266" y="879" on="1"/>
        <pt x="353" y="772" on="1"/>
        <pt x="439" y="879" on="1"/>
        <pt x="503" y="879" on="1"/>
      </contour>
      <contour>
        <pt x="80" y="0" on="1"/>
        <pt x="80" y="674" on="1"/>
        <pt x="165" y="674" on="1"/>
        <pt x="527" y="73" on="1"/>
        <pt x="525" y="177" on="0"/>
        <pt x="525" y="388" on="1"/>
        <pt x="525" y="674" on="1"/>
        <pt x="587" y="674" on="1"/>
        <pt x="587" y="0" on="1"/>
        <pt x="502" y="0" on="1"/>
        <pt x="140" y="601" on="1"/>
        <pt x="142" y="493" on="0"/>
        <pt x="142" y="285" on="1"/>
        <pt x="142" y="0" on="1"/>
      </contour>
    </TTGlyph>
    <TTGlyph name="Ntilde" xMin="80" yMin="0" xMax="587" yMax="856">
      <contour>
        <pt x="415" y="761" on="1"/>
        <pt x="390" y="761" on="0"/>
        <pt x="301" y="807" on="0"/>
        <pt x="285" y="807" on="1"/>
        <pt x="243" y="807" on="0"/>
        <pt x="218" y="758" on="1"/>
        <pt x="182" y="788" on="1"/>
        <pt x="195" y="817" on="0"/>
        <pt x="248" y="856" on="0"/>
        <pt x="307" y="856" on="0"/>
        <pt x="394" y="810" on="0"/>
        <pt x="412" y="810" on="1"/>
        <pt x="442" y="810" on="0"/>
        <pt x="462" y="853" on="1"/>
        <pt x="504" y="825" on="1"/>
        <pt x="474" y="761" on="0"/>
      </contour>
      <contour>
        <pt x="80" y="0" on="1"/>
        <pt x="80" y="674" on="1"/>
        <pt x="165" y="674" on="1"/>
        <pt x="527" y="73" on="1"/>
        <pt x="525" y="177" on="0"/>
        <pt x="525" y="388" on="1"/>
        <pt x="525" y="674" on="1"/>
        <pt x="587" y="674" on="1"/>
        <pt x="587" y="0" on="1"/>
        <pt x="502" y="0" on="1"/>
        <pt x="140" y="601" on="1"/>
        <pt x="142" y="493" on="0"/>
        <pt x="142" y="285" on="1"/>
        <pt x="142" y="0" on="1"/>
      </contour>
    </TTGlyph>
    <TTGlyph name="O" xMin="50" yMin="-8" xMax="641" yMax="688">
      <contour>
        <pt x="237" y="628" on="0"/>
        <pt x="114" y="475" on="0"/>
        <pt x="114" y="207" on="0"/>
        <pt x="241" y="52" on="0"/>
        <pt x="457" y="52" on="0"/>
        <pt x="577" y="205" on="0"/>
        <pt x="577" y="476" on="0"/>
        <pt x="456" y="628" on="0"/>
      </contour>
      <contour>
        <pt x="213" y="-8" on="0"/>
        <pt x="50" y="182" on="0"/>
        <pt x="50" y="499" on="0"/>
        <pt x="209" y="688" on="0"/>
        <pt x="485" y="688" on="0"/>
        <pt x="641" y="501" on="0"/>
        <pt x="641" y="180" on="0"/>
        <pt x="483" y="-8" on="0"/>
      </contour>
    </TTGlyph>
    <TTGlyph name="OE" xMin="50" yMin="-8" xMax="934" yMax="688">
      <contour>
        <pt x="631" y="57" on="1"/>
        <pt x="934" y="57" on="1"/>
        <pt x="934" y="0" on="1"/>
        <pt x="569" y="0" on="1"/>
        <pt x="569" y="106" on="1"/>
        <pt x="492" y="-8" on="0"/>
        <pt x="342" y="-8" on="1"/>
        <pt x="209" y="-8" on="0"/>
        <pt x="50" y="181" on="0"/>
        <pt x="50" y="500" on="0"/>
        <pt x="205" y="688" on="0"/>
        <pt x="340" y="688" on="1"/>
        <pt x="492" y="688" on="0"/>
        <pt x="569" y="576" on="1"/>
        <pt x="569" y="674" on="1"/>
        <pt x="928" y="674" on="1"/>
        <pt x="928" y="617" on="1"/>
        <pt x="631" y="617" on="1"/>
        <pt x="631" y="365" on="1"/>
        <pt x="893" y="365" on="1"/>
        <pt x="893" y="308" on="1"/>
        <pt x="631" y="308" on="1"/>
      </contour>
      <contour>
        <pt x="114" y="206" on="0"/>
        <pt x="237" y="52" on="0"/>
        <pt x="452" y="52" on="0"/>
        <pt x="569" y="204" on="0"/>
        <pt x="569" y="476" on="0"/>
        <pt x="451" y="628" on="0"/>
        <pt x="232" y="628" on="0"/>
        <pt x="114" y="475" on="0"/>
      </contour>
    </TTGlyph>
    <TTGlyph name="Oacute" xMin="50" yMin="-8" xMax="641" yMax="879">
      <contour>
        <pt x="237" y="628" on="0"/>
        <pt x="114" y="475" on="0"/>
        <pt x="114" y="207" on="0"/>
        <pt x="241" y="52" on="0"/>
        <pt x="457" y="52" on="0"/>
        <pt x="577" y="205" on="0"/>
        <pt x="577" y="476" on="0"/>
        <pt x="456" y="628" on="0"/>
      </contour>
      <contour>
        <pt x="213" y="-8" on="0"/>
        <pt x="50" y="182" on="0"/>
        <pt x="50" y="499" on="0"/>
        <pt x="209" y="688" on="0"/>
        <pt x="485" y="688" on="0"/>
        <pt x="641" y="501" on="0"/>
        <pt x="641" y="180" on="0"/>
        <pt x="483" y="-8" on="0"/>
      </contour>
      <contour>
        <pt x="327" y="729" on="1"/>
        <pt x="429" y="879" on="1"/>
        <pt x="510" y="879" on="1"/>
        <pt x="382" y="729" on="1"/>
      </contour>
    </TTGlyph>
    <TTGlyph name="Obreve" xMin="50" yMin="-8" xMax="641" yMax="879">
      <contour>
        <pt x="213" y="-8" on="0"/>
        <pt x="50" y="182" on="0"/>
        <pt x="50" y="499" on="0"/>
        <pt x="209" y="688" on="0"/>
        <pt x="485" y="688" on="0"/>
        <pt x="641" y="501" on="0"/>
        <pt x="641" y="180" on="0"/>
        <pt x="483" y="-8" on="0"/>
      </contour>
      <contour>
        <pt x="237" y="628" on="0"/>
        <pt x="114" y="475" on="0"/>
        <pt x="114" y="207" on="0"/>
        <pt x="241" y="52" on="0"/>
        <pt x="457" y="52" on="0"/>
        <pt x="577" y="205" on="0"/>
        <pt x="577" y="476" on="0"/>
        <pt x="456" y="628" on="0"/>
      </contour>
      <contour>
        <pt x="194" y="879" on="1"/>
        <pt x="246" y="879" on="1"/>
        <pt x="246" y="774" on="0"/>
        <pt x="452" y="774" on="0"/>
        <pt x="452" y="879" on="1"/>
        <pt x="504" y="879" on="1"/>
        <pt x="504" y="811" on="0"/>
        <pt x="430" y="726" on="0"/>
        <pt x="268" y="726" on="0"/>
        <pt x="194" y="811" on="0"/>
      </contour>
    </TTGlyph>
    <TTGlyph name="Ocircumflex" xMin="50" yMin="-8" xMax="641" yMax="879">
      <contour>
        <pt x="322" y="879" on="1"/>
        <pt x="385" y="879" on="1"/>
        <pt x="504" y="729" on="1"/>
        <pt x="440" y="729" on="1"/>
        <pt x="353" y="836" on="1"/>
        <pt x="267" y="729" on="1"/>
        <pt x="203" y="729" on="1"/>
      </contour>
      <contour>
        <pt x="213" y="-8" on="0"/>
        <pt x="50" y="182" on="0"/>
        <pt x="50" y="499" on="0"/>
        <pt x="209" y="688" on="0"/>
        <pt x="485" y="688" on="0"/>
        <pt x="641" y="501" on="0"/>
        <pt x="641" y="180" on="0"/>
        <pt x="483" y="-8" on="0"/>
      </contour>
      <contour>
        <pt x="237" y="628" on="0"/>
        <pt x="114" y="475" on="0"/>
        <pt x="114" y="207" on="0"/>
        <pt x="241" y="52" on="0"/>
        <pt x="457" y="52" on="0"/>
        <pt x="577" y="205" on="0"/>
        <pt x="577" y="476" on="0"/>
        <pt x="456" y="628" on="0"/>
      </contour>
    </TTGlyph>
    <TTGlyph name="Odieresis" xMin="50" yMin="-8" xMax="641" yMax="848">
      <contour>
        <pt x="237" y="628" on="0"/>
        <pt x="114" y="475" on="0"/>
        <pt x="114" y="207" on="0"/>
        <pt x="241" y="52" on="0"/>
        <pt x="457" y="52" on="0"/>
        <pt x="577" y="205" on="0"/>
        <pt x="577" y="476" on="0"/>
        <pt x="456" y="628" on="0"/>
      </contour>
      <contour>
        <pt x="213" y="-8" on="0"/>
        <pt x="50" y="182" on="0"/>
        <pt x="50" y="499" on="0"/>
        <pt x="209" y="688" on="0"/>
        <pt x="485" y="688" on="0"/>
        <pt x="641" y="501" on="0"/>
        <pt x="641" y="180" on="0"/>
        <pt x="483" y="-8" on="0"/>
      </contour>
      <contour>
        <pt x="422" y="762" on="0"/>
        <pt x="397" y="787" on="0"/>
        <pt x="397" y="824" on="0"/>
        <pt x="422" y="848" on="0"/>
        <pt x="459" y="848" on="0"/>
        <pt x="483" y="824" on="0"/>
        <pt x="483" y="787" on="0"/>
        <pt x="459" y="762" on="0"/>
      </contour>
      <contour>
        <pt x="237" y="762" on="0"/>
        <pt x="213" y="787" on="0"/>
        <pt x="213" y="824" on="0"/>
        <pt x="237" y="848" on="0"/>
        <pt x="274" y="848" on="0"/>
        <pt x="299" y="824" on="0"/>
        <pt x="299" y="787" on="0"/>
        <pt x="274" y="762" on="0"/>
      </contour>
    </TTGlyph>
    <TTGlyph name="Ograve" xMin="50" yMin="-8" xMax="641" yMax="879">
      <contour>
        <pt x="280" y="879" on="1"/>
        <pt x="382" y="729" on="1"/>
        <pt x="327" y="729" on="1"/>
        <pt x="199" y="879" on="1"/>
      </contour>
      <contour>
        <pt x="237" y="628" on="0"/>
        <pt x="114" y="475" on="0"/>
        <pt x="114" y="207" on="0"/>
        <pt x="241" y="52" on="0"/>
        <pt x="457" y="52" on="0"/>
        <pt x="577" y="205" on="0"/>
        <pt x="577" y="476" on="0"/>
        <pt x="456" y="628" on="0"/>
      </contour>
      <contour>
        <pt x="213" y="-8" on="0"/>
        <pt x="50" y="182" on="0"/>
        <pt x="50" y="499" on="0"/>
        <pt x="209" y="688" on="0"/>
        <pt x="485" y="688" on="0"/>
        <pt x="641" y="501" on="0"/>
        <pt x="641" y="180" on="0"/>
        <pt x="483" y="-8" on="0"/>
      </contour>
    </TTGlyph>
    <TTGlyph name="Ohungarumlaut" xMin="50" yMin="-8" xMax="641" yMax="879">
      <contour>
        <pt x="237" y="628" on="0"/>
        <pt x="114" y="475" on="0"/>
        <pt x="114" y="207" on="0"/>
        <pt x="241" y="52" on="0"/>
        <pt x="457" y="52" on="0"/>
        <pt x="577" y="205" on="0"/>
        <pt x="577" y="476" on="0"/>
        <pt x="456" y="628" on="0"/>
      </contour>
      <contour>
        <pt x="213" y="-8" on="0"/>
        <pt x="50" y="182" on="0"/>
        <pt x="50" y="499" on="0"/>
        <pt x="209" y="688" on="0"/>
        <pt x="485" y="688" on="0"/>
        <pt x="641" y="501" on="0"/>
        <pt x="641" y="180" on="0"/>
        <pt x="483" y="-8" on="0"/>
      </contour>
      <contour>
        <pt x="264" y="729" on="1"/>
        <pt x="363" y="879" on="1"/>
        <pt x="444" y="879" on="1"/>
        <pt x="313" y="729" on="1"/>
      </contour>
      <contour>
        <pt x="412" y="729" on="1"/>
        <pt x="515" y="879" on="1"/>
        <pt x="596" y="879" on="1"/>
        <pt x="461" y="729" on="1"/>
      </contour>
    </TTGlyph>
    <TTGlyph name="Omacron" xMin="50" yMin="-8" xMax="641" yMax="826">
      <contour>
        <pt x="237" y="628" on="0"/>
        <pt x="114" y="475" on="0"/>
        <pt x="114" y="207" on="0"/>
        <pt x="241" y="52" on="0"/>
        <pt x="457" y="52" on="0"/>
        <pt x="577" y="205" on="0"/>
        <pt x="577" y="476" on="0"/>
        <pt x="456" y="628" on="0"/>
      </contour>
      <contour>
        <pt x="213" y="-8" on="0"/>
        <pt x="50" y="182" on="0"/>
        <pt x="50" y="499" on="0"/>
        <pt x="209" y="688" on="0"/>
        <pt x="485" y="688" on="0"/>
        <pt x="641" y="501" on="0"/>
        <pt x="641" y="180" on="0"/>
        <pt x="483" y="-8" on="0"/>
      </contour>
      <contour>
        <pt x="479" y="781" on="1"/>
        <pt x="216" y="781" on="1"/>
        <pt x="216" y="826" on="1"/>
        <pt x="479" y="826" on="1"/>
      </contour>
    </TTGlyph>
    <TTGlyph name="Oslash" xMin="41" yMin="-9" xMax="634" yMax="688">
      <contour>
        <pt x="560" y="589" on="1"/>
        <pt x="633" y="494" on="0"/>
        <pt x="633" y="180" on="0"/>
        <pt x="475" y="-8" on="0"/>
        <pt x="339" y="-8" on="1"/>
        <pt x="235" y="-8" on="0"/>
        <pt x="158" y="53" on="1"/>
        <pt x="112" y="-9" on="1"/>
        <pt x="41" y="-9" on="1"/>
        <pt x="118" y="94" on="1"/>
        <pt x="42" y="187" on="0"/>
        <pt x="42" y="499" on="0"/>
        <pt x="201" y="688" on="0"/>
        <pt x="337" y="688" on="1"/>
        <pt x="444" y="688" on="0"/>
        <pt x="518" y="630" on="1"/>
        <pt x="562" y="688" on="1"/>
        <pt x="634" y="688" on="1"/>
      </contour>
      <contour>
        <pt x="337" y="628" on="1"/>
        <pt x="229" y="628" on="0"/>
        <pt x="106" y="475" on="0"/>
        <pt x="106" y="222" on="0"/>
        <pt x="157" y="146" on="1"/>
        <pt x="481" y="580" on="1"/>
        <pt x="424" y="628" on="0"/>
      </contour>
      <contour>
        <pt x="339" y="52" on="1"/>
        <pt x="449" y="52" on="0"/>
        <pt x="569" y="205" on="0"/>
        <pt x="569" y="461" on="0"/>
        <pt x="520" y="536" on="1"/>
        <pt x="196" y="103" on="1"/>
        <pt x="255" y="52" on="0"/>
      </contour>
    </TTGlyph>
    <TTGlyph name="Otilde" xMin="50" yMin="-8" xMax="641" yMax="858">
      <contour>
        <pt x="420" y="763" on="1"/>
        <pt x="395" y="763" on="0"/>
        <pt x="306" y="809" on="0"/>
        <pt x="290" y="809" on="1"/>
        <pt x="248" y="809" on="0"/>
        <pt x="223" y="760" on="1"/>
        <pt x="187" y="790" on="1"/>
        <pt x="200" y="819" on="0"/>
        <pt x="253" y="858" on="0"/>
        <pt x="312" y="858" on="0"/>
        <pt x="399" y="812" on="0"/>
        <pt x="417" y="812" on="1"/>
        <pt x="447" y="812" on="0"/>
        <pt x="467" y="855" on="1"/>
        <pt x="509" y="827" on="1"/>
        <pt x="479" y="763" on="0"/>
      </contour>
      <contour>
        <pt x="237" y="628" on="0"/>
        <pt x="114" y="475" on="0"/>
        <pt x="114" y="207" on="0"/>
        <pt x="241" y="52" on="0"/>
        <pt x="457" y="52" on="0"/>
        <pt x="577" y="205" on="0"/>
        <pt x="577" y="476" on="0"/>
        <pt x="456" y="628" on="0"/>
      </contour>
      <contour>
        <pt x="213" y="-8" on="0"/>
        <pt x="50" y="182" on="0"/>
        <pt x="50" y="499" on="0"/>
        <pt x="209" y="688" on="0"/>
        <pt x="485" y="688" on="0"/>
        <pt x="641" y="501" on="0"/>
        <pt x="641" y="180" on="0"/>
        <pt x="483" y="-8" on="0"/>
      </contour>
    </TTGlyph>
    <TTGlyph name="P" xMin="80" yMin="0" xMax="495" yMax="674">
      <contour>
        <pt x="80" y="674" on="1"/>
        <pt x="242" y="674" on="1"/>
        <pt x="360" y="674" on="0"/>
        <pt x="495" y="555" on="0"/>
        <pt x="495" y="374" on="0"/>
        <pt x="364" y="256" on="0"/>
        <pt x="253" y="256" on="1"/>
        <pt x="142" y="256" on="1"/>
        <pt x="142" y="0" on="1"/>
        <pt x="80" y="0" on="1"/>
      </contour>
      <contour>
        <pt x="142" y="311" on="1"/>
        <pt x="260" y="311" on="1"/>
        <pt x="339" y="311" on="0"/>
        <pt x="432" y="395" on="0"/>
        <pt x="432" y="532" on="0"/>
        <pt x="336" y="619" on="0"/>
        <pt x="249" y="619" on="1"/>
        <pt x="142" y="619" on="1"/>
      </contour>
    </TTGlyph>
    <TTGlyph name="Q" xMin="50" yMin="-139" xMax="668" yMax="688">
      <contour>
        <pt x="347" y="-8" on="1"/>
        <pt x="213" y="-8" on="0"/>
        <pt x="50" y="182" on="0"/>
        <pt x="50" y="499" on="0"/>
        <pt x="209" y="688" on="0"/>
        <pt x="485" y="688" on="0"/>
        <pt x="641" y="501" on="0"/>
        <pt x="641" y="340" on="1"/>
        <pt x="641" y="221" on="0"/>
        <pt x="551" y="53" on="0"/>
        <pt x="470" y="17" on="1"/>
        <pt x="668" y="-111" on="1"/>
        <pt x="603" y="-139" on="1"/>
        <pt x="401" y="-4" on="1"/>
        <pt x="378" y="-8" on="0"/>
      </contour>
      <contour>
        <pt x="237" y="628" on="0"/>
        <pt x="114" y="475" on="0"/>
        <pt x="114" y="207" on="0"/>
        <pt x="241" y="52" on="0"/>
        <pt x="457" y="52" on="0"/>
        <pt x="577" y="205" on="0"/>
        <pt x="577" y="476" on="0"/>
        <pt x="456" y="628" on="0"/>
      </contour>
    </TTGlyph>
    <TTGlyph name="R" xMin="80" yMin="0" xMax="506" yMax="674">
      <contour>
        <pt x="263" y="274" on="1"/>
        <pt x="142" y="274" on="1"/>
        <pt x="142" y="0" on="1"/>
        <pt x="80" y="0" on="1"/>
        <pt x="80" y="674" on="1"/>
        <pt x="232" y="674" on="1"/>
        <pt x="350" y="674" on="0"/>
        <pt x="467" y="567" on="0"/>
        <pt x="467" y="469" on="1"/>
        <pt x="465" y="401" on="0"/>
        <pt x="393" y="303" on="0"/>
        <pt x="327" y="285" on="1"/>
        <pt x="506" y="0" on="1"/>
        <pt x="432" y="0" on="1"/>
      </contour>
      <contour>
        <pt x="142" y="329" on="1"/>
        <pt x="251" y="329" on="1"/>
        <pt x="325" y="329" on="0"/>
        <pt x="405" y="411" on="0"/>
        <pt x="405" y="472" on="1"/>
        <pt x="405" y="619" on="0"/>
        <pt x="239" y="619" on="1"/>
        <pt x="142" y="619" on="1"/>
      </contour>
    </TTGlyph>
    <TTGlyph name="Racute" xMin="80" yMin="0" xMax="506" yMax="879">
      <contour>
        <pt x="263" y="274" on="1"/>
        <pt x="142" y="274" on="1"/>
        <pt x="142" y="0" on="1"/>
        <pt x="80" y="0" on="1"/>
        <pt x="80" y="674" on="1"/>
        <pt x="232" y="674" on="1"/>
        <pt x="350" y="674" on="0"/>
        <pt x="467" y="567" on="0"/>
        <pt x="467" y="469" on="1"/>
        <pt x="465" y="401" on="0"/>
        <pt x="393" y="303" on="0"/>
        <pt x="327" y="285" on="1"/>
        <pt x="506" y="0" on="1"/>
        <pt x="432" y="0" on="1"/>
      </contour>
      <contour>
        <pt x="142" y="329" on="1"/>
        <pt x="251" y="329" on="1"/>
        <pt x="325" y="329" on="0"/>
        <pt x="405" y="411" on="0"/>
        <pt x="405" y="472" on="1"/>
        <pt x="405" y="619" on="0"/>
        <pt x="239" y="619" on="1"/>
        <pt x="142" y="619" on="1"/>
      </contour>
      <contour>
        <pt x="419" y="879" on="1"/>
        <pt x="291" y="729" on="1"/>
        <pt x="236" y="729" on="1"/>
        <pt x="338" y="879" on="1"/>
      </contour>
    </TTGlyph>
    <TTGlyph name="Rcaron" xMin="80" yMin="0" xMax="506" yMax="878">
      <contour>
        <pt x="263" y="274" on="1"/>
        <pt x="142" y="274" on="1"/>
        <pt x="142" y="0" on="1"/>
        <pt x="80" y="0" on="1"/>
        <pt x="80" y="674" on="1"/>
        <pt x="232" y="674" on="1"/>
        <pt x="350" y="674" on="0"/>
        <pt x="467" y="567" on="0"/>
        <pt x="467" y="469" on="1"/>
        <pt x="465" y="401" on="0"/>
        <pt x="393" y="303" on="0"/>
        <pt x="327" y="285" on="1"/>
        <pt x="506" y="0" on="1"/>
        <pt x="432" y="0" on="1"/>
      </contour>
      <contour>
        <pt x="142" y="329" on="1"/>
        <pt x="251" y="329" on="1"/>
        <pt x="325" y="329" on="0"/>
        <pt x="405" y="411" on="0"/>
        <pt x="405" y="472" on="1"/>
        <pt x="405" y="619" on="0"/>
        <pt x="239" y="619" on="1"/>
        <pt x="142" y="619" on="1"/>
      </contour>
      <contour>
        <pt x="300" y="728" on="1"/>
        <pt x="237" y="728" on="1"/>
        <pt x="118" y="878" on="1"/>
        <pt x="182" y="878" on="1"/>
        <pt x="269" y="771" on="1"/>
        <pt x="355" y="878" on="1"/>
        <pt x="419" y="878" on="1"/>
      </contour>
    </TTGlyph>
    <TTGlyph name="S" xMin="73" yMin="-7" xMax="462" yMax="680">
      <contour>
        <pt x="284" y="619" on="1"/>
        <pt x="217" y="619" on="0"/>
        <pt x="137" y="556" on="0"/>
        <pt x="137" y="504" on="1"/>
        <pt x="137" y="450" on="0"/>
        <pt x="183" y="418" on="1"/>
        <pt x="220" y="391" on="0"/>
        <pt x="318" y="350" on="0"/>
        <pt x="354" y="333" on="0"/>
        <pt x="410" y="297" on="0"/>
        <pt x="424" y="280" on="1"/>
        <pt x="462" y="234" on="0"/>
        <pt x="462" y="174" on="1"/>
        <pt x="462" y="86" on="0"/>
        <pt x="344" y="-7" on="0"/>
        <pt x="148" y="-7" on="0"/>
        <pt x="75" y="37" on="1"/>
        <pt x="75" y="106" on="1"/>
        <pt x="105" y="83" on="0"/>
        <pt x="200" y="53" on="0"/>
        <pt x="320" y="53" on="0"/>
        <pt x="399" y="115" on="0"/>
        <pt x="399" y="217" on="0"/>
        <pt x="369" y="244" on="1"/>
        <pt x="336" y="274" on="0"/>
        <pt x="247" y="312" on="1"/>
        <pt x="164" y="348" on="0"/>
        <pt x="131" y="376" on="0"/>
        <pt x="99" y="406" on="0"/>
        <pt x="92" y="421" on="1"/>
        <pt x="73" y="462" on="0"/>
        <pt x="73" y="500" on="1"/>
        <pt x="73" y="585" on="0"/>
        <pt x="195" y="680" on="0"/>
        <pt x="367" y="680" on="0"/>
        <pt x="423" y="650" on="1"/>
        <pt x="423" y="581" on="1"/>
        <pt x="399" y="597" on="0"/>
        <pt x="321" y="619" on="0"/>
      </contour>
    </TTGlyph>
    <TTGlyph name="Sacute" xMin="73" yMin="-7" xMax="462" yMax="878">
      <contour>
        <pt x="284" y="619" on="1"/>
        <pt x="217" y="619" on="0"/>
        <pt x="137" y="556" on="0"/>
        <pt x="137" y="504" on="1"/>
        <pt x="137" y="450" on="0"/>
        <pt x="183" y="418" on="1"/>
        <pt x="220" y="391" on="0"/>
        <pt x="318" y="350" on="0"/>
        <pt x="354" y="333" on="0"/>
        <pt x="410" y="297" on="0"/>
        <pt x="424" y="280" on="1"/>
        <pt x="462" y="234" on="0"/>
        <pt x="462" y="174" on="1"/>
        <pt x="462" y="86" on="0"/>
        <pt x="344" y="-7" on="0"/>
        <pt x="148" y="-7" on="0"/>
        <pt x="75" y="37" on="1"/>
        <pt x="75" y="106" on="1"/>
        <pt x="105" y="83" on="0"/>
        <pt x="200" y="53" on="0"/>
        <pt x="320" y="53" on="0"/>
        <pt x="399" y="115" on="0"/>
        <pt x="399" y="217" on="0"/>
        <pt x="369" y="244" on="1"/>
        <pt x="336" y="274" on="0"/>
        <pt x="247" y="312" on="1"/>
        <pt x="164" y="348" on="0"/>
        <pt x="131" y="376" on="0"/>
        <pt x="99" y="406" on="0"/>
        <pt x="92" y="421" on="1"/>
        <pt x="73" y="462" on="0"/>
        <pt x="73" y="500" on="1"/>
        <pt x="73" y="585" on="0"/>
        <pt x="195" y="680" on="0"/>
        <pt x="367" y="680" on="0"/>
        <pt x="423" y="650" on="1"/>
        <pt x="423" y="581" on="1"/>
        <pt x="399" y="597" on="0"/>
        <pt x="321" y="619" on="0"/>
      </contour>
      <contour>
        <pt x="259" y="728" on="1"/>
        <pt x="361" y="878" on="1"/>
        <pt x="442" y="878" on="1"/>
        <pt x="314" y="728" on="1"/>
      </contour>
    </TTGlyph>
    <TTGlyph name="Scaron" xMin="73" yMin="-7" xMax="462" yMax="878">
      <contour>
        <pt x="294" y="728" on="1"/>
        <pt x="231" y="728" on="1"/>
        <pt x="112" y="878" on="1"/>
        <pt x="176" y="878" on="1"/>
        <pt x="263" y="771" on="1"/>
        <pt x="349" y="878" on="1"/>
        <pt x="413" y="878" on="1"/>
      </contour>
      <contour>
        <pt x="284" y="619" on="1"/>
        <pt x="217" y="619" on="0"/>
        <pt x="137" y="556" on="0"/>
        <pt x="137" y="504" on="1"/>
        <pt x="137" y="450" on="0"/>
        <pt x="183" y="418" on="1"/>
        <pt x="220" y="391" on="0"/>
        <pt x="318" y="350" on="0"/>
        <pt x="354" y="333" on="0"/>
        <pt x="410" y="297" on="0"/>
        <pt x="424" y="280" on="1"/>
        <pt x="462" y="234" on="0"/>
        <pt x="462" y="174" on="1"/>
        <pt x="462" y="86" on="0"/>
        <pt x="344" y="-7" on="0"/>
        <pt x="148" y="-7" on="0"/>
        <pt x="75" y="37" on="1"/>
        <pt x="75" y="106" on="1"/>
        <pt x="105" y="83" on="0"/>
        <pt x="200" y="53" on="0"/>
        <pt x="320" y="53" on="0"/>
        <pt x="399" y="115" on="0"/>
        <pt x="399" y="217" on="0"/>
        <pt x="369" y="244" on="1"/>
        <pt x="336" y="274" on="0"/>
        <pt x="247" y="312" on="1"/>
        <pt x="164" y="348" on="0"/>
        <pt x="131" y="376" on="0"/>
        <pt x="99" y="406" on="0"/>
        <pt x="92" y="421" on="1"/>
        <pt x="73" y="462" on="0"/>
        <pt x="73" y="500" on="1"/>
        <pt x="73" y="585" on="0"/>
        <pt x="195" y="680" on="0"/>
        <pt x="367" y="680" on="0"/>
        <pt x="423" y="650" on="1"/>
        <pt x="423" y="581" on="1"/>
        <pt x="399" y="597" on="0"/>
        <pt x="321" y="619" on="0"/>
      </contour>
    </TTGlyph>
    <TTGlyph name="Scircumflex" xMin="73" yMin="-7" xMax="462" yMax="878">
      <contour>
        <pt x="222" y="878" on="1"/>
        <pt x="285" y="878" on="1"/>
        <pt x="404" y="728" on="1"/>
        <pt x="340" y="728" on="1"/>
        <pt x="253" y="835" on="1"/>
        <pt x="167" y="728" on="1"/>
        <pt x="103" y="728" on="1"/>
      </contour>
      <contour>
        <pt x="284" y="619" on="1"/>
        <pt x="217" y="619" on="0"/>
        <pt x="137" y="556" on="0"/>
        <pt x="137" y="504" on="1"/>
        <pt x="137" y="450" on="0"/>
        <pt x="183" y="418" on="1"/>
        <pt x="220" y="391" on="0"/>
        <pt x="318" y="350" on="0"/>
        <pt x="354" y="333" on="0"/>
        <pt x="410" y="297" on="0"/>
        <pt x="424" y="280" on="1"/>
        <pt x="462" y="234" on="0"/>
        <pt x="462" y="174" on="1"/>
        <pt x="462" y="86" on="0"/>
        <pt x="344" y="-7" on="0"/>
        <pt x="148" y="-7" on="0"/>
        <pt x="75" y="37" on="1"/>
        <pt x="75" y="106" on="1"/>
        <pt x="105" y="83" on="0"/>
        <pt x="200" y="53" on="0"/>
        <pt x="320" y="53" on="0"/>
        <pt x="399" y="115" on="0"/>
        <pt x="399" y="217" on="0"/>
        <pt x="369" y="244" on="1"/>
        <pt x="336" y="274" on="0"/>
        <pt x="247" y="312" on="1"/>
        <pt x="164" y="348" on="0"/>
        <pt x="131" y="376" on="0"/>
        <pt x="99" y="406" on="0"/>
        <pt x="92" y="421" on="1"/>
        <pt x="73" y="462" on="0"/>
        <pt x="73" y="500" on="1"/>
        <pt x="73" y="585" on="0"/>
        <pt x="195" y="680" on="0"/>
        <pt x="367" y="680" on="0"/>
        <pt x="423" y="650" on="1"/>
        <pt x="423" y="581" on="1"/>
        <pt x="399" y="597" on="0"/>
        <pt x="321" y="619" on="0"/>
      </contour>
    </TTGlyph>
    <TTGlyph name="T" xMin="15" yMin="0" xMax="450" yMax="674">
      <contour>
        <pt x="450" y="674" on="1"/>
        <pt x="450" y="617" on="1"/>
        <pt x="263" y="617" on="1"/>
        <pt x="263" y="0" on="1"/>
        <pt x="201" y="0" on="1"/>
        <pt x="201" y="617" on="1"/>
        <pt x="15" y="617" on="1"/>
        <pt x="15" y="674" on="1"/>
      </contour>
    </TTGlyph>
    <TTGlyph name="Tbar" xMin="15" yMin="0" xMax="450" yMax="674">
      <contour>
        <pt x="450" y="617" on="1"/>
        <pt x="263" y="617" on="1"/>
        <pt x="263" y="356" on="1"/>
        <pt x="383" y="356" on="1"/>
        <pt x="383" y="305" on="1"/>
        <pt x="263" y="305" on="1"/>
        <pt x="263" y="0" on="1"/>
        <pt x="201" y="0" on="1"/>
        <pt x="201" y="305" on="1"/>
        <pt x="81" y="305" on="1"/>
        <pt x="81" y="356" on="1"/>
        <pt x="201" y="356" on="1"/>
        <pt x="201" y="617" on="1"/>
        <pt x="15" y="617" on="1"/>
        <pt x="15" y="674" on="1"/>
        <pt x="450" y="674" on="1"/>
      </contour>
    </TTGlyph>
    <TTGlyph name="Tcaron" xMin="15" yMin="0" xMax="450" yMax="879">
      <contour>
        <pt x="450" y="674" on="1"/>
        <pt x="450" y="617" on="1"/>
        <pt x="263" y="617" on="1"/>
        <pt x="263" y="0" on="1"/>
        <pt x="201" y="0" on="1"/>
        <pt x="201" y="617" on="1"/>
        <pt x="15" y="617" on="1"/>
        <pt x="15" y="674" on="1"/>
      </contour>
      <contour>
        <pt x="265" y="729" on="1"/>
        <pt x="202" y="729" on="1"/>
        <pt x="83" y="879" on="1"/>
        <pt x="147" y="879" on="1"/>
        <pt x="234" y="772" on="1"/>
        <pt x="320" y="879" on="1"/>
        <pt x="384" y="879" on="1"/>
      </contour>
    </TTGlyph>
    <TTGlyph name="Thorn" xMin="80" yMin="0" xMax="485" yMax="674">
      <contour>
        <pt x="142" y="546" on="1"/>
        <pt x="232" y="546" on="1"/>
        <pt x="356" y="546" on="0"/>
        <pt x="485" y="428" on="0"/>
        <pt x="485" y="244" on="0"/>
        <pt x="360" y="128" on="0"/>
        <pt x="243" y="128" on="1"/>
        <pt x="142" y="128" on="1"/>
        <pt x="142" y="0" on="1"/>
        <pt x="80" y="0" on="1"/>
        <pt x="80" y="674" on="1"/>
        <pt x="142" y="674" on="1"/>
      </contour>
      <contour>
        <pt x="142" y="183" on="1"/>
        <pt x="250" y="183" on="1"/>
        <pt x="335" y="183" on="0"/>
        <pt x="422" y="265" on="0"/>
        <pt x="422" y="406" on="0"/>
        <pt x="331" y="491" on="0"/>
        <pt x="239" y="491" on="1"/>
        <pt x="142" y="491" on="1"/>
      </contour>
    </TTGlyph>
    <TTGlyph name="U" xMin="80" yMin="-8" xMax="559" yMax="674">
      <contour>
        <pt x="497" y="253" on="1"/>
        <pt x="497" y="674" on="1"/>
        <pt x="559" y="674" on="1"/>
        <pt x="559" y="255" on="1"/>
        <pt x="559" y="125" on="0"/>
        <pt x="433" y="-8" on="0"/>
        <pt x="205" y="-8" on="0"/>
        <pt x="80" y="122" on="0"/>
        <pt x="80" y="247" on="1"/>
        <pt x="80" y="674" on="1"/>
        <pt x="142" y="674" on="1"/>
        <pt x="142" y="248" on="1"/>
        <pt x="142" y="147" on="0"/>
        <pt x="237" y="52" on="0"/>
        <pt x="318" y="52" on="1"/>
        <pt x="497" y="52" on="0"/>
      </contour>
    </TTGlyph>
    <TTGlyph name="Uacute" xMin="80" yMin="-8" xMax="559" yMax="879">
      <contour>
        <pt x="497" y="253" on="1"/>
        <pt x="497" y="674" on="1"/>
        <pt x="559" y="674" on="1"/>
        <pt x="559" y="255" on="1"/>
        <pt x="559" y="125" on="0"/>
        <pt x="433" y="-8" on="0"/>
        <pt x="205" y="-8" on="0"/>
        <pt x="80" y="122" on="0"/>
        <pt x="80" y="247" on="1"/>
        <pt x="80" y="674" on="1"/>
        <pt x="142" y="674" on="1"/>
        <pt x="142" y="248" on="1"/>
        <pt x="142" y="147" on="0"/>
        <pt x="237" y="52" on="0"/>
        <pt x="318" y="52" on="1"/>
        <pt x="497" y="52" on="0"/>
      </contour>
      <contour>
        <pt x="304" y="729" on="1"/>
        <pt x="406" y="879" on="1"/>
        <pt x="487" y="879" on="1"/>
        <pt x="359" y="729" on="1"/>
      </contour>
    </TTGlyph>
    <TTGlyph name="Ubreve" xMin="80" yMin="-8" xMax="559" yMax="878">
      <contour>
        <pt x="497" y="253" on="1"/>
        <pt x="497" y="674" on="1"/>
        <pt x="559" y="674" on="1"/>
        <pt x="559" y="255" on="1"/>
        <pt x="559" y="125" on="0"/>
        <pt x="433" y="-8" on="0"/>
        <pt x="205" y="-8" on="0"/>
        <pt x="80" y="122" on="0"/>
        <pt x="80" y="247" on="1"/>
        <pt x="80" y="674" on="1"/>
        <pt x="142" y="674" on="1"/>
        <pt x="142" y="248" on="1"/>
        <pt x="142" y="147" on="0"/>
        <pt x="237" y="52" on="0"/>
        <pt x="318" y="52" on="1"/>
        <pt x="497" y="52" on="0"/>
      </contour>
      <contour>
        <pt x="169" y="878" on="1"/>
        <pt x="221" y="878" on="1"/>
        <pt x="221" y="773" on="0"/>
        <pt x="427" y="773" on="0"/>
        <pt x="427" y="878" on="1"/>
        <pt x="479" y="878" on="1"/>
        <pt x="479" y="810" on="0"/>
        <pt x="405" y="725" on="0"/>
        <pt x="243" y="725" on="0"/>
        <pt x="169" y="810" on="0"/>
      </contour>
    </TTGlyph>
    <TTGlyph name="Ucircumflex" xMin="80" yMin="-8" xMax="559" yMax="879">
      <contour>
        <pt x="291" y="879" on="1"/>
        <pt x="354" y="879" on="1"/>
        <pt x="473" y="729" on="1"/>
        <pt x="409" y="729" on="1"/>
        <pt x="322" y="836" on="1"/>
        <pt x="236" y="729" on="1"/>
        <pt x="172" y="729" on="1"/>
      </contour>
      <contour>
        <pt x="497" y="253" on="1"/>
        <pt x="497" y="674" on="1"/>
        <pt x="559" y="674" on="1"/>
        <pt x="559" y="255" on="1"/>
        <pt x="559" y="125" on="0"/>
        <pt x="433" y="-8" on="0"/>
        <pt x="205" y="-8" on="0"/>
        <pt x="80" y="122" on="0"/>
        <pt x="80" y="247" on="1"/>
        <pt x="80" y="674" on="1"/>
        <pt x="142" y="674" on="1"/>
        <pt x="142" y="248" on="1"/>
        <pt x="142" y="147" on="0"/>
        <pt x="237" y="52" on="0"/>
        <pt x="318" y="52" on="1"/>
        <pt x="497" y="52" on="0"/>
      </contour>
    </TTGlyph>
    <TTGlyph name="Udieresis" xMin="80" yMin="-8" xMax="559" yMax="848">
      <contour>
        <pt x="497" y="253" on="1"/>
        <pt x="497" y="674" on="1"/>
        <pt x="559" y="674" on="1"/>
        <pt x="559" y="255" on="1"/>
        <pt x="559" y="125" on="0"/>
        <pt x="433" y="-8" on="0"/>
        <pt x="205" y="-8" on="0"/>
        <pt x="80" y="122" on="0"/>
        <pt x="80" y="247" on="1"/>
        <pt x="80" y="674" on="1"/>
        <pt x="142" y="674" on="1"/>
        <pt x="142" y="248" on="1"/>
        <pt x="142" y="147" on="0"/>
        <pt x="237" y="52" on="0"/>
        <pt x="318" y="52" on="1"/>
        <pt x="497" y="52" on="0"/>
      </contour>
      <contour>
        <pt x="394" y="762" on="0"/>
        <pt x="369" y="787" on="0"/>
        <pt x="369" y="824" on="0"/>
        <pt x="394" y="848" on="0"/>
        <pt x="431" y="848" on="0"/>
        <pt x="455" y="824" on="0"/>
        <pt x="455" y="787" on="0"/>
        <pt x="431" y="762" on="0"/>
      </contour>
      <contour>
        <pt x="209" y="762" on="0"/>
        <pt x="185" y="787" on="0"/>
        <pt x="185" y="824" on="0"/>
        <pt x="209" y="848" on="0"/>
        <pt x="246" y="848" on="0"/>
        <pt x="271" y="824" on="0"/>
        <pt x="271" y="787" on="0"/>
        <pt x="246" y="762" on="0"/>
      </contour>
    </TTGlyph>
    <TTGlyph name="Ugrave" xMin="80" yMin="-8" xMax="559" yMax="879">
      <contour>
        <pt x="247" y="879" on="1"/>
        <pt x="349" y="729" on="1"/>
        <pt x="294" y="729" on="1"/>
        <pt x="166" y="879" on="1"/>
      </contour>
      <contour>
        <pt x="497" y="253" on="1"/>
        <pt x="497" y="674" on="1"/>
        <pt x="559" y="674" on="1"/>
        <pt x="559" y="255" on="1"/>
        <pt x="559" y="125" on="0"/>
        <pt x="433" y="-8" on="0"/>
        <pt x="205" y="-8" on="0"/>
        <pt x="80" y="122" on="0"/>
        <pt x="80" y="247" on="1"/>
        <pt x="80" y="674" on="1"/>
        <pt x="142" y="674" on="1"/>
        <pt x="142" y="248" on="1"/>
        <pt x="142" y="147" on="0"/>
        <pt x="237" y="52" on="0"/>
        <pt x="318" y="52" on="1"/>
        <pt x="497" y="52" on="0"/>
      </contour>
    </TTGlyph>
    <TTGlyph name="Uhungarumlaut" xMin="80" yMin="-8" xMax="559" yMax="879">
      <contour>
        <pt x="216" y="729" on="1"/>
        <pt x="315" y="879" on="1"/>
        <pt x="396" y="879" on="1"/>
        <pt x="265" y="729" on="1"/>
      </contour>
      <contour>
        <pt x="364" y="729" on="1"/>
        <pt x="467" y="879" on="1"/>
        <pt x="548" y="879" on="1"/>
        <pt x="413" y="729" on="1"/>
      </contour>
      <contour>
        <pt x="497" y="253" on="1"/>
        <pt x="497" y="674" on="1"/>
        <pt x="559" y="674" on="1"/>
        <pt x="559" y="255" on="1"/>
        <pt x="559" y="125" on="0"/>
        <pt x="433" y="-8" on="0"/>
        <pt x="205" y="-8" on="0"/>
        <pt x="80" y="122" on="0"/>
        <pt x="80" y="247" on="1"/>
        <pt x="80" y="674" on="1"/>
        <pt x="142" y="674" on="1"/>
        <pt x="142" y="248" on="1"/>
        <pt x="142" y="147" on="0"/>
        <pt x="237" y="52" on="0"/>
        <pt x="318" y="52" on="1"/>
        <pt x="497" y="52" on="0"/>
      </contour>
    </TTGlyph>
    <TTGlyph name="Umacron" xMin="80" yMin="-8" xMax="559" yMax="826">
      <contour>
        <pt x="453" y="781" on="1"/>
        <pt x="190" y="781" on="1"/>
        <pt x="190" y="826" on="1"/>
        <pt x="453" y="826" on="1"/>
      </contour>
      <contour>
        <pt x="497" y="253" on="1"/>
        <pt x="497" y="674" on="1"/>
        <pt x="559" y="674" on="1"/>
        <pt x="559" y="255" on="1"/>
        <pt x="559" y="125" on="0"/>
        <pt x="433" y="-8" on="0"/>
        <pt x="205" y="-8" on="0"/>
        <pt x="80" y="122" on="0"/>
        <pt x="80" y="247" on="1"/>
        <pt x="80" y="674" on="1"/>
        <pt x="142" y="674" on="1"/>
        <pt x="142" y="248" on="1"/>
        <pt x="142" y="147" on="0"/>
        <pt x="237" y="52" on="0"/>
        <pt x="318" y="52" on="1"/>
        <pt x="497" y="52" on="0"/>
      </contour>
    </TTGlyph>
    <TTGlyph name="Uogonek" xMin="80" yMin="-231" xMax="559" yMax="674">
      <contour>
        <pt x="497" y="674" on="1"/>
        <pt x="559" y="674" on="1"/>
        <pt x="559" y="255" on="1"/>
        <pt x="559" y="53" on="0"/>
        <pt x="411" y="6" on="1"/>
        <pt x="301" y="-44" on="0"/>
        <pt x="301" y="-118" on="1"/>
        <pt x="301" y="-150" on="0"/>
        <pt x="339" y="-183" on="0"/>
        <pt x="408" y="-183" on="0"/>
        <pt x="435" y="-163" on="1"/>
        <pt x="435" y="-213" on="1"/>
        <pt x="407" y="-231" on="0"/>
        <pt x="309" y="-231" on="0"/>
        <pt x="245" y="-170" on="0"/>
        <pt x="245" y="-123" on="1"/>
        <pt x="245" y="-59" on="0"/>
        <pt x="306" y="-8" on="1"/>
        <pt x="198" y="-4" on="0"/>
        <pt x="80" y="126" on="0"/>
        <pt x="80" y="247" on="1"/>
        <pt x="80" y="674" on="1"/>
        <pt x="142" y="674" on="1"/>
        <pt x="142" y="248" on="1"/>
        <pt x="142" y="147" on="0"/>
        <pt x="237" y="52" on="0"/>
        <pt x="318" y="52" on="1"/>
        <pt x="497" y="52" on="0"/>
        <pt x="497" y="253" on="1"/>
      </contour>
    </TTGlyph>
    <TTGlyph name="Uring" xMin="80" yMin="-8" xMax="559" yMax="915">
      <contour>
        <pt x="497" y="253" on="1"/>
        <pt x="497" y="674" on="1"/>
        <pt x="559" y="674" on="1"/>
        <pt x="559" y="255" on="1"/>
        <pt x="559" y="125" on="0"/>
        <pt x="433" y="-8" on="0"/>
        <pt x="205" y="-8" on="0"/>
        <pt x="80" y="122" on="0"/>
        <pt x="80" y="247" on="1"/>
        <pt x="80" y="674" on="1"/>
        <pt x="142" y="674" on="1"/>
        <pt x="142" y="248" on="1"/>
        <pt x="142" y="147" on="0"/>
        <pt x="237" y="52" on="0"/>
        <pt x="318" y="52" on="1"/>
        <pt x="497" y="52" on="0"/>
      </contour>
      <contour>
        <pt x="269" y="838" on="0"/>
        <pt x="269" y="794" on="0"/>
        <pt x="300" y="763" on="0"/>
        <pt x="344" y="763" on="0"/>
        <pt x="376" y="794" on="0"/>
        <pt x="376" y="838" on="0"/>
        <pt x="344" y="870" on="0"/>
        <pt x="300" y="870" on="0"/>
      </contour>
      <contour>
        <pt x="282" y="718" on="0"/>
        <pt x="224" y="776" on="0"/>
        <pt x="224" y="857" on="0"/>
        <pt x="281" y="915" on="0"/>
        <pt x="363" y="915" on="0"/>
        <pt x="421" y="857" on="0"/>
        <pt x="421" y="775" on="0"/>
        <pt x="363" y="718" on="0"/>
      </contour>
    </TTGlyph>
    <TTGlyph name="Utilde" xMin="80" yMin="-8" xMax="559" yMax="855">
      <contour>
        <pt x="398" y="760" on="1"/>
        <pt x="373" y="760" on="0"/>
        <pt x="284" y="806" on="0"/>
        <pt x="268" y="806" on="1"/>
        <pt x="226" y="806" on="0"/>
        <pt x="201" y="757" on="1"/>
        <pt x="165" y="787" on="1"/>
        <pt x="178" y="816" on="0"/>
        <pt x="231" y="855" on="0"/>
        <pt x="290" y="855" on="0"/>
        <pt x="377" y="809" on="0"/>
        <pt x="395" y="809" on="1"/>
        <pt x="425" y="809" on="0"/>
        <pt x="445" y="852" on="1"/>
        <pt x="487" y="824" on="1"/>
        <pt x="457" y="760" on="0"/>
      </contour>
      <contour>
        <pt x="497" y="253" on="1"/>
        <pt x="497" y="674" on="1"/>
        <pt x="559" y="674" on="1"/>
        <pt x="559" y="255" on="1"/>
        <pt x="559" y="125" on="0"/>
        <pt x="433" y="-8" on="0"/>
        <pt x="205" y="-8" on="0"/>
        <pt x="80" y="122" on="0"/>
        <pt x="80" y="247" on="1"/>
        <pt x="80" y="674" on="1"/>
        <pt x="142" y="674" on="1"/>
        <pt x="142" y="248" on="1"/>
        <pt x="142" y="147" on="0"/>
        <pt x="237" y="52" on="0"/>
        <pt x="318" y="52" on="1"/>
        <pt x="497" y="52" on="0"/>
      </contour>
    </TTGlyph>
    <TTGlyph name="V" xMin="40" yMin="0" xMax="591" yMax="674">
      <contour>
        <pt x="591" y="674" on="1"/>
        <pt x="354" y="0" on="1"/>
        <pt x="269" y="0" on="1"/>
        <pt x="40" y="674" on="1"/>
        <pt x="107" y="674" on="1"/>
        <pt x="312" y="55" on="1"/>
        <pt x="524" y="674" on="1"/>
      </contour>
    </TTGlyph>
    <TTGlyph name="W" xMin="40" yMin="0" xMax="889" yMax="674">
      <contour>
        <pt x="432" y="664" on="1"/>
        <pt x="505" y="664" on="1"/>
        <pt x="692" y="59" on="1"/>
        <pt x="741" y="285" on="0"/>
        <pt x="827" y="674" on="1"/>
        <pt x="889" y="674" on="1"/>
        <pt x="736" y="0" on="1"/>
        <pt x="651" y="0" on="1"/>
        <pt x="470" y="583" on="1"/>
        <pt x="437" y="464" on="0"/>
        <pt x="300" y="0" on="1"/>
        <pt x="215" y="0" on="1"/>
        <pt x="40" y="674" on="1"/>
        <pt x="105" y="674" on="1"/>
        <pt x="259" y="63" on="1"/>
        <pt x="316" y="265" on="0"/>
      </contour>
    </TTGlyph>
    <TTGlyph name="Wacute" xMin="40" yMin="0" xMax="889" yMax="879">
      <contour>
        <pt x="447" y="729" on="1"/>
        <pt x="549" y="879" on="1"/>
        <pt x="630" y="879" on="1"/>
        <pt x="502" y="729" on="1"/>
      </contour>
      <contour>
        <pt x="432" y="664" on="1"/>
        <pt x="505" y="664" on="1"/>
        <pt x="692" y="59" on="1"/>
        <pt x="741" y="285" on="0"/>
        <pt x="827" y="674" on="1"/>
        <pt x="889" y="674" on="1"/>
        <pt x="736" y="0" on="1"/>
        <pt x="651" y="0" on="1"/>
        <pt x="470" y="583" on="1"/>
        <pt x="437" y="464" on="0"/>
        <pt x="300" y="0" on="1"/>
        <pt x="215" y="0" on="1"/>
        <pt x="40" y="674" on="1"/>
        <pt x="105" y="674" on="1"/>
        <pt x="259" y="63" on="1"/>
        <pt x="316" y="265" on="0"/>
      </contour>
    </TTGlyph>
    <TTGlyph name="Wcircumflex" xMin="40" yMin="0" xMax="889" yMax="879">
      <contour>
        <pt x="439" y="879" on="1"/>
        <pt x="502" y="879" on="1"/>
        <pt x="621" y="729" on="1"/>
        <pt x="557" y="729" on="1"/>
        <pt x="470" y="836" on="1"/>
        <pt x="384" y="729" on="1"/>
        <pt x="320" y="729" on="1"/>
      </contour>
      <contour>
        <pt x="432" y="664" on="1"/>
        <pt x="505" y="664" on="1"/>
        <pt x="692" y="59" on="1"/>
        <pt x="741" y="285" on="0"/>
        <pt x="827" y="674" on="1"/>
        <pt x="889" y="674" on="1"/>
        <pt x="736" y="0" on="1"/>
        <pt x="651" y="0" on="1"/>
        <pt x="470" y="583" on="1"/>
        <pt x="437" y="464" on="0"/>
        <pt x="300" y="0" on="1"/>
        <pt x="215" y="0" on="1"/>
        <pt x="40" y="674" on="1"/>
        <pt x="105" y="674" on="1"/>
        <pt x="259" y="63" on="1"/>
        <pt x="316" y="265" on="0"/>
      </contour>
    </TTGlyph>
    <TTGlyph name="Wdieresis" xMin="40" yMin="0" xMax="889" yMax="846">
      <contour>
        <pt x="359" y="760" on="0"/>
        <pt x="335" y="785" on="0"/>
        <pt x="335" y="822" on="0"/>
        <pt x="359" y="846" on="0"/>
        <pt x="396" y="846" on="0"/>
        <pt x="421" y="822" on="0"/>
        <pt x="421" y="785" on="0"/>
        <pt x="396" y="760" on="0"/>
      </contour>
      <contour>
        <pt x="544" y="760" on="0"/>
        <pt x="519" y="785" on="0"/>
        <pt x="519" y="822" on="0"/>
        <pt x="544" y="846" on="0"/>
        <pt x="581" y="846" on="0"/>
        <pt x="605" y="822" on="0"/>
        <pt x="605" y="785" on="0"/>
        <pt x="581" y="760" on="0"/>
      </contour>
      <contour>
        <pt x="432" y="664" on="1"/>
        <pt x="505" y="664" on="1"/>
        <pt x="692" y="59" on="1"/>
        <pt x="741" y="285" on="0"/>
        <pt x="827" y="674" on="1"/>
        <pt x="889" y="674" on="1"/>
        <pt x="736" y="0" on="1"/>
        <pt x="651" y="0" on="1"/>
        <pt x="470" y="583" on="1"/>
        <pt x="437" y="464" on="0"/>
        <pt x="300" y="0" on="1"/>
        <pt x="215" y="0" on="1"/>
        <pt x="40" y="674" on="1"/>
        <pt x="105" y="674" on="1"/>
        <pt x="259" y="63" on="1"/>
        <pt x="316" y="265" on="0"/>
      </contour>
    </TTGlyph>
    <TTGlyph name="Wgrave" xMin="40" yMin="0" xMax="889" yMax="878">
      <contour>
        <pt x="432" y="664" on="1"/>
        <pt x="505" y="664" on="1"/>
        <pt x="692" y="59" on="1"/>
        <pt x="741" y="285" on="0"/>
        <pt x="827" y="674" on="1"/>
        <pt x="889" y="674" on="1"/>
        <pt x="736" y="0" on="1"/>
        <pt x="651" y="0" on="1"/>
        <pt x="470" y="583" on="1"/>
        <pt x="437" y="464" on="0"/>
        <pt x="300" y="0" on="1"/>
        <pt x="215" y="0" on="1"/>
        <pt x="40" y="674" on="1"/>
        <pt x="105" y="674" on="1"/>
        <pt x="259" y="63" on="1"/>
        <pt x="316" y="265" on="0"/>
      </contour>
      <contour>
        <pt x="388" y="878" on="1"/>
        <pt x="490" y="728" on="1"/>
        <pt x="435" y="728" on="1"/>
        <pt x="307" y="878" on="1"/>
      </contour>
    </TTGlyph>
    <TTGlyph name="X" xMin="42" yMin="0" xMax="558" yMax="674">
      <contour>
        <pt x="260" y="340" on="1"/>
        <pt x="55" y="674" on="1"/>
        <pt x="127" y="674" on="1"/>
        <pt x="294" y="396" on="1"/>
        <pt x="461" y="674" on="1"/>
        <pt x="533" y="674" on="1"/>
        <pt x="329" y="340" on="1"/>
        <pt x="558" y="0" on="1"/>
        <pt x="486" y="0" on="1"/>
        <pt x="295" y="287" on="1"/>
        <pt x="114" y="0" on="1"/>
        <pt x="42" y="0" on="1"/>
      </contour>
    </TTGlyph>
    <TTGlyph name="Y" xMin="30" yMin="0" xMax="550" yMax="674">
      <contour>
        <pt x="320" y="0" on="1"/>
        <pt x="258" y="0" on="1"/>
        <pt x="258" y="252" on="1"/>
        <pt x="30" y="674" on="1"/>
        <pt x="101" y="674" on="1"/>
        <pt x="154" y="575" on="1"/>
        <pt x="289" y="315" on="1"/>
        <pt x="297" y="334" on="0"/>
        <pt x="479" y="674" on="1"/>
        <pt x="550" y="674" on="1"/>
        <pt x="320" y="252" on="1"/>
      </contour>
    </TTGlyph>
    <TTGlyph name="Yacute" xMin="30" yMin="0" xMax="550" yMax="878">
      <contour>
        <pt x="320" y="0" on="1"/>
        <pt x="258" y="0" on="1"/>
        <pt x="258" y="252" on="1"/>
        <pt x="30" y="674" on="1"/>
        <pt x="101" y="674" on="1"/>
        <pt x="154" y="575" on="1"/>
        <pt x="289" y="315" on="1"/>
        <pt x="297" y="334" on="0"/>
        <pt x="479" y="674" on="1"/>
        <pt x="550" y="674" on="1"/>
        <pt x="320" y="252" on="1"/>
      </contour>
      <contour>
        <pt x="463" y="878" on="1"/>
        <pt x="335" y="728" on="1"/>
        <pt x="280" y="728" on="1"/>
        <pt x="382" y="878" on="1"/>
      </contour>
    </TTGlyph>
    <TTGlyph name="Ycircumflex" xMin="30" yMin="0" xMax="550" yMax="878">
      <contour>
        <pt x="320" y="0" on="1"/>
        <pt x="258" y="0" on="1"/>
        <pt x="258" y="252" on="1"/>
        <pt x="30" y="674" on="1"/>
        <pt x="101" y="674" on="1"/>
        <pt x="154" y="575" on="1"/>
        <pt x="289" y="315" on="1"/>
        <pt x="297" y="334" on="0"/>
        <pt x="479" y="674" on="1"/>
        <pt x="550" y="674" on="1"/>
        <pt x="320" y="252" on="1"/>
      </contour>
      <contour>
        <pt x="289" y="835" on="1"/>
        <pt x="203" y="728" on="1"/>
        <pt x="139" y="728" on="1"/>
        <pt x="258" y="878" on="1"/>
        <pt x="321" y="878" on="1"/>
        <pt x="440" y="728" on="1"/>
        <pt x="376" y="728" on="1"/>
      </contour>
    </TTGlyph>
    <TTGlyph name="Ydieresis" xMin="30" yMin="0" xMax="550" yMax="847">
      <contour>
        <pt x="320" y="0" on="1"/>
        <pt x="258" y="0" on="1"/>
        <pt x="258" y="252" on="1"/>
        <pt x="30" y="674" on="1"/>
        <pt x="101" y="674" on="1"/>
        <pt x="154" y="575" on="1"/>
        <pt x="289" y="315" on="1"/>
        <pt x="297" y="334" on="0"/>
        <pt x="479" y="674" on="1"/>
        <pt x="550" y="674" on="1"/>
        <pt x="320" y="252" on="1"/>
      </contour>
      <contour>
        <pt x="240" y="786" on="0"/>
        <pt x="215" y="761" on="0"/>
        <pt x="178" y="761" on="0"/>
        <pt x="154" y="786" on="0"/>
        <pt x="154" y="823" on="0"/>
        <pt x="178" y="847" on="0"/>
        <pt x="215" y="847" on="0"/>
        <pt x="240" y="823" on="0"/>
      </contour>
      <contour>
        <pt x="424" y="786" on="0"/>
        <pt x="400" y="761" on="0"/>
        <pt x="363" y="761" on="0"/>
        <pt x="338" y="786" on="0"/>
        <pt x="338" y="823" on="0"/>
        <pt x="363" y="847" on="0"/>
        <pt x="400" y="847" on="0"/>
        <pt x="424" y="823" on="0"/>
      </contour>
    </TTGlyph>
    <TTGlyph name="Ygrave" xMin="30" yMin="0" xMax="550" yMax="879">
      <contour>
        <pt x="320" y="0" on="1"/>
        <pt x="258" y="0" on="1"/>
        <pt x="258" y="252" on="1"/>
        <pt x="30" y="674" on="1"/>
        <pt x="101" y="674" on="1"/>
        <pt x="154" y="575" on="1"/>
        <pt x="289" y="315" on="1"/>
        <pt x="297" y="334" on="0"/>
        <pt x="479" y="674" on="1"/>
        <pt x="550" y="674" on="1"/>
        <pt x="320" y="252" on="1"/>
      </contour>
      <contour>
        <pt x="330" y="729" on="1"/>
        <pt x="275" y="729" on="1"/>
        <pt x="147" y="879" on="1"/>
        <pt x="228" y="879" on="1"/>
      </contour>
    </TTGlyph>
    <TTGlyph name="Z" xMin="50" yMin="0" xMax="505" yMax="674">
      <contour>
        <pt x="490" y="674" on="1"/>
        <pt x="490" y="619" on="1"/>
        <pt x="120" y="55" on="1"/>
        <pt x="505" y="55" on="1"/>
        <pt x="505" y="0" on="1"/>
        <pt x="50" y="0" on="1"/>
        <pt x="50" y="55" on="1"/>
        <pt x="420" y="619" on="1"/>
        <pt x="54" y="619" on="1"/>
        <pt x="54" y="674" on="1"/>
      </contour>
    </TTGlyph>
    <TTGlyph name="Zacute" xMin="50" yMin="0" xMax="505" yMax="879">
      <contour>
        <pt x="490" y="674" on="1"/>
        <pt x="490" y="619" on="1"/>
        <pt x="120" y="55" on="1"/>
        <pt x="505" y="55" on="1"/>
        <pt x="505" y="0" on="1"/>
        <pt x="50" y="0" on="1"/>
        <pt x="50" y="55" on="1"/>
        <pt x="420" y="619" on="1"/>
        <pt x="54" y="619" on="1"/>
        <pt x="54" y="674" on="1"/>
      </contour>
      <contour>
        <pt x="261" y="729" on="1"/>
        <pt x="363" y="879" on="1"/>
        <pt x="444" y="879" on="1"/>
        <pt x="316" y="729" on="1"/>
      </contour>
    </TTGlyph>
    <TTGlyph name="Zcaron" xMin="50" yMin="0" xMax="505" yMax="879">
      <contour>
        <pt x="305" y="729" on="1"/>
        <pt x="242" y="729" on="1"/>
        <pt x="123" y="879" on="1"/>
        <pt x="187" y="879" on="1"/>
        <pt x="274" y="772" on="1"/>
        <pt x="360" y="879" on="1"/>
        <pt x="424" y="879" on="1"/>
      </contour>
      <contour>
        <pt x="490" y="674" on="1"/>
        <pt x="490" y="619" on="1"/>
        <pt x="120" y="55" on="1"/>
        <pt x="505" y="55" on="1"/>
        <pt x="505" y="0" on="1"/>
        <pt x="50" y="0" on="1"/>
        <pt x="50" y="55" on="1"/>
        <pt x="420" y="619" on="1"/>
        <pt x="54" y="619" on="1"/>
        <pt x="54" y="674" on="1"/>
      </contour>
    </TTGlyph>
    <TTGlyph name="Zdotaccent" xMin="50" yMin="0" xMax="505" yMax="850">
      <contour>
        <pt x="264" y="764" on="0"/>
        <pt x="239" y="789" on="0"/>
        <pt x="239" y="826" on="0"/>
        <pt x="264" y="850" on="0"/>
        <pt x="301" y="850" on="0"/>
        <pt x="325" y="826" on="0"/>
        <pt x="325" y="789" on="0"/>
        <pt x="301" y="764" on="0"/>
      </contour>
      <contour>
        <pt x="490" y="674" on="1"/>
        <pt x="490" y="619" on="1"/>
        <pt x="120" y="55" on="1"/>
        <pt x="505" y="55" on="1"/>
        <pt x="505" y="0" on="1"/>
        <pt x="50" y="0" on="1"/>
        <pt x="50" y="55" on="1"/>
        <pt x="420" y="619" on="1"/>
        <pt x="54" y="619" on="1"/>
        <pt x="54" y="674" on="1"/>
      </contour>
    </TTGlyph>
    <TTGlyph name="a" xMin="50" yMin="-5" xMax="416" yMax="515">
      <contour>
        <pt x="230" y="515" on="1"/>
        <pt x="416" y="515" on="0"/>
        <pt x="416" y="320" on="1"/>
        <pt x="416" y="0" on="1"/>
        <pt x="355" y="0" on="1"/>
        <pt x="355" y="59" on="1"/>
        <pt x="313" y="-5" on="0"/>
        <pt x="209" y="-5" on="1"/>
        <pt x="139" y="-5" on="0"/>
        <pt x="50" y="78" on="0"/>
        <pt x="50" y="216" on="0"/>
        <pt x="163" y="297" on="0"/>
        <pt x="256" y="297" on="1"/>
        <pt x="355" y="297" on="1"/>
        <pt x="355" y="320" on="1"/>
        <pt x="355" y="388" on="0"/>
        <pt x="297" y="457" on="0"/>
        <pt x="150" y="457" on="0"/>
        <pt x="87" y="414" on="1"/>
        <pt x="87" y="480" on="1"/>
        <pt x="145" y="515" on="0"/>
      </contour>
      <contour>
        <pt x="355" y="241" on="1"/>
        <pt x="256" y="241" on="1"/>
        <pt x="185" y="241" on="0"/>
        <pt x="115" y="186" on="0"/>
        <pt x="115" y="103" on="0"/>
        <pt x="170" y="51" on="0"/>
        <pt x="283" y="51" on="0"/>
        <pt x="355" y="117" on="0"/>
        <pt x="355" y="168" on="1"/>
      </contour>
    </TTGlyph>
    <TTGlyph name="aacute" xMin="50" yMin="-5" xMax="416" yMax="712">
      <contour>
        <pt x="230" y="515" on="1"/>
        <pt x="416" y="515" on="0"/>
        <pt x="416" y="320" on="1"/>
        <pt x="416" y="0" on="1"/>
        <pt x="355" y="0" on="1"/>
        <pt x="355" y="59" on="1"/>
        <pt x="313" y="-5" on="0"/>
        <pt x="209" y="-5" on="1"/>
        <pt x="139" y="-5" on="0"/>
        <pt x="50" y="78" on="0"/>
        <pt x="50" y="216" on="0"/>
        <pt x="163" y="297" on="0"/>
        <pt x="256" y="297" on="1"/>
        <pt x="355" y="297" on="1"/>
        <pt x="355" y="320" on="1"/>
        <pt x="355" y="388" on="0"/>
        <pt x="297" y="457" on="0"/>
        <pt x="150" y="457" on="0"/>
        <pt x="87" y="414" on="1"/>
        <pt x="87" y="480" on="1"/>
        <pt x="145" y="515" on="0"/>
      </contour>
      <contour>
        <pt x="355" y="241" on="1"/>
        <pt x="256" y="241" on="1"/>
        <pt x="185" y="241" on="0"/>
        <pt x="115" y="186" on="0"/>
        <pt x="115" y="103" on="0"/>
        <pt x="170" y="51" on="0"/>
        <pt x="283" y="51" on="0"/>
        <pt x="355" y="117" on="0"/>
        <pt x="355" y="168" on="1"/>
      </contour>
      <contour>
        <pt x="414" y="712" on="1"/>
        <pt x="286" y="562" on="1"/>
        <pt x="231" y="562" on="1"/>
        <pt x="333" y="712" on="1"/>
      </contour>
    </TTGlyph>
    <TTGlyph name="abreve" xMin="50" yMin="-5" xMax="416" yMax="711">
      <contour>
        <pt x="230" y="515" on="1"/>
        <pt x="416" y="515" on="0"/>
        <pt x="416" y="320" on="1"/>
        <pt x="416" y="0" on="1"/>
        <pt x="355" y="0" on="1"/>
        <pt x="355" y="59" on="1"/>
        <pt x="313" y="-5" on="0"/>
        <pt x="209" y="-5" on="1"/>
        <pt x="139" y="-5" on="0"/>
        <pt x="50" y="78" on="0"/>
        <pt x="50" y="216" on="0"/>
        <pt x="163" y="297" on="0"/>
        <pt x="256" y="297" on="1"/>
        <pt x="355" y="297" on="1"/>
        <pt x="355" y="320" on="1"/>
        <pt x="355" y="388" on="0"/>
        <pt x="297" y="457" on="0"/>
        <pt x="150" y="457" on="0"/>
        <pt x="87" y="414" on="1"/>
        <pt x="87" y="480" on="1"/>
        <pt x="145" y="515" on="0"/>
      </contour>
      <contour>
        <pt x="355" y="241" on="1"/>
        <pt x="256" y="241" on="1"/>
        <pt x="185" y="241" on="0"/>
        <pt x="115" y="186" on="0"/>
        <pt x="115" y="103" on="0"/>
        <pt x="170" y="51" on="0"/>
        <pt x="283" y="51" on="0"/>
        <pt x="355" y="117" on="0"/>
        <pt x="355" y="168" on="1"/>
      </contour>
      <contour>
        <pt x="350" y="711" on="1"/>
        <pt x="402" y="711" on="1"/>
        <pt x="402" y="643" on="0"/>
        <pt x="328" y="558" on="0"/>
        <pt x="166" y="558" on="0"/>
        <pt x="92" y="643" on="0"/>
        <pt x="92" y="711" on="1"/>
        <pt x="144" y="711" on="1"/>
        <pt x="144" y="606" on="0"/>
        <pt x="350" y="606" on="0"/>
      </contour>
    </TTGlyph>
    <TTGlyph name="acircumflex" xMin="50" yMin="-5" xMax="416" yMax="711">
      <contour>
        <pt x="230" y="515" on="1"/>
        <pt x="416" y="515" on="0"/>
        <pt x="416" y="320" on="1"/>
        <pt x="416" y="0" on="1"/>
        <pt x="355" y="0" on="1"/>
        <pt x="355" y="59" on="1"/>
        <pt x="313" y="-5" on="0"/>
        <pt x="209" y="-5" on="1"/>
        <pt x="139" y="-5" on="0"/>
        <pt x="50" y="78" on="0"/>
        <pt x="50" y="216" on="0"/>
        <pt x="163" y="297" on="0"/>
        <pt x="256" y="297" on="1"/>
        <pt x="355" y="297" on="1"/>
        <pt x="355" y="320" on="1"/>
        <pt x="355" y="388" on="0"/>
        <pt x="297" y="457" on="0"/>
        <pt x="150" y="457" on="0"/>
        <pt x="87" y="414" on="1"/>
        <pt x="87" y="480" on="1"/>
        <pt x="145" y="515" on="0"/>
      </contour>
      <contour>
        <pt x="355" y="241" on="1"/>
        <pt x="256" y="241" on="1"/>
        <pt x="185" y="241" on="0"/>
        <pt x="115" y="186" on="0"/>
        <pt x="115" y="103" on="0"/>
        <pt x="170" y="51" on="0"/>
        <pt x="283" y="51" on="0"/>
        <pt x="355" y="117" on="0"/>
        <pt x="355" y="168" on="1"/>
      </contour>
      <contour>
        <pt x="253" y="668" on="1"/>
        <pt x="167" y="561" on="1"/>
        <pt x="103" y="561" on="1"/>
        <pt x="222" y="711" on="1"/>
        <pt x="285" y="711" on="1"/>
        <pt x="404" y="561" on="1"/>
        <pt x="340" y="561" on="1"/>
      </contour>
    </TTGlyph>
    <TTGlyph name="acute" xMin="110" yMin="648" xMax="293" yMax="798">
      <contour>
        <pt x="110" y="648" on="1"/>
        <pt x="212" y="798" on="1"/>
        <pt x="293" y="798" on="1"/>
        <pt x="165" y="648" on="1"/>
      </contour>
    </TTGlyph>
    <TTGlyph name="adieresis" xMin="50" yMin="-5" xMax="416" yMax="677">
      <contour>
        <pt x="230" y="515" on="1"/>
        <pt x="416" y="515" on="0"/>
        <pt x="416" y="320" on="1"/>
        <pt x="416" y="0" on="1"/>
        <pt x="355" y="0" on="1"/>
        <pt x="355" y="59" on="1"/>
        <pt x="313" y="-5" on="0"/>
        <pt x="209" y="-5" on="1"/>
        <pt x="139" y="-5" on="0"/>
        <pt x="50" y="78" on="0"/>
        <pt x="50" y="216" on="0"/>
        <pt x="163" y="297" on="0"/>
        <pt x="256" y="297" on="1"/>
        <pt x="355" y="297" on="1"/>
        <pt x="355" y="320" on="1"/>
        <pt x="355" y="388" on="0"/>
        <pt x="297" y="457" on="0"/>
        <pt x="150" y="457" on="0"/>
        <pt x="87" y="414" on="1"/>
        <pt x="87" y="480" on="1"/>
        <pt x="145" y="515" on="0"/>
      </contour>
      <contour>
        <pt x="355" y="241" on="1"/>
        <pt x="256" y="241" on="1"/>
        <pt x="185" y="241" on="0"/>
        <pt x="115" y="186" on="0"/>
        <pt x="115" y="103" on="0"/>
        <pt x="170" y="51" on="0"/>
        <pt x="283" y="51" on="0"/>
        <pt x="355" y="117" on="0"/>
        <pt x="355" y="168" on="1"/>
      </contour>
      <contour>
        <pt x="200" y="616" on="0"/>
        <pt x="175" y="591" on="0"/>
        <pt x="138" y="591" on="0"/>
        <pt x="114" y="616" on="0"/>
        <pt x="114" y="653" on="0"/>
        <pt x="138" y="677" on="0"/>
        <pt x="175" y="677" on="0"/>
        <pt x="200" y="653" on="0"/>
      </contour>
      <contour>
        <pt x="384" y="616" on="0"/>
        <pt x="360" y="591" on="0"/>
        <pt x="323" y="591" on="0"/>
        <pt x="298" y="616" on="0"/>
        <pt x="298" y="653" on="0"/>
        <pt x="323" y="677" on="0"/>
        <pt x="360" y="677" on="0"/>
        <pt x="384" y="653" on="0"/>
      </contour>
    </TTGlyph>
    <TTGlyph name="ae" xMin="55" yMin="-5" xMax="782" yMax="515">
      <contour>
        <pt x="360" y="178" on="1"/>
        <pt x="360" y="239" on="1"/>
        <pt x="278" y="239" on="1"/>
        <pt x="119" y="239" on="0"/>
        <pt x="119" y="144" on="1"/>
        <pt x="119" y="103" on="0"/>
        <pt x="175" y="54" on="0"/>
        <pt x="283" y="54" on="0"/>
        <pt x="360" y="122" on="0"/>
      </contour>
      <contour>
        <pt x="719" y="378" on="0"/>
        <pt x="642" y="456" on="0"/>
        <pt x="518" y="456" on="0"/>
        <pt x="430" y="368" on="0"/>
        <pt x="422" y="282" on="1"/>
        <pt x="719" y="282" on="1"/>
        <pt x="719" y="305" on="1"/>
      </contour>
      <contour>
        <pt x="429" y="142" on="0"/>
        <pt x="533" y="53" on="0"/>
        <pt x="694" y="53" on="0"/>
        <pt x="745" y="87" on="1"/>
        <pt x="745" y="25" on="1"/>
        <pt x="685" y="-5" on="0"/>
        <pt x="540" y="-5" on="0"/>
        <pt x="428" y="54" on="0"/>
        <pt x="397" y="102" on="1"/>
        <pt x="377" y="53" on="0"/>
        <pt x="281" y="-5" on="0"/>
        <pt x="144" y="-5" on="0"/>
        <pt x="55" y="74" on="0"/>
        <pt x="55" y="216" on="0"/>
        <pt x="169" y="298" on="0"/>
        <pt x="264" y="298" on="1"/>
        <pt x="360" y="298" on="1"/>
        <pt x="360" y="320" on="1"/>
        <pt x="360" y="388" on="0"/>
        <pt x="302" y="457" on="0"/>
        <pt x="153" y="457" on="0"/>
        <pt x="92" y="415" on="1"/>
        <pt x="92" y="478" on="1"/>
        <pt x="151" y="515" on="0"/>
        <pt x="235" y="515" on="1"/>
        <pt x="367" y="515" on="0"/>
        <pt x="404" y="420" on="1"/>
        <pt x="465" y="513" on="0"/>
        <pt x="583" y="513" on="1"/>
        <pt x="680" y="513" on="0"/>
        <pt x="782" y="389" on="0"/>
        <pt x="782" y="275" on="1"/>
        <pt x="782" y="246" on="0"/>
        <pt x="778" y="226" on="1"/>
        <pt x="422" y="226" on="1"/>
      </contour>
    </TTGlyph>
    <TTGlyph name="agrave" xMin="50" yMin="-5" xMax="416" yMax="712">
      <contour>
        <pt x="230" y="515" on="1"/>
        <pt x="416" y="515" on="0"/>
        <pt x="416" y="320" on="1"/>
        <pt x="416" y="0" on="1"/>
        <pt x="355" y="0" on="1"/>
        <pt x="355" y="59" on="1"/>
        <pt x="313" y="-5" on="0"/>
        <pt x="209" y="-5" on="1"/>
        <pt x="139" y="-5" on="0"/>
        <pt x="50" y="78" on="0"/>
        <pt x="50" y="216" on="0"/>
        <pt x="163" y="297" on="0"/>
        <pt x="256" y="297" on="1"/>
        <pt x="355" y="297" on="1"/>
        <pt x="355" y="320" on="1"/>
        <pt x="355" y="388" on="0"/>
        <pt x="297" y="457" on="0"/>
        <pt x="150" y="457" on="0"/>
        <pt x="87" y="414" on="1"/>
        <pt x="87" y="480" on="1"/>
        <pt x="145" y="515" on="0"/>
      </contour>
      <contour>
        <pt x="355" y="241" on="1"/>
        <pt x="256" y="241" on="1"/>
        <pt x="185" y="241" on="0"/>
        <pt x="115" y="186" on="0"/>
        <pt x="115" y="103" on="0"/>
        <pt x="170" y="51" on="0"/>
        <pt x="283" y="51" on="0"/>
        <pt x="355" y="117" on="0"/>
        <pt x="355" y="168" on="1"/>
      </contour>
      <contour>
        <pt x="282" y="562" on="1"/>
        <pt x="227" y="562" on="1"/>
        <pt x="99" y="712" on="1"/>
        <pt x="180" y="712" on="1"/>
      </contour>
    </TTGlyph>
    <TTGlyph name="amacron" xMin="50" yMin="-5" xMax="416" yMax="659">
      <contour>
        <pt x="230" y="515" on="1"/>
        <pt x="416" y="515" on="0"/>
        <pt x="416" y="320" on="1"/>
        <pt x="416" y="0" on="1"/>
        <pt x="355" y="0" on="1"/>
        <pt x="355" y="59" on="1"/>
        <pt x="313" y="-5" on="0"/>
        <pt x="209" y="-5" on="1"/>
        <pt x="139" y="-5" on="0"/>
        <pt x="50" y="78" on="0"/>
        <pt x="50" y="216" on="0"/>
        <pt x="163" y="297" on="0"/>
        <pt x="256" y="297" on="1"/>
        <pt x="355" y="297" on="1"/>
        <pt x="355" y="320" on="1"/>
        <pt x="355" y="388" on="0"/>
        <pt x="297" y="457" on="0"/>
        <pt x="150" y="457" on="0"/>
        <pt x="87" y="414" on="1"/>
        <pt x="87" y="480" on="1"/>
        <pt x="145" y="515" on="0"/>
      </contour>
      <contour>
        <pt x="355" y="241" on="1"/>
        <pt x="256" y="241" on="1"/>
        <pt x="185" y="241" on="0"/>
        <pt x="115" y="186" on="0"/>
        <pt x="115" y="103" on="0"/>
        <pt x="170" y="51" on="0"/>
        <pt x="283" y="51" on="0"/>
        <pt x="355" y="117" on="0"/>
        <pt x="355" y="168" on="1"/>
      </contour>
      <contour>
        <pt x="376" y="659" on="1"/>
        <pt x="376" y="614" on="1"/>
        <pt x="113" y="614" on="1"/>
        <pt x="113" y="659" on="1"/>
      </contour>
    </TTGlyph>
    <TTGlyph name="ampersand" xMin="69" yMin="-8" xMax="692" yMax="691">
      <contour>
        <pt x="312" y="-8" on="1"/>
        <pt x="205" y="-8" on="0"/>
        <pt x="69" y="93" on="0"/>
        <pt x="69" y="174" on="1"/>
        <pt x="69" y="233" on="0"/>
        <pt x="151" y="315" on="0"/>
        <pt x="230" y="348" on="1"/>
        <pt x="177" y="404" on="0"/>
        <pt x="134" y="484" on="0"/>
        <pt x="134" y="528" on="1"/>
        <pt x="134" y="600" on="0"/>
        <pt x="231" y="691" on="0"/>
        <pt x="393" y="691" on="0"/>
        <pt x="494" y="592" on="0"/>
        <pt x="494" y="464" on="0"/>
        <pt x="418" y="372" on="0"/>
        <pt x="329" y="333" on="1"/>
        <pt x="385" y="282" on="0"/>
        <pt x="519" y="159" on="1"/>
        <pt x="543" y="201" on="0"/>
        <pt x="549" y="259" on="1"/>
        <pt x="610" y="259" on="1"/>
        <pt x="601" y="178" on="0"/>
        <pt x="564" y="118" on="1"/>
        <pt x="692" y="0" on="1"/>
        <pt x="604" y="0" on="1"/>
        <pt x="527" y="72" on="1"/>
        <pt x="449" y="-8" on="0"/>
      </contour>
      <contour>
        <pt x="430" y="568" on="0"/>
        <pt x="369" y="631" on="0"/>
        <pt x="262" y="631" on="0"/>
        <pt x="199" y="576" on="0"/>
        <pt x="199" y="493" on="0"/>
        <pt x="233" y="429" on="0"/>
        <pt x="286" y="374" on="1"/>
        <pt x="361" y="408" on="0"/>
        <pt x="430" y="476" on="0"/>
      </contour>
      <contour>
        <pt x="309" y="52" on="1"/>
        <pt x="417" y="52" on="0"/>
        <pt x="483" y="113" on="1"/>
        <pt x="283" y="296" on="0"/>
        <pt x="272" y="307" on="1"/>
        <pt x="202" y="277" on="0"/>
        <pt x="133" y="219" on="0"/>
        <pt x="133" y="118" on="0"/>
        <pt x="232" y="52" on="0"/>
      </contour>
    </TTGlyph>
    <TTGlyph name="aogonek" xMin="50" yMin="-237" xMax="439" yMax="515">
      <contour>
        <pt x="416" y="320" on="1"/>
        <pt x="416" y="0" on="1"/>
        <pt x="305" y="-50" on="0"/>
        <pt x="305" y="-124" on="1"/>
        <pt x="305" y="-156" on="0"/>
        <pt x="343" y="-189" on="0"/>
        <pt x="412" y="-189" on="0"/>
        <pt x="439" y="-169" on="1"/>
        <pt x="439" y="-219" on="1"/>
        <pt x="411" y="-237" on="0"/>
        <pt x="313" y="-237" on="0"/>
        <pt x="249" y="-176" on="0"/>
        <pt x="249" y="-84" on="0"/>
        <pt x="309" y="-7" on="0"/>
        <pt x="355" y="16" on="1"/>
        <pt x="355" y="63" on="1"/>
        <pt x="299" y="-5" on="0"/>
        <pt x="209" y="-5" on="1"/>
        <pt x="139" y="-5" on="0"/>
        <pt x="50" y="74" on="0"/>
        <pt x="50" y="216" on="0"/>
        <pt x="164" y="298" on="0"/>
        <pt x="259" y="298" on="1"/>
        <pt x="355" y="298" on="1"/>
        <pt x="355" y="320" on="1"/>
        <pt x="355" y="388" on="0"/>
        <pt x="297" y="457" on="0"/>
        <pt x="148" y="457" on="0"/>
        <pt x="87" y="415" on="1"/>
        <pt x="87" y="478" on="1"/>
        <pt x="146" y="515" on="0"/>
        <pt x="230" y="515" on="1"/>
        <pt x="416" y="515" on="0"/>
      </contour>
      <contour>
        <pt x="355" y="239" on="1"/>
        <pt x="273" y="239" on="1"/>
        <pt x="114" y="239" on="0"/>
        <pt x="114" y="144" on="1"/>
        <pt x="114" y="103" on="0"/>
        <pt x="170" y="54" on="0"/>
        <pt x="279" y="54" on="0"/>
        <pt x="355" y="118" on="0"/>
        <pt x="355" y="160" on="1"/>
      </contour>
    </TTGlyph>
    <TTGlyph name="approxequal" xMin="58" yMin="171" xMax="566" yMax="507">
      <contour>
        <pt x="431" y="370" on="1"/>
        <pt x="386" y="370" on="0"/>
        <pt x="243" y="451" on="0"/>
        <pt x="217" y="451" on="1"/>
        <pt x="147" y="451" on="0"/>
        <pt x="98" y="379" on="1"/>
        <pt x="58" y="416" on="1"/>
        <pt x="123" y="507" on="0"/>
        <pt x="210" y="507" on="1"/>
        <pt x="260" y="507" on="0"/>
        <pt x="397" y="427" on="0"/>
        <pt x="431" y="427" on="1"/>
        <pt x="487" y="427" on="0"/>
        <pt x="519" y="487" on="1"/>
        <pt x="566" y="455" on="1"/>
        <pt x="513" y="370" on="0"/>
      </contour>
      <contour>
        <pt x="431" y="171" on="1"/>
        <pt x="386" y="171" on="0"/>
        <pt x="243" y="252" on="0"/>
        <pt x="217" y="252" on="1"/>
        <pt x="147" y="252" on="0"/>
        <pt x="98" y="180" on="1"/>
        <pt x="58" y="217" on="1"/>
        <pt x="123" y="308" on="0"/>
        <pt x="210" y="308" on="1"/>
        <pt x="260" y="308" on="0"/>
        <pt x="397" y="228" on="0"/>
        <pt x="431" y="228" on="1"/>
        <pt x="487" y="228" on="0"/>
        <pt x="519" y="288" on="1"/>
        <pt x="566" y="256" on="1"/>
        <pt x="513" y="171" on="0"/>
      </contour>
    </TTGlyph>
    <TTGlyph name="aring" xMin="50" yMin="-5" xMax="416" yMax="749">
      <contour>
        <pt x="230" y="515" on="1"/>
        <pt x="416" y="515" on="0"/>
        <pt x="416" y="320" on="1"/>
        <pt x="416" y="0" on="1"/>
        <pt x="355" y="0" on="1"/>
        <pt x="355" y="59" on="1"/>
        <pt x="313" y="-5" on="0"/>
        <pt x="209" y="-5" on="1"/>
        <pt x="139" y="-5" on="0"/>
        <pt x="50" y="78" on="0"/>
        <pt x="50" y="216" on="0"/>
        <pt x="163" y="297" on="0"/>
        <pt x="256" y="297" on="1"/>
        <pt x="355" y="297" on="1"/>
        <pt x="355" y="320" on="1"/>
        <pt x="355" y="388" on="0"/>
        <pt x="297" y="457" on="0"/>
        <pt x="150" y="457" on="0"/>
        <pt x="87" y="414" on="1"/>
        <pt x="87" y="480" on="1"/>
        <pt x="145" y="515" on="0"/>
      </contour>
      <contour>
        <pt x="355" y="241" on="1"/>
        <pt x="256" y="241" on="1"/>
        <pt x="185" y="241" on="0"/>
        <pt x="115" y="186" on="0"/>
        <pt x="115" y="103" on="0"/>
        <pt x="170" y="51" on="0"/>
        <pt x="283" y="51" on="0"/>
        <pt x="355" y="117" on="0"/>
        <pt x="355" y="168" on="1"/>
      </contour>
      <contour>
        <pt x="294" y="552" on="0"/>
        <pt x="212" y="552" on="0"/>
        <pt x="155" y="610" on="0"/>
        <pt x="155" y="691" on="0"/>
        <pt x="212" y="749" on="0"/>
        <pt x="294" y="749" on="0"/>
        <pt x="352" y="691" on="0"/>
        <pt x="352" y="609" on="0"/>
      </contour>
      <contour>
        <pt x="307" y="672" on="0"/>
        <pt x="276" y="704" on="0"/>
        <pt x="231" y="704" on="0"/>
        <pt x="200" y="672" on="0"/>
        <pt x="200" y="628" on="0"/>
        <pt x="231" y="597" on="0"/>
        <pt x="275" y="597" on="0"/>
        <pt x="307" y="628" on="0"/>
      </contour>
    </TTGlyph>
    <TTGlyph name="asciicircum" xMin="48" yMin="332" xMax="405" yMax="594">
      <contour>
        <pt x="405" y="332" on="1"/>
        <pt x="341" y="332" on="1"/>
        <pt x="228" y="558" on="1"/>
        <pt x="112" y="332" on="1"/>
        <pt x="48" y="332" on="1"/>
        <pt x="188" y="594" on="1"/>
        <pt x="270" y="594" on="1"/>
      </contour>
    </TTGlyph>
    <TTGlyph name="asciitilde" xMin="38" yMin="195" xMax="546" yMax="332">
      <contour>
        <pt x="411" y="195" on="1"/>
        <pt x="366" y="195" on="0"/>
        <pt x="223" y="276" on="0"/>
        <pt x="197" y="276" on="1"/>
        <pt x="127" y="276" on="0"/>
        <pt x="78" y="204" on="1"/>
        <pt x="38" y="241" on="1"/>
        <pt x="103" y="332" on="0"/>
        <pt x="190" y="332" on="1"/>
        <pt x="240" y="332" on="0"/>
        <pt x="377" y="252" on="0"/>
        <pt x="411" y="252" on="1"/>
        <pt x="467" y="252" on="0"/>
        <pt x="499" y="312" on="1"/>
        <pt x="546" y="280" on="1"/>
        <pt x="493" y="195" on="0"/>
      </contour>
    </TTGlyph>
    <TTGlyph name="asterisk" xMin="29" yMin="368" xMax="351" yMax="674">
      <contour>
        <pt x="226" y="504" on="1"/>
        <pt x="218" y="504" on="1"/>
        <pt x="234" y="497" on="0"/>
        <pt x="249" y="476" on="1"/>
        <pt x="305" y="398" on="1"/>
        <pt x="265" y="368" on="1"/>
        <pt x="208" y="446" on="1"/>
        <pt x="193" y="466" on="0"/>
        <pt x="190" y="485" on="1"/>
        <pt x="188" y="466" on="0"/>
        <pt x="173" y="445" on="1"/>
        <pt x="116" y="368" on="1"/>
        <pt x="75" y="397" on="1"/>
        <pt x="132" y="475" on="1"/>
        <pt x="146" y="494" on="0"/>
        <pt x="164" y="504" on="1"/>
        <pt x="160" y="503" on="0"/>
        <pt x="135" y="503" on="0"/>
        <pt x="120" y="508" on="1"/>
        <pt x="29" y="538" on="1"/>
        <pt x="44" y="586" on="1"/>
        <pt x="136" y="556" on="1"/>
        <pt x="157" y="549" on="0"/>
        <pt x="173" y="536" on="1"/>
        <pt x="164" y="551" on="0"/>
        <pt x="164" y="578" on="1"/>
        <pt x="164" y="674" on="1"/>
        <pt x="214" y="674" on="1"/>
        <pt x="214" y="578" on="1"/>
        <pt x="214" y="556" on="0"/>
        <pt x="207" y="537" on="1"/>
        <pt x="219" y="550" on="0"/>
        <pt x="243" y="558" on="1"/>
        <pt x="335" y="587" on="1"/>
        <pt x="351" y="540" on="1"/>
        <pt x="259" y="509" on="1"/>
        <pt x="244" y="504" on="0"/>
      </contour>
    </TTGlyph>
    <TTGlyph name="at" xMin="65" yMin="-155" xMax="836" yMax="597">
      <contour>
        <pt x="400" y="-155" on="1"/>
        <pt x="246" y="-155" on="0"/>
        <pt x="65" y="40" on="0"/>
        <pt x="65" y="195" on="1"/>
        <pt x="65" y="369" on="0"/>
        <pt x="309" y="597" on="0"/>
        <pt x="484" y="597" on="1"/>
        <pt x="633" y="597" on="0"/>
        <pt x="836" y="413" on="0"/>
        <pt x="836" y="260" on="1"/>
        <pt x="836" y="146" on="0"/>
        <pt x="731" y="26" on="0"/>
        <pt x="666" y="26" on="1"/>
        <pt x="580" y="26" on="0"/>
        <pt x="557" y="106" on="1"/>
        <pt x="502" y="23" on="0"/>
        <pt x="411" y="23" on="1"/>
        <pt x="339" y="23" on="0"/>
        <pt x="256" y="123" on="0"/>
        <pt x="256" y="285" on="0"/>
        <pt x="364" y="407" on="0"/>
        <pt x="526" y="407" on="0"/>
        <pt x="564" y="345" on="1"/>
        <pt x="565" y="368" on="0"/>
        <pt x="567" y="401" on="1"/>
        <pt x="620" y="401" on="1"/>
        <pt x="602" y="232" on="1"/>
        <pt x="599" y="204" on="0"/>
        <pt x="599" y="177" on="1"/>
        <pt x="599" y="77" on="0"/>
        <pt x="670" y="77" on="1"/>
        <pt x="716" y="77" on="0"/>
        <pt x="779" y="179" on="0"/>
        <pt x="779" y="257" on="1"/>
        <pt x="779" y="391" on="0"/>
        <pt x="611" y="544" on="0"/>
        <pt x="341" y="544" on="0"/>
        <pt x="127" y="347" on="0"/>
        <pt x="127" y="53" on="0"/>
        <pt x="288" y="-100" on="0"/>
        <pt x="503" y="-100" on="0"/>
        <pt x="574" y="-58" on="1"/>
        <pt x="570" y="-123" on="1"/>
        <pt x="510" y="-155" on="0"/>
      </contour>
      <contour>
        <pt x="317" y="142" on="0"/>
        <pt x="371" y="77" on="0"/>
        <pt x="458" y="77" on="0"/>
        <pt x="534" y="135" on="0"/>
        <pt x="552" y="187" on="1"/>
        <pt x="552" y="200" on="0"/>
        <pt x="556" y="242" on="1"/>
        <pt x="548" y="296" on="0"/>
        <pt x="496" y="352" on="0"/>
        <pt x="387" y="352" on="0"/>
        <pt x="317" y="259" on="0"/>
      </contour>
    </TTGlyph>
    <TTGlyph name="atilde" xMin="50" yMin="-5" xMax="416" yMax="690">
      <contour>
        <pt x="230" y="515" on="1"/>
        <pt x="416" y="515" on="0"/>
        <pt x="416" y="320" on="1"/>
        <pt x="416" y="0" on="1"/>
        <pt x="355" y="0" on="1"/>
        <pt x="355" y="59" on="1"/>
        <pt x="313" y="-5" on="0"/>
        <pt x="209" y="-5" on="1"/>
        <pt x="139" y="-5" on="0"/>
        <pt x="50" y="78" on="0"/>
        <pt x="50" y="216" on="0"/>
        <pt x="163" y="297" on="0"/>
        <pt x="256" y="297" on="1"/>
        <pt x="355" y="297" on="1"/>
        <pt x="355" y="320" on="1"/>
        <pt x="355" y="388" on="0"/>
        <pt x="297" y="457" on="0"/>
        <pt x="150" y="457" on="0"/>
        <pt x="87" y="414" on="1"/>
        <pt x="87" y="480" on="1"/>
        <pt x="145" y="515" on="0"/>
      </contour>
      <contour>
        <pt x="355" y="241" on="1"/>
        <pt x="256" y="241" on="1"/>
        <pt x="185" y="241" on="0"/>
        <pt x="115" y="186" on="0"/>
        <pt x="115" y="103" on="0"/>
        <pt x="170" y="51" on="0"/>
        <pt x="283" y="51" on="0"/>
        <pt x="355" y="117" on="0"/>
        <pt x="355" y="168" on="1"/>
      </contour>
      <contour>
        <pt x="321" y="595" on="1"/>
        <pt x="296" y="595" on="0"/>
        <pt x="207" y="641" on="0"/>
        <pt x="191" y="641" on="1"/>
        <pt x="149" y="641" on="0"/>
        <pt x="124" y="592" on="1"/>
        <pt x="88" y="622" on="1"/>
        <pt x="101" y="651" on="0"/>
        <pt x="154" y="690" on="0"/>
        <pt x="213" y="690" on="0"/>
        <pt x="300" y="644" on="0"/>
        <pt x="318" y="644" on="1"/>
        <pt x="348" y="644" on="0"/>
        <pt x="368" y="687" on="1"/>
        <pt x="410" y="659" on="1"/>
        <pt x="380" y="595" on="0"/>
      </contour>
    </TTGlyph>
    <TTGlyph name="b" xMin="80" yMin="-8" xMax="514" yMax="707">
      <contour>
        <pt x="141" y="707" on="1"/>
        <pt x="141" y="431" on="1"/>
        <pt x="197" y="515" on="0"/>
        <pt x="392" y="515" on="0"/>
        <pt x="514" y="366" on="0"/>
        <pt x="514" y="141" on="0"/>
        <pt x="400" y="-8" on="0"/>
        <pt x="194" y="-8" on="0"/>
        <pt x="141" y="74" on="1"/>
        <pt x="141" y="0" on="1"/>
        <pt x="80" y="0" on="1"/>
        <pt x="80" y="707" on="1"/>
      </contour>
      <contour>
        <pt x="235" y="50" on="0"/>
        <pt x="365" y="50" on="0"/>
        <pt x="450" y="160" on="0"/>
        <pt x="450" y="348" on="0"/>
        <pt x="362" y="457" on="0"/>
        <pt x="294" y="457" on="1"/>
        <pt x="243" y="457" on="0"/>
        <pt x="196" y="416" on="1"/>
        <pt x="172" y="395" on="0"/>
        <pt x="141" y="312" on="0"/>
        <pt x="141" y="256" on="1"/>
        <pt x="141" y="145" on="0"/>
      </contour>
    </TTGlyph>
    <TTGlyph name="backslash" xMin="-30" yMin="-103" xMax="398" yMax="707">
      <contour>
        <pt x="32" y="707" on="1"/>
        <pt x="398" y="-103" on="1"/>
        <pt x="336" y="-103" on="1"/>
        <pt x="-30" y="707" on="1"/>
      </contour>
    </TTGlyph>
    <TTGlyph name="bar" xMin="80" yMin="-194" xMax="134" yMax="695">
      <contour>
        <pt x="80" y="-194" on="1"/>
        <pt x="80" y="695" on="1"/>
        <pt x="134" y="695" on="1"/>
        <pt x="134" y="-194" on="1"/>
      </contour>
    </TTGlyph>
    <TTGlyph name="braceleft" xMin="50" yMin="-185" xMax="312" yMax="712">
      <contour>
        <pt x="235" y="123" on="1"/>
        <pt x="235" y="92" on="0"/>
        <pt x="212" y="-16" on="0"/>
        <pt x="212" y="-80" on="0"/>
        <pt x="245" y="-125" on="0"/>
        <pt x="278" y="-125" on="1"/>
        <pt x="296" y="-125" on="0"/>
        <pt x="312" y="-116" on="1"/>
        <pt x="312" y="-178" on="1"/>
        <pt x="292" y="-185" on="0"/>
        <pt x="270" y="-185" on="1"/>
        <pt x="219" y="-185" on="0"/>
        <pt x="148" y="-109" on="0"/>
        <pt x="148" y="-44" on="1"/>
        <pt x="148" y="-16" on="0"/>
        <pt x="171" y="83" on="0"/>
        <pt x="171" y="107" on="1"/>
        <pt x="171" y="210" on="0"/>
        <pt x="82" y="232" on="1"/>
        <pt x="74" y="234" on="0"/>
        <pt x="50" y="234" on="1"/>
        <pt x="50" y="295" on="1"/>
        <pt x="119" y="295" on="0"/>
        <pt x="148" y="338" on="1"/>
        <pt x="171" y="372" on="0"/>
        <pt x="171" y="420" on="1"/>
        <pt x="171" y="444" on="0"/>
        <pt x="148" y="543" on="0"/>
        <pt x="148" y="571" on="1"/>
        <pt x="148" y="636" on="0"/>
        <pt x="219" y="712" on="0"/>
        <pt x="270" y="712" on="1"/>
        <pt x="292" y="712" on="0"/>
        <pt x="312" y="705" on="1"/>
        <pt x="312" y="643" on="1"/>
        <pt x="295" y="652" on="0"/>
        <pt x="278" y="652" on="1"/>
        <pt x="245" y="652" on="0"/>
        <pt x="212" y="607" on="0"/>
        <pt x="212" y="543" on="0"/>
        <pt x="235" y="435" on="0"/>
        <pt x="235" y="404" on="1"/>
        <pt x="235" y="350" on="0"/>
        <pt x="174" y="274" on="0"/>
        <pt x="112" y="264" on="1"/>
        <pt x="174" y="254" on="0"/>
        <pt x="235" y="177" on="0"/>
      </contour>
    </TTGlyph>
    <TTGlyph name="braceright" xMin="10" yMin="-185" xMax="272" yMax="712">
      <contour>
        <pt x="87" y="404" on="1"/>
        <pt x="87" y="435" on="0"/>
        <pt x="110" y="543" on="0"/>
        <pt x="110" y="607" on="0"/>
        <pt x="77" y="652" on="0"/>
        <pt x="44" y="652" on="1"/>
        <pt x="26" y="652" on="0"/>
        <pt x="10" y="643" on="1"/>
        <pt x="10" y="705" on="1"/>
        <pt x="30" y="712" on="0"/>
        <pt x="52" y="712" on="1"/>
        <pt x="103" y="712" on="0"/>
        <pt x="174" y="636" on="0"/>
        <pt x="174" y="571" on="1"/>
        <pt x="174" y="543" on="0"/>
        <pt x="151" y="444" on="0"/>
        <pt x="151" y="420" on="1"/>
        <pt x="151" y="372" on="0"/>
        <pt x="174" y="338" on="1"/>
        <pt x="203" y="295" on="0"/>
        <pt x="272" y="295" on="1"/>
        <pt x="272" y="234" on="1"/>
        <pt x="248" y="234" on="0"/>
        <pt x="240" y="232" on="1"/>
        <pt x="151" y="210" on="0"/>
        <pt x="151" y="107" on="1"/>
        <pt x="151" y="83" on="0"/>
        <pt x="174" y="-16" on="0"/>
        <pt x="174" y="-44" on="1"/>
        <pt x="174" y="-109" on="0"/>
        <pt x="103" y="-185" on="0"/>
        <pt x="52" y="-185" on="1"/>
        <pt x="30" y="-185" on="0"/>
        <pt x="10" y="-178" on="1"/>
        <pt x="10" y="-116" on="1"/>
        <pt x="26" y="-125" on="0"/>
        <pt x="44" y="-125" on="1"/>
        <pt x="77" y="-125" on="0"/>
        <pt x="110" y="-80" on="0"/>
        <pt x="110" y="-16" on="0"/>
        <pt x="87" y="92" on="0"/>
        <pt x="87" y="123" on="1"/>
        <pt x="87" y="177" on="0"/>
        <pt x="148" y="254" on="0"/>
        <pt x="210" y="264" on="1"/>
        <pt x="148" y="274" on="0"/>
        <pt x="87" y="350" on="0"/>
      </contour>
    </TTGlyph>
    <TTGlyph name="bracketleft" xMin="80" yMin="-179" xMax="296" yMax="707">
      <contour>
        <pt x="296" y="652" on="1"/>
        <pt x="142" y="652" on="1"/>
        <pt x="142" y="-123" on="1"/>
        <pt x="296" y="-123" on="1"/>
        <pt x="296" y="-179" on="1"/>
        <pt x="80" y="-179" on="1"/>
        <pt x="80" y="707" on="1"/>
        <pt x="296" y="707" on="1"/>
      </contour>
    </TTGlyph>
    <TTGlyph name="bracketright" xMin="0" yMin="-179" xMax="216" yMax="707">
      <contour>
        <pt x="216" y="707" on="1"/>
        <pt x="216" y="-179" on="1"/>
        <pt x="0" y="-179" on="1"/>
        <pt x="0" y="-123" on="1"/>
        <pt x="154" y="-123" on="1"/>
        <pt x="154" y="652" on="1"/>
        <pt x="0" y="652" on="1"/>
        <pt x="0" y="707" on="1"/>
      </contour>
    </TTGlyph>
    <TTGlyph name="breve" xMin="45" yMin="645" xMax="355" yMax="798">
      <contour>
        <pt x="45" y="798" on="1"/>
        <pt x="97" y="798" on="1"/>
        <pt x="97" y="693" on="0"/>
        <pt x="303" y="693" on="0"/>
        <pt x="303" y="798" on="1"/>
        <pt x="355" y="798" on="1"/>
        <pt x="355" y="730" on="0"/>
        <pt x="281" y="645" on="0"/>
        <pt x="119" y="645" on="0"/>
        <pt x="45" y="730" on="0"/>
      </contour>
    </TTGlyph>
    <TTGlyph name="brokenbar" xMin="80" yMin="-194" xMax="134" yMax="695">
      <contour>
        <pt x="134" y="-194" on="1"/>
        <pt x="80" y="-194" on="1"/>
        <pt x="80" y="135" on="1"/>
        <pt x="134" y="135" on="1"/>
      </contour>
      <contour>
        <pt x="134" y="366" on="1"/>
        <pt x="80" y="366" on="1"/>
        <pt x="80" y="695" on="1"/>
        <pt x="134" y="695" on="1"/>
      </contour>
    </TTGlyph>
    <TTGlyph name="bullet" xMin="95" yMin="223" xMax="360" yMax="489">
      <contour>
        <pt x="95" y="299" on="0"/>
        <pt x="95" y="413" on="0"/>
        <pt x="170" y="489" on="0"/>
        <pt x="283" y="489" on="0"/>
        <pt x="360" y="412" on="0"/>
        <pt x="360" y="300" on="0"/>
        <pt x="284" y="223" on="0"/>
        <pt x="171" y="223" on="0"/>
      </contour>
    </TTGlyph>
    <TTGlyph name="c" xMin="45" yMin="-12" xMax="417" yMax="516">
      <contour>
        <pt x="219" y="457" on="0"/>
        <pt x="109" y="336" on="0"/>
        <pt x="109" y="165" on="0"/>
        <pt x="215" y="47" on="0"/>
        <pt x="313" y="47" on="1"/>
        <pt x="374" y="47" on="0"/>
        <pt x="417" y="79" on="1"/>
        <pt x="417" y="17" on="1"/>
        <pt x="374" y="-12" on="0"/>
        <pt x="306" y="-12" on="1"/>
        <pt x="183" y="-12" on="0"/>
        <pt x="45" y="143" on="0"/>
        <pt x="45" y="358" on="0"/>
        <pt x="186" y="516" on="0"/>
        <pt x="306" y="516" on="1"/>
        <pt x="368" y="516" on="0"/>
        <pt x="417" y="489" on="1"/>
        <pt x="417" y="427" on="1"/>
        <pt x="372" y="457" on="0"/>
        <pt x="312" y="457" on="1"/>
      </contour>
    </TTGlyph>
    <TTGlyph name="cacute" xMin="45" yMin="-12" xMax="448" yMax="711">
      <contour>
        <pt x="219" y="457" on="0"/>
        <pt x="109" y="336" on="0"/>
        <pt x="109" y="165" on="0"/>
        <pt x="215" y="47" on="0"/>
        <pt x="313" y="47" on="1"/>
        <pt x="374" y="47" on="0"/>
        <pt x="417" y="79" on="1"/>
        <pt x="417" y="17" on="1"/>
        <pt x="374" y="-12" on="0"/>
        <pt x="306" y="-12" on="1"/>
        <pt x="183" y="-12" on="0"/>
        <pt x="45" y="143" on="0"/>
        <pt x="45" y="358" on="0"/>
        <pt x="186" y="516" on="0"/>
        <pt x="306" y="516" on="1"/>
        <pt x="368" y="516" on="0"/>
        <pt x="417" y="489" on="1"/>
        <pt x="417" y="427" on="1"/>
        <pt x="372" y="457" on="0"/>
        <pt x="312" y="457" on="1"/>
      </contour>
      <contour>
        <pt x="265" y="561" on="1"/>
        <pt x="367" y="711" on="1"/>
        <pt x="448" y="711" on="1"/>
        <pt x="320" y="561" on="1"/>
      </contour>
    </TTGlyph>
    <TTGlyph name="caron" xMin="49" yMin="648" xMax="350" yMax="798">
      <contour>
        <pt x="231" y="648" on="1"/>
        <pt x="168" y="648" on="1"/>
        <pt x="49" y="798" on="1"/>
        <pt x="113" y="798" on="1"/>
        <pt x="200" y="691" on="1"/>
        <pt x="286" y="798" on="1"/>
        <pt x="350" y="798" on="1"/>
      </contour>
    </TTGlyph>
    <TTGlyph name="ccaron" xMin="45" yMin="-12" xMax="426" yMax="712">
      <contour>
        <pt x="307" y="562" on="1"/>
        <pt x="244" y="562" on="1"/>
        <pt x="125" y="712" on="1"/>
        <pt x="189" y="712" on="1"/>
        <pt x="276" y="605" on="1"/>
        <pt x="362" y="712" on="1"/>
        <pt x="426" y="712" on="1"/>
      </contour>
      <contour>
        <pt x="312" y="457" on="1"/>
        <pt x="219" y="457" on="0"/>
        <pt x="109" y="336" on="0"/>
        <pt x="109" y="165" on="0"/>
        <pt x="215" y="47" on="0"/>
        <pt x="313" y="47" on="1"/>
        <pt x="374" y="47" on="0"/>
        <pt x="417" y="79" on="1"/>
        <pt x="417" y="17" on="1"/>
        <pt x="374" y="-12" on="0"/>
        <pt x="306" y="-12" on="1"/>
        <pt x="183" y="-12" on="0"/>
        <pt x="45" y="143" on="0"/>
        <pt x="45" y="358" on="0"/>
        <pt x="186" y="516" on="0"/>
        <pt x="306" y="516" on="1"/>
        <pt x="368" y="516" on="0"/>
        <pt x="417" y="489" on="1"/>
        <pt x="417" y="427" on="1"/>
        <pt x="372" y="457" on="0"/>
      </contour>
    </TTGlyph>
    <TTGlyph name="ccedilla" xMin="45" yMin="-248" xMax="417" yMax="516">
      <contour>
        <pt x="313" y="-51" on="1"/>
        <pt x="331" y="-77" on="0"/>
        <pt x="331" y="-173" on="0"/>
        <pt x="257" y="-245" on="0"/>
        <pt x="188" y="-248" on="1"/>
        <pt x="188" y="-199" on="1"/>
        <pt x="275" y="-190" on="0"/>
        <pt x="275" y="-126" on="1"/>
        <pt x="275" y="-89" on="0"/>
        <pt x="252" y="-51" on="1"/>
      </contour>
      <contour>
        <pt x="219" y="457" on="0"/>
        <pt x="109" y="336" on="0"/>
        <pt x="109" y="165" on="0"/>
        <pt x="215" y="47" on="0"/>
        <pt x="313" y="47" on="1"/>
        <pt x="374" y="47" on="0"/>
        <pt x="417" y="79" on="1"/>
        <pt x="417" y="17" on="1"/>
        <pt x="374" y="-12" on="0"/>
        <pt x="306" y="-12" on="1"/>
        <pt x="183" y="-12" on="0"/>
        <pt x="45" y="143" on="0"/>
        <pt x="45" y="358" on="0"/>
        <pt x="186" y="516" on="0"/>
        <pt x="306" y="516" on="1"/>
        <pt x="368" y="516" on="0"/>
        <pt x="417" y="489" on="1"/>
        <pt x="417" y="427" on="1"/>
        <pt x="372" y="457" on="0"/>
        <pt x="312" y="457" on="1"/>
      </contour>
    </TTGlyph>
    <TTGlyph name="ccircumflex" xMin="45" yMin="-12" xMax="419" yMax="712">
      <contour>
        <pt x="237" y="712" on="1"/>
        <pt x="300" y="712" on="1"/>
        <pt x="419" y="562" on="1"/>
        <pt x="355" y="562" on="1"/>
        <pt x="268" y="669" on="1"/>
        <pt x="182" y="562" on="1"/>
        <pt x="118" y="562" on="1"/>
      </contour>
      <contour>
        <pt x="312" y="457" on="1"/>
        <pt x="219" y="457" on="0"/>
        <pt x="109" y="336" on="0"/>
        <pt x="109" y="165" on="0"/>
        <pt x="215" y="47" on="0"/>
        <pt x="313" y="47" on="1"/>
        <pt x="374" y="47" on="0"/>
        <pt x="417" y="79" on="1"/>
        <pt x="417" y="17" on="1"/>
        <pt x="374" y="-12" on="0"/>
        <pt x="306" y="-12" on="1"/>
        <pt x="183" y="-12" on="0"/>
        <pt x="45" y="143" on="0"/>
        <pt x="45" y="358" on="0"/>
        <pt x="186" y="516" on="0"/>
        <pt x="306" y="516" on="1"/>
        <pt x="368" y="516" on="0"/>
        <pt x="417" y="489" on="1"/>
        <pt x="417" y="427" on="1"/>
        <pt x="372" y="457" on="0"/>
      </contour>
    </TTGlyph>
    <TTGlyph name="cdotaccent" xMin="45" yMin="-12" xMax="417" yMax="681">
      <contour>
        <pt x="284" y="595" on="0"/>
        <pt x="259" y="620" on="0"/>
        <pt x="259" y="657" on="0"/>
        <pt x="284" y="681" on="0"/>
        <pt x="321" y="681" on="0"/>
        <pt x="345" y="657" on="0"/>
        <pt x="345" y="620" on="0"/>
        <pt x="321" y="595" on="0"/>
      </contour>
      <contour>
        <pt x="219" y="457" on="0"/>
        <pt x="109" y="336" on="0"/>
        <pt x="109" y="165" on="0"/>
        <pt x="215" y="47" on="0"/>
        <pt x="313" y="47" on="1"/>
        <pt x="374" y="47" on="0"/>
        <pt x="417" y="79" on="1"/>
        <pt x="417" y="17" on="1"/>
        <pt x="374" y="-12" on="0"/>
        <pt x="306" y="-12" on="1"/>
        <pt x="183" y="-12" on="0"/>
        <pt x="45" y="143" on="0"/>
        <pt x="45" y="358" on="0"/>
        <pt x="186" y="516" on="0"/>
        <pt x="306" y="516" on="1"/>
        <pt x="368" y="516" on="0"/>
        <pt x="417" y="489" on="1"/>
        <pt x="417" y="427" on="1"/>
        <pt x="372" y="457" on="0"/>
        <pt x="312" y="457" on="1"/>
      </contour>
    </TTGlyph>
    <TTGlyph name="cedilla" xMin="128" yMin="-248" xMax="271" yMax="-51">
      <contour>
        <pt x="253" y="-51" on="1"/>
        <pt x="271" y="-77" on="0"/>
        <pt x="271" y="-173" on="0"/>
        <pt x="197" y="-245" on="0"/>
        <pt x="128" y="-248" on="1"/>
        <pt x="128" y="-199" on="1"/>
        <pt x="215" y="-190" on="0"/>
        <pt x="215" y="-126" on="1"/>
        <pt x="215" y="-89" on="0"/>
        <pt x="192" y="-51" on="1"/>
      </contour>
    </TTGlyph>
    <TTGlyph name="cent" xMin="50" yMin="-111" xMax="405" yMax="614">
      <contour>
        <pt x="317" y="453" on="1"/>
        <pt x="224" y="453" on="0"/>
        <pt x="114" y="335" on="0"/>
        <pt x="114" y="166" on="0"/>
        <pt x="220" y="51" on="0"/>
        <pt x="318" y="51" on="1"/>
        <pt x="366" y="51" on="0"/>
        <pt x="405" y="73" on="1"/>
        <pt x="405" y="11" on="1"/>
        <pt x="364" y="-6" on="0"/>
        <pt x="327" y="-7" on="1"/>
        <pt x="327" y="-111" on="1"/>
        <pt x="272" y="-111" on="1"/>
        <pt x="272" y="-6" on="1"/>
        <pt x="167" y="7" on="0"/>
        <pt x="50" y="153" on="0"/>
        <pt x="50" y="348" on="0"/>
        <pt x="169" y="497" on="0"/>
        <pt x="272" y="510" on="1"/>
        <pt x="272" y="614" on="1"/>
        <pt x="327" y="614" on="1"/>
        <pt x="327" y="511" on="1"/>
        <pt x="364" y="509" on="0"/>
        <pt x="405" y="492" on="1"/>
        <pt x="405" y="430" on="1"/>
        <pt x="362" y="453" on="0"/>
      </contour>
    </TTGlyph>
    <TTGlyph name="circumflex" xMin="49" yMin="648" xMax="350" yMax="798">
      <contour>
        <pt x="168" y="798" on="1"/>
        <pt x="231" y="798" on="1"/>
        <pt x="350" y="648" on="1"/>
        <pt x="286" y="648" on="1"/>
        <pt x="199" y="755" on="1"/>
        <pt x="113" y="648" on="1"/>
        <pt x="49" y="648" on="1"/>
      </contour>
    </TTGlyph>
    <TTGlyph name="colon" xMin="60" yMin="-1" xMax="162" yMax="420">
      <contour>
        <pt x="88" y="-1" on="0"/>
        <pt x="60" y="27" on="0"/>
        <pt x="60" y="70" on="0"/>
        <pt x="89" y="100" on="0"/>
        <pt x="132" y="100" on="0"/>
        <pt x="162" y="70" on="0"/>
        <pt x="162" y="27" on="0"/>
        <pt x="132" y="-1" on="0"/>
      </contour>
      <contour>
        <pt x="88" y="319" on="0"/>
        <pt x="60" y="347" on="0"/>
        <pt x="60" y="390" on="0"/>
        <pt x="89" y="420" on="0"/>
        <pt x="132" y="420" on="0"/>
        <pt x="162" y="390" on="0"/>
        <pt x="162" y="347" on="0"/>
        <pt x="132" y="319" on="0"/>
      </contour>
    </TTGlyph>
    <TTGlyph name="comma" xMin="-8" yMin="-122" xMax="173" yMax="92">
      <contour>
        <pt x="-8" y="-122" on="1"/>
        <pt x="83" y="92" on="1"/>
        <pt x="173" y="92" on="1"/>
        <pt x="46" y="-122" on="1"/>
      </contour>
    </TTGlyph>
    <TTGlyph name="commaaccent" xMin="109" yMin="-238" xMax="273" yMax="-51">
      <contour>
        <pt x="109" y="-238" on="1"/>
        <pt x="197" y="-51" on="1"/>
        <pt x="273" y="-51" on="1"/>
        <pt x="163" y="-238" on="1"/>
      </contour>
    </TTGlyph>
    <TTGlyph name="copyright" xMin="45" yMin="-9" xMax="735" yMax="682">
      <contour>
        <pt x="358" y="475" on="0"/>
        <pt x="282" y="395" on="0"/>
        <pt x="282" y="274" on="0"/>
        <pt x="358" y="194" on="0"/>
        <pt x="468" y="194" on="0"/>
        <pt x="497" y="219" on="1"/>
        <pt x="497" y="162" on="1"/>
        <pt x="467" y="140" on="0"/>
        <pt x="416" y="140" on="1"/>
        <pt x="326" y="140" on="0"/>
        <pt x="224" y="254" on="0"/>
        <pt x="224" y="412" on="0"/>
        <pt x="327" y="529" on="0"/>
        <pt x="416" y="529" on="1"/>
        <pt x="462" y="529" on="0"/>
        <pt x="497" y="509" on="1"/>
        <pt x="497" y="452" on="1"/>
        <pt x="463" y="475" on="0"/>
        <pt x="420" y="475" on="1"/>
      </contour>
      <contour>
        <pt x="104" y="454" on="0"/>
        <pt x="104" y="218" on="0"/>
        <pt x="273" y="49" on="0"/>
        <pt x="509" y="49" on="0"/>
        <pt x="678" y="218" on="0"/>
        <pt x="678" y="454" on="0"/>
        <pt x="509" y="624" on="0"/>
        <pt x="273" y="624" on="0"/>
      </contour>
      <contour>
        <pt x="45" y="195" on="0"/>
        <pt x="45" y="477" on="0"/>
        <pt x="249" y="682" on="0"/>
        <pt x="531" y="682" on="0"/>
        <pt x="735" y="477" on="0"/>
        <pt x="735" y="195" on="0"/>
        <pt x="531" y="-9" on="0"/>
        <pt x="249" y="-9" on="0"/>
      </contour>
    </TTGlyph>
    <TTGlyph name="currency" xMin="36" yMin="80" xMax="500" yMax="544">
      <contour>
        <pt x="108" y="383" on="0"/>
        <pt x="108" y="243" on="0"/>
        <pt x="198" y="152" on="0"/>
        <pt x="338" y="152" on="0"/>
        <pt x="428" y="242" on="0"/>
        <pt x="428" y="382" on="0"/>
        <pt x="338" y="474" on="0"/>
        <pt x="198" y="474" on="0"/>
      </contour>
      <contour>
        <pt x="94" y="179" on="1"/>
        <pt x="54" y="233" on="0"/>
        <pt x="54" y="384" on="0"/>
        <pt x="97" y="441" on="1"/>
        <pt x="36" y="503" on="1"/>
        <pt x="77" y="544" on="1"/>
        <pt x="138" y="482" on="1"/>
        <pt x="196" y="526" on="0"/>
        <pt x="345" y="526" on="0"/>
        <pt x="401" y="486" on="1"/>
        <pt x="459" y="544" on="1"/>
        <pt x="500" y="503" on="1"/>
        <pt x="442" y="445" on="1"/>
        <pt x="482" y="389" on="0"/>
        <pt x="482" y="241" on="0"/>
        <pt x="437" y="183" on="1"/>
        <pt x="500" y="121" on="1"/>
        <pt x="459" y="80" on="1"/>
        <pt x="396" y="142" on="1"/>
        <pt x="340" y="100" on="0"/>
        <pt x="189" y="100" on="0"/>
        <pt x="136" y="139" on="1"/>
        <pt x="77" y="80" on="1"/>
        <pt x="36" y="121" on="1"/>
      </contour>
    </TTGlyph>
    <TTGlyph name="d" xMin="45" yMin="-8" xMax="479" yMax="707">
      <contour>
        <pt x="418" y="707" on="1"/>
        <pt x="479" y="707" on="1"/>
        <pt x="479" y="0" on="1"/>
        <pt x="418" y="0" on="1"/>
        <pt x="418" y="74" on="1"/>
        <pt x="365" y="-8" on="0"/>
        <pt x="159" y="-8" on="0"/>
        <pt x="45" y="141" on="0"/>
        <pt x="45" y="366" on="0"/>
        <pt x="167" y="515" on="0"/>
        <pt x="362" y="515" on="0"/>
        <pt x="418" y="431" on="1"/>
      </contour>
      <contour>
        <pt x="194" y="50" on="0"/>
        <pt x="324" y="50" on="0"/>
        <pt x="418" y="145" on="0"/>
        <pt x="418" y="256" on="1"/>
        <pt x="418" y="312" on="0"/>
        <pt x="387" y="395" on="0"/>
        <pt x="362" y="416" on="1"/>
        <pt x="316" y="457" on="0"/>
        <pt x="265" y="457" on="1"/>
        <pt x="197" y="457" on="0"/>
        <pt x="109" y="348" on="0"/>
        <pt x="109" y="160" on="0"/>
      </contour>
    </TTGlyph>
    <TTGlyph name="dagger" xMin="45" yMin="0" xMax="469" yMax="674">
      <contour>
        <pt x="469" y="498" on="1"/>
        <pt x="469" y="442" on="1"/>
        <pt x="281" y="442" on="1"/>
        <pt x="281" y="0" on="1"/>
        <pt x="224" y="0" on="1"/>
        <pt x="224" y="442" on="1"/>
        <pt x="45" y="442" on="1"/>
        <pt x="45" y="498" on="1"/>
        <pt x="224" y="498" on="1"/>
        <pt x="224" y="674" on="1"/>
        <pt x="281" y="674" on="1"/>
        <pt x="281" y="498" on="1"/>
      </contour>
    </TTGlyph>
    <TTGlyph name="daggerdbl" xMin="45" yMin="0" xMax="469" yMax="674">
      <contour>
        <pt x="469" y="442" on="1"/>
        <pt x="281" y="442" on="1"/>
        <pt x="281" y="245" on="1"/>
        <pt x="469" y="245" on="1"/>
        <pt x="469" y="189" on="1"/>
        <pt x="281" y="189" on="1"/>
        <pt x="281" y="0" on="1"/>
        <pt x="224" y="0" on="1"/>
        <pt x="224" y="189" on="1"/>
        <pt x="45" y="189" on="1"/>
        <pt x="45" y="245" on="1"/>
        <pt x="224" y="245" on="1"/>
        <pt x="224" y="442" on="1"/>
        <pt x="45" y="442" on="1"/>
        <pt x="45" y="498" on="1"/>
        <pt x="224" y="498" on="1"/>
        <pt x="224" y="674" on="1"/>
        <pt x="281" y="674" on="1"/>
        <pt x="281" y="498" on="1"/>
        <pt x="469" y="498" on="1"/>
      </contour>
    </TTGlyph>
    <TTGlyph name="dcaron" xMin="45" yMin="-8" xMax="703" yMax="707">
      <contour>
        <pt x="627" y="707" on="1"/>
        <pt x="703" y="707" on="1"/>
        <pt x="593" y="520" on="1"/>
        <pt x="539" y="520" on="1"/>
      </contour>
      <contour>
        <pt x="418" y="707" on="1"/>
        <pt x="479" y="707" on="1"/>
        <pt x="479" y="0" on="1"/>
        <pt x="418" y="0" on="1"/>
        <pt x="418" y="74" on="1"/>
        <pt x="365" y="-8" on="0"/>
        <pt x="159" y="-8" on="0"/>
        <pt x="45" y="141" on="0"/>
        <pt x="45" y="366" on="0"/>
        <pt x="167" y="515" on="0"/>
        <pt x="362" y="515" on="0"/>
        <pt x="418" y="431" on="1"/>
      </contour>
      <contour>
        <pt x="194" y="50" on="0"/>
        <pt x="324" y="50" on="0"/>
        <pt x="418" y="145" on="0"/>
        <pt x="418" y="256" on="1"/>
        <pt x="418" y="312" on="0"/>
        <pt x="387" y="395" on="0"/>
        <pt x="362" y="416" on="1"/>
        <pt x="316" y="457" on="0"/>
        <pt x="265" y="457" on="1"/>
        <pt x="197" y="457" on="0"/>
        <pt x="109" y="348" on="0"/>
        <pt x="109" y="160" on="0"/>
      </contour>
    </TTGlyph>
    <TTGlyph name="dcroat" xMin="45" yMin="-8" xMax="554" yMax="707">
      <contour>
        <pt x="554" y="641" on="1"/>
        <pt x="554" y="593" on="1"/>
        <pt x="479" y="593" on="1"/>
        <pt x="479" y="0" on="1"/>
        <pt x="418" y="0" on="1"/>
        <pt x="418" y="74" on="1"/>
        <pt x="365" y="-8" on="0"/>
        <pt x="159" y="-8" on="0"/>
        <pt x="45" y="141" on="0"/>
        <pt x="45" y="366" on="0"/>
        <pt x="167" y="515" on="0"/>
        <pt x="362" y="515" on="0"/>
        <pt x="418" y="431" on="1"/>
        <pt x="418" y="593" on="1"/>
        <pt x="213" y="593" on="1"/>
        <pt x="213" y="641" on="1"/>
        <pt x="418" y="641" on="1"/>
        <pt x="418" y="707" on="1"/>
        <pt x="479" y="707" on="1"/>
        <pt x="479" y="641" on="1"/>
      </contour>
      <contour>
        <pt x="194" y="50" on="0"/>
        <pt x="324" y="50" on="0"/>
        <pt x="418" y="145" on="0"/>
        <pt x="418" y="256" on="1"/>
        <pt x="418" y="312" on="0"/>
        <pt x="387" y="395" on="0"/>
        <pt x="362" y="416" on="1"/>
        <pt x="316" y="457" on="0"/>
        <pt x="265" y="457" on="1"/>
        <pt x="197" y="457" on="0"/>
        <pt x="109" y="348" on="0"/>
        <pt x="109" y="160" on="0"/>
      </contour>
    </TTGlyph>
    <TTGlyph name="degree" xMin="30" yMin="408" xMax="302" yMax="674">
      <contour>
        <pt x="128" y="627" on="0"/>
        <pt x="83" y="578" on="0"/>
        <pt x="83" y="505" on="0"/>
        <pt x="132" y="455" on="0"/>
        <pt x="204" y="455" on="0"/>
        <pt x="249" y="504" on="0"/>
        <pt x="249" y="577" on="0"/>
        <pt x="200" y="627" on="0"/>
      </contour>
      <contour>
        <pt x="30" y="480" on="0"/>
        <pt x="30" y="598" on="0"/>
        <pt x="108" y="674" on="0"/>
        <pt x="228" y="674" on="0"/>
        <pt x="302" y="602" on="0"/>
        <pt x="302" y="484" on="0"/>
        <pt x="224" y="408" on="0"/>
        <pt x="104" y="408" on="0"/>
      </contour>
    </TTGlyph>
    <TTGlyph name="dieresis" xMin="65" yMin="683" xMax="335" yMax="769">
      <contour>
        <pt x="274" y="683" on="0"/>
        <pt x="249" y="708" on="0"/>
        <pt x="249" y="745" on="0"/>
        <pt x="274" y="769" on="0"/>
        <pt x="311" y="769" on="0"/>
        <pt x="335" y="745" on="0"/>
        <pt x="335" y="708" on="0"/>
        <pt x="311" y="683" on="0"/>
      </contour>
      <contour>
        <pt x="89" y="683" on="0"/>
        <pt x="65" y="708" on="0"/>
        <pt x="65" y="745" on="0"/>
        <pt x="89" y="769" on="0"/>
        <pt x="126" y="769" on="0"/>
        <pt x="151" y="745" on="0"/>
        <pt x="151" y="708" on="0"/>
        <pt x="126" y="683" on="0"/>
      </contour>
    </TTGlyph>
    <TTGlyph name="divide" xMin="60" yMin="115" xMax="484" yMax="565">
      <contour>
        <pt x="226" y="142" on="0"/>
        <pt x="226" y="180" on="0"/>
        <pt x="253" y="207" on="0"/>
        <pt x="291" y="207" on="0"/>
        <pt x="318" y="180" on="0"/>
        <pt x="318" y="142" on="0"/>
        <pt x="291" y="115" on="0"/>
        <pt x="253" y="115" on="0"/>
      </contour>
      <contour>
        <pt x="60" y="312" on="1"/>
        <pt x="60" y="368" on="1"/>
        <pt x="484" y="368" on="1"/>
        <pt x="484" y="312" on="1"/>
      </contour>
      <contour>
        <pt x="226" y="500" on="0"/>
        <pt x="226" y="538" on="0"/>
        <pt x="253" y="565" on="0"/>
        <pt x="291" y="565" on="0"/>
        <pt x="318" y="538" on="0"/>
        <pt x="318" y="500" on="0"/>
        <pt x="291" y="473" on="0"/>
        <pt x="253" y="473" on="0"/>
      </contour>
    </TTGlyph>
    <TTGlyph name="dollar" xMin="58" yMin="-107" xMax="447" yMax="781">
      <contour>
        <pt x="269" y="619" on="1"/>
        <pt x="202" y="619" on="0"/>
        <pt x="122" y="556" on="0"/>
        <pt x="122" y="504" on="1"/>
        <pt x="122" y="450" on="0"/>
        <pt x="167" y="418" on="1"/>
        <pt x="203" y="393" on="0"/>
        <pt x="279" y="361" on="0"/>
        <pt x="322" y="342" on="0"/>
        <pt x="369" y="315" on="0"/>
        <pt x="395" y="294" on="1"/>
        <pt x="447" y="250" on="0"/>
        <pt x="447" y="91" on="0"/>
        <pt x="340" y="-2" on="0"/>
        <pt x="255" y="-7" on="1"/>
        <pt x="255" y="-107" on="1"/>
        <pt x="200" y="-107" on="1"/>
        <pt x="200" y="-5" on="1"/>
        <pt x="121" y="1" on="0"/>
        <pt x="60" y="37" on="1"/>
        <pt x="60" y="106" on="1"/>
        <pt x="90" y="83" on="0"/>
        <pt x="185" y="53" on="0"/>
        <pt x="305" y="53" on="0"/>
        <pt x="384" y="115" on="0"/>
        <pt x="384" y="173" on="1"/>
        <pt x="384" y="227" on="0"/>
        <pt x="338" y="258" on="1"/>
        <pt x="303" y="283" on="0"/>
        <pt x="236" y="311" on="1"/>
        <pt x="233" y="312" on="0"/>
        <pt x="229" y="314" on="0"/>
        <pt x="223" y="316" on="0"/>
        <pt x="184" y="333" on="0"/>
        <pt x="137" y="359" on="0"/>
        <pt x="110" y="381" on="1"/>
        <pt x="58" y="425" on="0"/>
        <pt x="58" y="581" on="0"/>
        <pt x="169" y="675" on="0"/>
        <pt x="251" y="680" on="1"/>
        <pt x="251" y="781" on="1"/>
        <pt x="306" y="781" on="1"/>
        <pt x="306" y="678" on="1"/>
        <pt x="367" y="671" on="0"/>
        <pt x="408" y="650" on="1"/>
        <pt x="408" y="581" on="1"/>
        <pt x="384" y="597" on="0"/>
        <pt x="306" y="619" on="0"/>
      </contour>
    </TTGlyph>
    <TTGlyph name="dotaccent" xMin="157" yMin="684" xMax="243" yMax="770">
      <contour>
        <pt x="182" y="684" on="0"/>
        <pt x="157" y="709" on="0"/>
        <pt x="157" y="746" on="0"/>
        <pt x="182" y="770" on="0"/>
        <pt x="219" y="770" on="0"/>
        <pt x="243" y="746" on="0"/>
        <pt x="243" y="709" on="0"/>
        <pt x="219" y="684" on="0"/>
      </contour>
    </TTGlyph>
    <TTGlyph name="dotlessi" xMin="80" yMin="0" xMax="141" yMax="507">
      <contour>
        <pt x="80" y="0" on="1"/>
        <pt x="80" y="507" on="1"/>
        <pt x="141" y="507" on="1"/>
        <pt x="141" y="0" on="1"/>
      </contour>
    </TTGlyph>
    <TTGlyph name="dvMatraAA_Candrabindu" xMin="-32" yMin="0" xMax="299" yMax="991">
      <contour>
        <pt x="-20" y="579" on="1"/>
        <pt x="-20" y="634" on="1"/>
        <pt x="282" y="634" on="1"/>
        <pt x="282" y="579" on="1"/>
        <pt x="162" y="579" on="1"/>
        <pt x="162" y="0" on="1"/>
        <pt x="100" y="0" on="1"/>
        <pt x="100" y="579" on="1"/>
      </contour>
      <contour>
        <pt x="88" y="924" on="0"/>
        <pt x="88" y="964" on="0"/>
        <pt x="114" y="991" on="0"/>
        <pt x="154" y="991" on="0"/>
        <pt x="182" y="964" on="0"/>
        <pt x="182" y="924" on="0"/>
        <pt x="154" y="898" on="0"/>
        <pt x="114" y="898" on="0"/>
      </contour>
      <contour>
        <pt x="299" y="817" on="0"/>
        <pt x="203" y="741" on="0"/>
        <pt x="64" y="741" on="0"/>
        <pt x="-32" y="816" on="0"/>
        <pt x="-32" y="889" on="1"/>
        <pt x="30" y="889" on="1"/>
        <pt x="30" y="848" on="0"/>
        <pt x="84" y="793" on="0"/>
        <pt x="182" y="793" on="0"/>
        <pt x="237" y="847" on="0"/>
        <pt x="237" y="889" on="1"/>
        <pt x="299" y="889" on="1"/>
      </contour>
    </TTGlyph>
    <TTGlyph name="dvMatraAI_Candrabindu" xMin="-408" yMin="627" xMax="209" yMax="961">
      <contour>
        <pt x="147" y="859" on="1"/>
        <pt x="209" y="859" on="1"/>
        <pt x="209" y="787" on="0"/>
        <pt x="113" y="711" on="0"/>
        <pt x="-26" y="711" on="0"/>
        <pt x="-122" y="786" on="0"/>
        <pt x="-122" y="859" on="1"/>
        <pt x="-60" y="859" on="1"/>
        <pt x="-60" y="818" on="0"/>
        <pt x="-6" y="763" on="0"/>
        <pt x="92" y="763" on="0"/>
        <pt x="147" y="817" on="0"/>
      </contour>
      <contour>
        <pt x="-233" y="673" on="0"/>
        <pt x="-307" y="712" on="0"/>
        <pt x="-374" y="712" on="0"/>
        <pt x="-408" y="703" on="1"/>
        <pt x="-408" y="765" on="1"/>
        <pt x="-381" y="772" on="0"/>
        <pt x="-355" y="772" on="1"/>
        <pt x="-289" y="772" on="0"/>
        <pt x="-230" y="720" on="1"/>
        <pt x="-148" y="647" on="1"/>
        <pt x="-239" y="766" on="1"/>
        <pt x="-279" y="819" on="0"/>
        <pt x="-354" y="819" on="1"/>
        <pt x="-407" y="813" on="1"/>
        <pt x="-407" y="871" on="1"/>
        <pt x="-378" y="877" on="0"/>
        <pt x="-352" y="877" on="1"/>
        <pt x="-251" y="877" on="0"/>
        <pt x="-193" y="788" on="1"/>
        <pt x="-87" y="627" on="1"/>
        <pt x="-177" y="627" on="1"/>
      </contour>
      <contour>
        <pt x="64" y="868" on="0"/>
        <pt x="24" y="868" on="0"/>
        <pt x="-2" y="894" on="0"/>
        <pt x="-2" y="934" on="0"/>
        <pt x="24" y="961" on="0"/>
        <pt x="64" y="961" on="0"/>
        <pt x="92" y="934" on="0"/>
        <pt x="92" y="894" on="0"/>
      </contour>
    </TTGlyph>
    <TTGlyph name="dvMatraE_Candrabindu" xMin="-400" yMin="627" xMax="209" yMax="961">
      <contour>
        <pt x="-2" y="894" on="0"/>
        <pt x="-2" y="934" on="0"/>
        <pt x="24" y="961" on="0"/>
        <pt x="64" y="961" on="0"/>
        <pt x="92" y="934" on="0"/>
        <pt x="92" y="894" on="0"/>
        <pt x="64" y="868" on="0"/>
        <pt x="24" y="868" on="0"/>
      </contour>
      <contour>
        <pt x="209" y="787" on="0"/>
        <pt x="113" y="711" on="0"/>
        <pt x="-26" y="711" on="0"/>
        <pt x="-122" y="786" on="0"/>
        <pt x="-122" y="859" on="1"/>
        <pt x="-60" y="859" on="1"/>
        <pt x="-60" y="818" on="0"/>
        <pt x="-6" y="763" on="0"/>
        <pt x="92" y="763" on="0"/>
        <pt x="147" y="817" on="0"/>
        <pt x="147" y="859" on="1"/>
        <pt x="209" y="859" on="1"/>
      </contour>
      <contour>
        <pt x="-400" y="871" on="1"/>
        <pt x="-378" y="877" on="0"/>
        <pt x="-341" y="877" on="1"/>
        <pt x="-264" y="877" on="0"/>
        <pt x="-206" y="788" on="1"/>
        <pt x="-100" y="627" on="1"/>
        <pt x="-168" y="627" on="1"/>
        <pt x="-259" y="766" on="1"/>
        <pt x="-295" y="822" on="0"/>
        <pt x="-354" y="822" on="1"/>
        <pt x="-400" y="816" on="1"/>
      </contour>
    </TTGlyph>
    <TTGlyph name="dvSHA_MatraVocalicR" xMin="2" yMin="-201" xMax="660" yMax="639">
      <contour>
        <pt x="550" y="579" on="1"/>
        <pt x="550" y="18" on="1"/>
        <pt x="488" y="16" on="0"/>
        <pt x="426" y="-33" on="0"/>
        <pt x="426" y="-107" on="0"/>
        <pt x="481" y="-149" on="0"/>
        <pt x="593" y="-149" on="0"/>
        <pt x="638" y="-125" on="1"/>
        <pt x="638" y="-179" on="1"/>
        <pt x="597" y="-201" on="0"/>
        <pt x="458" y="-201" on="0"/>
        <pt x="365" y="-134" on="0"/>
        <pt x="365" y="-68" on="1"/>
        <pt x="365" y="-20" on="0"/>
        <pt x="433" y="48" on="0"/>
        <pt x="488" y="60" on="1"/>
        <pt x="488" y="221" on="1"/>
        <pt x="343" y="254" on="0"/>
        <pt x="254" y="294" on="1"/>
        <pt x="51" y="171" on="1"/>
        <pt x="2" y="209" on="1"/>
        <pt x="195" y="324" on="1"/>
        <pt x="76" y="396" on="0"/>
        <pt x="76" y="496" on="1"/>
        <pt x="76" y="552" on="0"/>
        <pt x="160" y="639" on="0"/>
        <pt x="302" y="639" on="0"/>
        <pt x="391" y="550" on="0"/>
        <pt x="391" y="490" on="1"/>
        <pt x="391" y="398" on="0"/>
        <pt x="305" y="333" on="1"/>
        <pt x="382" y="302" on="0"/>
        <pt x="488" y="281" on="1"/>
        <pt x="488" y="634" on="1"/>
        <pt x="660" y="634" on="1"/>
        <pt x="660" y="579" on="1"/>
      </contour>
      <contour>
        <pt x="138" y="496" on="1"/>
        <pt x="138" y="419" on="0"/>
        <pt x="248" y="360" on="1"/>
        <pt x="281" y="383" on="0"/>
        <pt x="329" y="453" on="0"/>
        <pt x="329" y="530" on="0"/>
        <pt x="275" y="587" on="0"/>
        <pt x="190" y="587" on="0"/>
        <pt x="138" y="533" on="0"/>
      </contour>
    </TTGlyph>
    <TTGlyph name="e" xMin="45" yMin="-5" xMax="471" yMax="513">
      <contour>
        <pt x="299" y="-5" on="1"/>
        <pt x="186" y="-5" on="0"/>
        <pt x="45" y="136" on="0"/>
        <pt x="45" y="373" on="0"/>
        <pt x="169" y="513" on="0"/>
        <pt x="361" y="513" on="0"/>
        <pt x="471" y="391" on="0"/>
        <pt x="471" y="280" on="1"/>
        <pt x="471" y="246" on="0"/>
        <pt x="467" y="226" on="1"/>
        <pt x="109" y="226" on="1"/>
        <pt x="116" y="142" on="0"/>
        <pt x="218" y="53" on="0"/>
        <pt x="388" y="53" on="0"/>
        <pt x="439" y="87" on="1"/>
        <pt x="439" y="25" on="1"/>
        <pt x="379" y="-5" on="0"/>
      </contour>
      <contour>
        <pt x="408" y="282" on="1"/>
        <pt x="408" y="305" on="1"/>
        <pt x="408" y="374" on="0"/>
        <pt x="331" y="456" on="0"/>
        <pt x="202" y="456" on="0"/>
        <pt x="116" y="366" on="0"/>
        <pt x="109" y="282" on="1"/>
      </contour>
    </TTGlyph>
    <TTGlyph name="eacute" xMin="45" yMin="-5" xMax="471" yMax="712">
      <contour>
        <pt x="299" y="-5" on="1"/>
        <pt x="186" y="-5" on="0"/>
        <pt x="45" y="136" on="0"/>
        <pt x="45" y="373" on="0"/>
        <pt x="169" y="513" on="0"/>
        <pt x="361" y="513" on="0"/>
        <pt x="471" y="391" on="0"/>
        <pt x="471" y="280" on="1"/>
        <pt x="471" y="246" on="0"/>
        <pt x="467" y="226" on="1"/>
        <pt x="109" y="226" on="1"/>
        <pt x="116" y="142" on="0"/>
        <pt x="218" y="53" on="0"/>
        <pt x="388" y="53" on="0"/>
        <pt x="439" y="87" on="1"/>
        <pt x="439" y="25" on="1"/>
        <pt x="379" y="-5" on="0"/>
      </contour>
      <contour>
        <pt x="408" y="282" on="1"/>
        <pt x="408" y="305" on="1"/>
        <pt x="408" y="374" on="0"/>
        <pt x="331" y="456" on="0"/>
        <pt x="202" y="456" on="0"/>
        <pt x="116" y="366" on="0"/>
        <pt x="109" y="282" on="1"/>
      </contour>
      <contour>
        <pt x="441" y="712" on="1"/>
        <pt x="313" y="562" on="1"/>
        <pt x="258" y="562" on="1"/>
        <pt x="360" y="712" on="1"/>
      </contour>
    </TTGlyph>
    <TTGlyph name="ebreve" xMin="45" yMin="-5" xMax="471" yMax="712">
      <contour>
        <pt x="299" y="-5" on="1"/>
        <pt x="186" y="-5" on="0"/>
        <pt x="45" y="136" on="0"/>
        <pt x="45" y="373" on="0"/>
        <pt x="169" y="513" on="0"/>
        <pt x="361" y="513" on="0"/>
        <pt x="471" y="391" on="0"/>
        <pt x="471" y="280" on="1"/>
        <pt x="471" y="246" on="0"/>
        <pt x="467" y="226" on="1"/>
        <pt x="109" y="226" on="1"/>
        <pt x="116" y="142" on="0"/>
        <pt x="218" y="53" on="0"/>
        <pt x="388" y="53" on="0"/>
        <pt x="439" y="87" on="1"/>
        <pt x="439" y="25" on="1"/>
        <pt x="379" y="-5" on="0"/>
      </contour>
      <contour>
        <pt x="408" y="282" on="1"/>
        <pt x="408" y="305" on="1"/>
        <pt x="408" y="374" on="0"/>
        <pt x="331" y="456" on="0"/>
        <pt x="202" y="456" on="0"/>
        <pt x="116" y="366" on="0"/>
        <pt x="109" y="282" on="1"/>
      </contour>
      <contour>
        <pt x="379" y="712" on="1"/>
        <pt x="431" y="712" on="1"/>
        <pt x="431" y="644" on="0"/>
        <pt x="357" y="559" on="0"/>
        <pt x="195" y="559" on="0"/>
        <pt x="121" y="644" on="0"/>
        <pt x="121" y="712" on="1"/>
        <pt x="173" y="712" on="1"/>
        <pt x="173" y="607" on="0"/>
        <pt x="379" y="607" on="0"/>
      </contour>
    </TTGlyph>
    <TTGlyph name="ecaron" xMin="45" yMin="-5" xMax="471" yMax="712">
      <contour>
        <pt x="299" y="-5" on="1"/>
        <pt x="186" y="-5" on="0"/>
        <pt x="45" y="136" on="0"/>
        <pt x="45" y="373" on="0"/>
        <pt x="169" y="513" on="0"/>
        <pt x="361" y="513" on="0"/>
        <pt x="471" y="391" on="0"/>
        <pt x="471" y="280" on="1"/>
        <pt x="471" y="246" on="0"/>
        <pt x="467" y="226" on="1"/>
        <pt x="109" y="226" on="1"/>
        <pt x="116" y="142" on="0"/>
        <pt x="218" y="53" on="0"/>
        <pt x="388" y="53" on="0"/>
        <pt x="439" y="87" on="1"/>
        <pt x="439" y="25" on="1"/>
        <pt x="379" y="-5" on="0"/>
      </contour>
      <contour>
        <pt x="408" y="282" on="1"/>
        <pt x="408" y="305" on="1"/>
        <pt x="408" y="374" on="0"/>
        <pt x="331" y="456" on="0"/>
        <pt x="202" y="456" on="0"/>
        <pt x="116" y="366" on="0"/>
        <pt x="109" y="282" on="1"/>
      </contour>
      <contour>
        <pt x="306" y="562" on="1"/>
        <pt x="243" y="562" on="1"/>
        <pt x="124" y="712" on="1"/>
        <pt x="188" y="712" on="1"/>
        <pt x="275" y="605" on="1"/>
        <pt x="361" y="712" on="1"/>
        <pt x="425" y="712" on="1"/>
      </contour>
    </TTGlyph>
    <TTGlyph name="ecircumflex" xMin="45" yMin="-5" xMax="471" yMax="712">
      <contour>
        <pt x="299" y="-5" on="1"/>
        <pt x="186" y="-5" on="0"/>
        <pt x="45" y="136" on="0"/>
        <pt x="45" y="373" on="0"/>
        <pt x="169" y="513" on="0"/>
        <pt x="361" y="513" on="0"/>
        <pt x="471" y="391" on="0"/>
        <pt x="471" y="280" on="1"/>
        <pt x="471" y="246" on="0"/>
        <pt x="467" y="226" on="1"/>
        <pt x="109" y="226" on="1"/>
        <pt x="116" y="142" on="0"/>
        <pt x="218" y="53" on="0"/>
        <pt x="388" y="53" on="0"/>
        <pt x="439" y="87" on="1"/>
        <pt x="439" y="25" on="1"/>
        <pt x="379" y="-5" on="0"/>
      </contour>
      <contour>
        <pt x="408" y="282" on="1"/>
        <pt x="408" y="305" on="1"/>
        <pt x="408" y="374" on="0"/>
        <pt x="331" y="456" on="0"/>
        <pt x="202" y="456" on="0"/>
        <pt x="116" y="366" on="0"/>
        <pt x="109" y="282" on="1"/>
      </contour>
      <contour>
        <pt x="284" y="669" on="1"/>
        <pt x="198" y="562" on="1"/>
        <pt x="134" y="562" on="1"/>
        <pt x="253" y="712" on="1"/>
        <pt x="316" y="712" on="1"/>
        <pt x="435" y="562" on="1"/>
        <pt x="371" y="562" on="1"/>
      </contour>
    </TTGlyph>
    <TTGlyph name="edieresis" xMin="45" yMin="-5" xMax="471" yMax="680">
      <contour>
        <pt x="299" y="-5" on="1"/>
        <pt x="186" y="-5" on="0"/>
        <pt x="45" y="136" on="0"/>
        <pt x="45" y="373" on="0"/>
        <pt x="169" y="513" on="0"/>
        <pt x="361" y="513" on="0"/>
        <pt x="471" y="391" on="0"/>
        <pt x="471" y="280" on="1"/>
        <pt x="471" y="246" on="0"/>
        <pt x="467" y="226" on="1"/>
        <pt x="109" y="226" on="1"/>
        <pt x="116" y="142" on="0"/>
        <pt x="218" y="53" on="0"/>
        <pt x="388" y="53" on="0"/>
        <pt x="439" y="87" on="1"/>
        <pt x="439" y="25" on="1"/>
        <pt x="379" y="-5" on="0"/>
      </contour>
      <contour>
        <pt x="408" y="282" on="1"/>
        <pt x="408" y="305" on="1"/>
        <pt x="408" y="374" on="0"/>
        <pt x="331" y="456" on="0"/>
        <pt x="202" y="456" on="0"/>
        <pt x="116" y="366" on="0"/>
        <pt x="109" y="282" on="1"/>
      </contour>
      <contour>
        <pt x="232" y="619" on="0"/>
        <pt x="207" y="594" on="0"/>
        <pt x="170" y="594" on="0"/>
        <pt x="146" y="619" on="0"/>
        <pt x="146" y="656" on="0"/>
        <pt x="170" y="680" on="0"/>
        <pt x="207" y="680" on="0"/>
        <pt x="232" y="656" on="0"/>
      </contour>
      <contour>
        <pt x="416" y="619" on="0"/>
        <pt x="392" y="594" on="0"/>
        <pt x="355" y="594" on="0"/>
        <pt x="330" y="619" on="0"/>
        <pt x="330" y="656" on="0"/>
        <pt x="355" y="680" on="0"/>
        <pt x="392" y="680" on="0"/>
        <pt x="416" y="656" on="0"/>
      </contour>
    </TTGlyph>
    <TTGlyph name="edotaccent" xMin="45" yMin="-5" xMax="471" yMax="681">
      <contour>
        <pt x="299" y="-5" on="1"/>
        <pt x="186" y="-5" on="0"/>
        <pt x="45" y="136" on="0"/>
        <pt x="45" y="373" on="0"/>
        <pt x="169" y="513" on="0"/>
        <pt x="361" y="513" on="0"/>
        <pt x="471" y="391" on="0"/>
        <pt x="471" y="280" on="1"/>
        <pt x="471" y="246" on="0"/>
        <pt x="467" y="226" on="1"/>
        <pt x="109" y="226" on="1"/>
        <pt x="116" y="142" on="0"/>
        <pt x="218" y="53" on="0"/>
        <pt x="388" y="53" on="0"/>
        <pt x="439" y="87" on="1"/>
        <pt x="439" y="25" on="1"/>
        <pt x="379" y="-5" on="0"/>
      </contour>
      <contour>
        <pt x="408" y="282" on="1"/>
        <pt x="408" y="305" on="1"/>
        <pt x="408" y="374" on="0"/>
        <pt x="331" y="456" on="0"/>
        <pt x="202" y="456" on="0"/>
        <pt x="116" y="366" on="0"/>
        <pt x="109" y="282" on="1"/>
      </contour>
      <contour>
        <pt x="325" y="620" on="0"/>
        <pt x="301" y="595" on="0"/>
        <pt x="264" y="595" on="0"/>
        <pt x="239" y="620" on="0"/>
        <pt x="239" y="657" on="0"/>
        <pt x="264" y="681" on="0"/>
        <pt x="301" y="681" on="0"/>
        <pt x="325" y="657" on="0"/>
      </contour>
    </TTGlyph>
    <TTGlyph name="egrave" xMin="45" yMin="-5" xMax="471" yMax="712">
      <contour>
        <pt x="299" y="-5" on="1"/>
        <pt x="186" y="-5" on="0"/>
        <pt x="45" y="136" on="0"/>
        <pt x="45" y="373" on="0"/>
        <pt x="169" y="513" on="0"/>
        <pt x="361" y="513" on="0"/>
        <pt x="471" y="391" on="0"/>
        <pt x="471" y="280" on="1"/>
        <pt x="471" y="246" on="0"/>
        <pt x="467" y="226" on="1"/>
        <pt x="109" y="226" on="1"/>
        <pt x="116" y="142" on="0"/>
        <pt x="218" y="53" on="0"/>
        <pt x="388" y="53" on="0"/>
        <pt x="439" y="87" on="1"/>
        <pt x="439" y="25" on="1"/>
        <pt x="379" y="-5" on="0"/>
      </contour>
      <contour>
        <pt x="408" y="282" on="1"/>
        <pt x="408" y="305" on="1"/>
        <pt x="408" y="374" on="0"/>
        <pt x="331" y="456" on="0"/>
        <pt x="202" y="456" on="0"/>
        <pt x="116" y="366" on="0"/>
        <pt x="109" y="282" on="1"/>
      </contour>
      <contour>
        <pt x="314" y="562" on="1"/>
        <pt x="259" y="562" on="1"/>
        <pt x="131" y="712" on="1"/>
        <pt x="212" y="712" on="1"/>
      </contour>
    </TTGlyph>
    <TTGlyph name="eight" xMin="55" yMin="-8" xMax="478" yMax="660">
      <contour>
        <pt x="478" y="167" on="1"/>
        <pt x="478" y="88" on="0"/>
        <pt x="354" y="-8" on="0"/>
        <pt x="176" y="-8" on="0"/>
        <pt x="55" y="85" on="0"/>
        <pt x="55" y="162" on="1"/>
        <pt x="55" y="224" on="0"/>
        <pt x="124" y="308" on="0"/>
        <pt x="183" y="325" on="1"/>
        <pt x="128" y="342" on="0"/>
        <pt x="66" y="423" on="0"/>
        <pt x="66" y="479" on="1"/>
        <pt x="66" y="564" on="0"/>
        <pt x="185" y="660" on="0"/>
        <pt x="343" y="660" on="0"/>
        <pt x="461" y="565" on="0"/>
        <pt x="461" y="477" on="1"/>
        <pt x="461" y="424" on="0"/>
        <pt x="400" y="344" on="0"/>
        <pt x="346" y="327" on="1"/>
        <pt x="408" y="311" on="0"/>
        <pt x="478" y="231" on="0"/>
      </contour>
      <contour>
        <pt x="202" y="602" on="0"/>
        <pt x="129" y="531" on="0"/>
        <pt x="129" y="417" on="0"/>
        <pt x="206" y="355" on="0"/>
        <pt x="325" y="355" on="0"/>
        <pt x="398" y="421" on="0"/>
        <pt x="398" y="533" on="0"/>
        <pt x="327" y="602" on="0"/>
      </contour>
      <contour>
        <pt x="118" y="117" on="0"/>
        <pt x="194" y="50" on="0"/>
        <pt x="337" y="50" on="0"/>
        <pt x="415" y="123" on="0"/>
        <pt x="415" y="227" on="0"/>
        <pt x="340" y="298" on="0"/>
        <pt x="191" y="296" on="0"/>
        <pt x="118" y="221" on="0"/>
      </contour>
    </TTGlyph>
    <TTGlyph name="ellipsis" xMin="30" yMin="-8" xMax="632" yMax="94">
      <contour>
        <pt x="530" y="21" on="0"/>
        <pt x="530" y="65" on="0"/>
        <pt x="559" y="94" on="0"/>
        <pt x="603" y="94" on="0"/>
        <pt x="632" y="65" on="0"/>
        <pt x="632" y="21" on="0"/>
        <pt x="603" y="-8" on="0"/>
        <pt x="559" y="-8" on="0"/>
      </contour>
      <contour>
        <pt x="280" y="21" on="0"/>
        <pt x="280" y="65" on="0"/>
        <pt x="309" y="94" on="0"/>
        <pt x="353" y="94" on="0"/>
        <pt x="382" y="65" on="0"/>
        <pt x="382" y="21" on="0"/>
        <pt x="353" y="-8" on="0"/>
        <pt x="309" y="-8" on="0"/>
      </contour>
      <contour>
        <pt x="30" y="21" on="0"/>
        <pt x="30" y="65" on="0"/>
        <pt x="59" y="94" on="0"/>
        <pt x="103" y="94" on="0"/>
        <pt x="132" y="65" on="0"/>
        <pt x="132" y="21" on="0"/>
        <pt x="103" y="-8" on="0"/>
        <pt x="59" y="-8" on="0"/>
      </contour>
    </TTGlyph>
    <TTGlyph name="emacron" xMin="45" yMin="-5" xMax="471" yMax="659">
      <contour>
        <pt x="299" y="-5" on="1"/>
        <pt x="186" y="-5" on="0"/>
        <pt x="45" y="136" on="0"/>
        <pt x="45" y="373" on="0"/>
        <pt x="169" y="513" on="0"/>
        <pt x="361" y="513" on="0"/>
        <pt x="471" y="391" on="0"/>
        <pt x="471" y="280" on="1"/>
        <pt x="471" y="246" on="0"/>
        <pt x="467" y="226" on="1"/>
        <pt x="109" y="226" on="1"/>
        <pt x="116" y="142" on="0"/>
        <pt x="218" y="53" on="0"/>
        <pt x="388" y="53" on="0"/>
        <pt x="439" y="87" on="1"/>
        <pt x="439" y="25" on="1"/>
        <pt x="379" y="-5" on="0"/>
      </contour>
      <contour>
        <pt x="408" y="282" on="1"/>
        <pt x="408" y="305" on="1"/>
        <pt x="408" y="374" on="0"/>
        <pt x="331" y="456" on="0"/>
        <pt x="202" y="456" on="0"/>
        <pt x="116" y="366" on="0"/>
        <pt x="109" y="282" on="1"/>
      </contour>
      <contour>
        <pt x="409" y="659" on="1"/>
        <pt x="409" y="614" on="1"/>
        <pt x="146" y="614" on="1"/>
        <pt x="146" y="659" on="1"/>
      </contour>
    </TTGlyph>
    <TTGlyph name="emdash" xMin="60" yMin="245" xMax="759" yMax="300">
      <contour>
        <pt x="60" y="245" on="1"/>
        <pt x="60" y="300" on="1"/>
        <pt x="759" y="300" on="1"/>
        <pt x="759" y="245" on="1"/>
      </contour>
    </TTGlyph>
    <TTGlyph name="endash" xMin="60" yMin="243" xMax="476" yMax="298">
      <contour>
        <pt x="60" y="243" on="1"/>
        <pt x="60" y="298" on="1"/>
        <pt x="476" y="298" on="1"/>
        <pt x="476" y="243" on="1"/>
      </contour>
    </TTGlyph>
    <TTGlyph name="eng" xMin="76" yMin="-194" xMax="460" yMax="515">
      <contour>
        <pt x="459" y="248" on="1"/>
        <pt x="460" y="248" on="1"/>
        <pt x="460" y="-64" on="1"/>
        <pt x="460" y="-126" on="0"/>
        <pt x="397" y="-194" on="0"/>
        <pt x="341" y="-194" on="1"/>
        <pt x="308" y="-194" on="0"/>
        <pt x="272" y="-180" on="1"/>
        <pt x="272" y="-120" on="1"/>
        <pt x="307" y="-136" on="0"/>
        <pt x="342" y="-136" on="1"/>
        <pt x="399" y="-136" on="0"/>
        <pt x="399" y="-62" on="1"/>
        <pt x="399" y="0" on="1"/>
        <pt x="398" y="0" on="1"/>
        <pt x="398" y="335" on="1"/>
        <pt x="398" y="394" on="0"/>
        <pt x="338" y="456" on="0"/>
        <pt x="227" y="456" on="0"/>
        <pt x="137" y="361" on="0"/>
        <pt x="137" y="280" on="1"/>
        <pt x="137" y="0" on="1"/>
        <pt x="76" y="0" on="1"/>
        <pt x="76" y="507" on="1"/>
        <pt x="137" y="507" on="1"/>
        <pt x="137" y="420" on="1"/>
        <pt x="184" y="515" on="0"/>
        <pt x="298" y="515" on="1"/>
        <pt x="371" y="515" on="0"/>
        <pt x="459" y="425" on="0"/>
        <pt x="459" y="354" on="1"/>
      </contour>
    </TTGlyph>
    <TTGlyph name="eogonek" xMin="45" yMin="-238" xMax="471" yMax="513">
      <contour>
        <pt x="368" y="-220" on="1"/>
        <pt x="340" y="-238" on="0"/>
        <pt x="242" y="-238" on="0"/>
        <pt x="178" y="-177" on="0"/>
        <pt x="178" y="-130" on="1"/>
        <pt x="178" y="-56" on="0"/>
        <pt x="255" y="-2" on="1"/>
        <pt x="160" y="12" on="0"/>
        <pt x="45" y="148" on="0"/>
        <pt x="45" y="373" on="0"/>
        <pt x="169" y="513" on="0"/>
        <pt x="361" y="513" on="0"/>
        <pt x="471" y="391" on="0"/>
        <pt x="471" y="280" on="1"/>
        <pt x="471" y="246" on="0"/>
        <pt x="467" y="226" on="1"/>
        <pt x="109" y="226" on="1"/>
        <pt x="116" y="142" on="0"/>
        <pt x="218" y="53" on="0"/>
        <pt x="388" y="53" on="0"/>
        <pt x="439" y="87" on="1"/>
        <pt x="439" y="25" on="1"/>
        <pt x="403" y="7" on="0"/>
        <pt x="343" y="-2" on="1"/>
        <pt x="234" y="-52" on="0"/>
        <pt x="234" y="-125" on="1"/>
        <pt x="234" y="-157" on="0"/>
        <pt x="272" y="-190" on="0"/>
        <pt x="341" y="-190" on="0"/>
        <pt x="368" y="-170" on="1"/>
      </contour>
      <contour>
        <pt x="408" y="282" on="1"/>
        <pt x="408" y="305" on="1"/>
        <pt x="408" y="374" on="0"/>
        <pt x="331" y="456" on="0"/>
        <pt x="202" y="456" on="0"/>
        <pt x="116" y="366" on="0"/>
        <pt x="109" y="282" on="1"/>
      </contour>
    </TTGlyph>
    <TTGlyph name="equal" xMin="60" yMin="215" xMax="484" yMax="465">
      <contour>
        <pt x="60" y="215" on="1"/>
        <pt x="60" y="271" on="1"/>
        <pt x="484" y="271" on="1"/>
        <pt x="484" y="215" on="1"/>
      </contour>
      <contour>
        <pt x="60" y="410" on="1"/>
        <pt x="60" y="465" on="1"/>
        <pt x="484" y="465" on="1"/>
        <pt x="484" y="410" on="1"/>
      </contour>
    </TTGlyph>
    <TTGlyph name="eth" xMin="39" yMin="-9" xMax="461" yMax="674">
      <contour>
        <pt x="461" y="264" on="1"/>
        <pt x="461" y="128" on="0"/>
        <pt x="345" y="-9" on="0"/>
        <pt x="155" y="-9" on="0"/>
        <pt x="39" y="115" on="0"/>
        <pt x="39" y="299" on="0"/>
        <pt x="160" y="410" on="0"/>
        <pt x="339" y="410" on="0"/>
        <pt x="398" y="337" on="1"/>
        <pt x="379" y="448" on="0"/>
        <pt x="301" y="542" on="1"/>
        <pt x="162" y="470" on="1"/>
        <pt x="162" y="526" on="1"/>
        <pt x="266" y="580" on="1"/>
        <pt x="201" y="642" on="0"/>
        <pt x="132" y="674" on="1"/>
        <pt x="240" y="674" on="1"/>
        <pt x="284" y="647" on="0"/>
        <pt x="320" y="608" on="1"/>
        <pt x="444" y="672" on="1"/>
        <pt x="444" y="616" on="1"/>
        <pt x="354" y="570" on="1"/>
        <pt x="461" y="434" on="0"/>
      </contour>
      <contour>
        <pt x="103" y="131" on="0"/>
        <pt x="184" y="49" on="0"/>
        <pt x="313" y="49" on="0"/>
        <pt x="403" y="156" on="0"/>
        <pt x="404" y="262" on="1"/>
        <pt x="342" y="350" on="0"/>
        <pt x="240" y="350" on="1"/>
        <pt x="182" y="350" on="0"/>
        <pt x="103" y="272" on="0"/>
      </contour>
    </TTGlyph>
    <TTGlyph name="exclam" xMin="69" yMin="-8" xMax="171" yMax="674">
      <contour>
        <pt x="97" y="-8" on="0"/>
        <pt x="69" y="20" on="0"/>
        <pt x="69" y="63" on="0"/>
        <pt x="98" y="93" on="0"/>
        <pt x="141" y="93" on="0"/>
        <pt x="171" y="63" on="0"/>
        <pt x="171" y="20" on="0"/>
        <pt x="141" y="-8" on="0"/>
      </contour>
      <contour>
        <pt x="90" y="196" on="1"/>
        <pt x="90" y="674" on="1"/>
        <pt x="151" y="674" on="1"/>
        <pt x="151" y="196" on="1"/>
      </contour>
    </TTGlyph>
    <TTGlyph name="exclamdown" xMin="69" yMin="-165" xMax="171" yMax="517">
      <contour>
        <pt x="90" y="-165" on="1"/>
        <pt x="90" y="313" on="1"/>
        <pt x="151" y="313" on="1"/>
        <pt x="151" y="-165" on="1"/>
      </contour>
      <contour>
        <pt x="98" y="416" on="0"/>
        <pt x="69" y="446" on="0"/>
        <pt x="69" y="489" on="0"/>
        <pt x="97" y="517" on="0"/>
        <pt x="141" y="517" on="0"/>
        <pt x="171" y="489" on="0"/>
        <pt x="171" y="446" on="0"/>
        <pt x="141" y="416" on="0"/>
      </contour>
    </TTGlyph>
    <TTGlyph name="f" xMin="30" yMin="0" xMax="301" yMax="712">
      <contour>
        <pt x="301" y="646" on="1"/>
        <pt x="280" y="654" on="0"/>
        <pt x="227" y="654" on="0"/>
        <pt x="184" y="607" on="0"/>
        <pt x="184" y="560" on="1"/>
        <pt x="184" y="507" on="1"/>
        <pt x="300" y="507" on="1"/>
        <pt x="300" y="455" on="1"/>
        <pt x="184" y="455" on="1"/>
        <pt x="184" y="0" on="1"/>
        <pt x="123" y="0" on="1"/>
        <pt x="123" y="455" on="1"/>
        <pt x="30" y="455" on="1"/>
        <pt x="30" y="507" on="1"/>
        <pt x="123" y="507" on="1"/>
        <pt x="123" y="561" on="1"/>
        <pt x="123" y="630" on="0"/>
        <pt x="195" y="712" on="0"/>
        <pt x="260" y="712" on="1"/>
        <pt x="279" y="712" on="0"/>
        <pt x="301" y="706" on="1"/>
      </contour>
    </TTGlyph>
    <TTGlyph name="ff" xMin="30" yMin="0" xMax="539" yMax="712">
      <contour>
        <pt x="539" y="646" on="1"/>
        <pt x="518" y="654" on="0"/>
        <pt x="465" y="654" on="0"/>
        <pt x="422" y="607" on="0"/>
        <pt x="422" y="560" on="1"/>
        <pt x="422" y="507" on="1"/>
        <pt x="538" y="507" on="1"/>
        <pt x="538" y="455" on="1"/>
        <pt x="422" y="455" on="1"/>
        <pt x="422" y="0" on="1"/>
        <pt x="361" y="0" on="1"/>
        <pt x="361" y="455" on="1"/>
        <pt x="184" y="455" on="1"/>
        <pt x="184" y="0" on="1"/>
        <pt x="123" y="0" on="1"/>
        <pt x="123" y="455" on="1"/>
        <pt x="30" y="455" on="1"/>
        <pt x="30" y="507" on="1"/>
        <pt x="123" y="507" on="1"/>
        <pt x="123" y="561" on="1"/>
        <pt x="123" y="631" on="0"/>
        <pt x="198" y="712" on="0"/>
        <pt x="337" y="712" on="0"/>
        <pt x="403" y="677" on="1"/>
        <pt x="438" y="712" on="0"/>
        <pt x="498" y="712" on="1"/>
        <pt x="517" y="712" on="0"/>
        <pt x="539" y="706" on="1"/>
      </contour>
      <contour>
        <pt x="361" y="507" on="1"/>
        <pt x="361" y="561" on="1"/>
        <pt x="361" y="598" on="0"/>
        <pt x="372" y="629" on="1"/>
        <pt x="324" y="654" on="0"/>
        <pt x="267" y="654" on="1"/>
        <pt x="184" y="654" on="0"/>
        <pt x="184" y="560" on="1"/>
        <pt x="184" y="507" on="1"/>
      </contour>
    </TTGlyph>
    <TTGlyph name="ffi" xMin="30" yMin="0" xMax="660" yMax="712">
      <contour>
        <pt x="660" y="507" on="1"/>
        <pt x="660" y="0" on="1"/>
        <pt x="599" y="0" on="1"/>
        <pt x="599" y="455" on="1"/>
        <pt x="422" y="455" on="1"/>
        <pt x="422" y="0" on="1"/>
        <pt x="361" y="0" on="1"/>
        <pt x="361" y="455" on="1"/>
        <pt x="184" y="455" on="1"/>
        <pt x="184" y="0" on="1"/>
        <pt x="123" y="0" on="1"/>
        <pt x="123" y="455" on="1"/>
        <pt x="30" y="455" on="1"/>
        <pt x="30" y="507" on="1"/>
        <pt x="123" y="507" on="1"/>
        <pt x="123" y="561" on="1"/>
        <pt x="123" y="631" on="0"/>
        <pt x="198" y="712" on="0"/>
        <pt x="337" y="712" on="0"/>
        <pt x="403" y="677" on="1"/>
        <pt x="441" y="712" on="0"/>
        <pt x="569" y="712" on="0"/>
        <pt x="628" y="680" on="1"/>
        <pt x="628" y="620" on="1"/>
        <pt x="563" y="654" on="0"/>
        <pt x="500" y="654" on="1"/>
        <pt x="422" y="654" on="0"/>
        <pt x="422" y="560" on="1"/>
        <pt x="422" y="507" on="1"/>
      </contour>
      <contour>
        <pt x="361" y="507" on="1"/>
        <pt x="361" y="561" on="1"/>
        <pt x="361" y="598" on="0"/>
        <pt x="372" y="629" on="1"/>
        <pt x="324" y="654" on="0"/>
        <pt x="267" y="654" on="1"/>
        <pt x="184" y="654" on="0"/>
        <pt x="184" y="560" on="1"/>
        <pt x="184" y="507" on="1"/>
      </contour>
    </TTGlyph>
    <TTGlyph name="ffl" xMin="30" yMin="0" xMax="651" yMax="712">
      <contour>
        <pt x="123" y="507" on="1"/>
        <pt x="123" y="561" on="1"/>
        <pt x="123" y="631" on="0"/>
        <pt x="198" y="712" on="0"/>
        <pt x="337" y="712" on="0"/>
        <pt x="403" y="677" on="1"/>
        <pt x="441" y="712" on="0"/>
        <pt x="581" y="712" on="0"/>
        <pt x="651" y="667" on="1"/>
        <pt x="651" y="0" on="1"/>
        <pt x="590" y="0" on="1"/>
        <pt x="590" y="635" on="1"/>
        <pt x="543" y="654" on="0"/>
        <pt x="506" y="654" on="1"/>
        <pt x="423" y="654" on="0"/>
        <pt x="423" y="560" on="1"/>
        <pt x="423" y="507" on="1"/>
        <pt x="539" y="507" on="1"/>
        <pt x="539" y="455" on="1"/>
        <pt x="423" y="455" on="1"/>
        <pt x="423" y="0" on="1"/>
        <pt x="362" y="0" on="1"/>
        <pt x="362" y="455" on="1"/>
        <pt x="184" y="455" on="1"/>
        <pt x="184" y="0" on="1"/>
        <pt x="123" y="0" on="1"/>
        <pt x="123" y="455" on="1"/>
        <pt x="30" y="455" on="1"/>
        <pt x="30" y="507" on="1"/>
      </contour>
      <contour>
        <pt x="362" y="507" on="1"/>
        <pt x="362" y="561" on="1"/>
        <pt x="362" y="598" on="0"/>
        <pt x="373" y="629" on="1"/>
        <pt x="325" y="654" on="0"/>
        <pt x="267" y="654" on="1"/>
        <pt x="184" y="654" on="0"/>
        <pt x="184" y="560" on="1"/>
        <pt x="184" y="507" on="1"/>
      </contour>
    </TTGlyph>
    <TTGlyph name="fi" xMin="30" yMin="0" xMax="422" yMax="712">
      <contour>
        <pt x="422" y="507" on="1"/>
        <pt x="422" y="0" on="1"/>
        <pt x="361" y="0" on="1"/>
        <pt x="361" y="455" on="1"/>
        <pt x="184" y="455" on="1"/>
        <pt x="184" y="0" on="1"/>
        <pt x="123" y="0" on="1"/>
        <pt x="123" y="455" on="1"/>
        <pt x="30" y="455" on="1"/>
        <pt x="30" y="507" on="1"/>
        <pt x="123" y="507" on="1"/>
        <pt x="123" y="561" on="1"/>
        <pt x="123" y="630" on="0"/>
        <pt x="196" y="712" on="0"/>
        <pt x="331" y="712" on="0"/>
        <pt x="390" y="680" on="1"/>
        <pt x="390" y="620" on="1"/>
        <pt x="325" y="654" on="0"/>
        <pt x="262" y="654" on="1"/>
        <pt x="184" y="654" on="0"/>
        <pt x="184" y="560" on="1"/>
        <pt x="184" y="507" on="1"/>
      </contour>
    </TTGlyph>
</ttFont>
